<svg xmlns="http://www.w3.org/2000/svg" width="100" height="100" viewBox="0 0 100 100">
    <g id="prefix__Group_241" data-name="Group 241" transform="translate(-494 -1573)">
        <g id="prefix__Group_18" data-name="Group 18">
            <path id="prefix__Rectangle_8" d="M0 0H100V100H0z" data-name="Rectangle 8" transform="translate(494 1573)" style="fill:none"/>
            <path id="prefix__Path_126" d="M76.482 41.2c0-.365-.023-.725-.055-1.084-.01-.1-.02-.207-.032-.311q-.051-.431-.132-.856c-.015-.073-.023-.148-.039-.22-.069-.325-.153-.645-.248-.962-.035-.118-.074-.234-.113-.351-.077-.229-.159-.455-.249-.678-.041-.1-.078-.2-.122-.3-.129-.3-.272-.594-.424-.882-.046-.085-.094-.168-.143-.252q-.2-.35-.418-.687l-.142-.218q-.3-.434-.632-.845l-.019-.021c-.223-.27-.461-.528-.707-.778l-.114-.113a12.1 12.1 0 0 0-1.68-1.387c-.04-.027-.081-.052-.121-.081-.266-.177-.54-.342-.821-.5l-.145-.081c-.045-.025-.087-.052-.132-.076A11.243 11.243 0 0 0 59.981 14.2a11.226 11.226 0 0 0-18.322-6.519A11.227 11.227 0 0 0 23.336 14.2a11.243 11.243 0 0 0-10.013 16.321c-.045.023-.087.051-.132.076s-.1.054-.146.081c-.281.157-.555.322-.82.5-.04.027-.081.052-.121.081a12.107 12.107 0 0 0-1.681 1.387l-.113.113c-.246.25-.484.507-.707.778l-.018.021c-.224.273-.433.555-.633.845-.049.072-.1.144-.143.218-.147.223-.286.453-.417.687-.048.084-.1.165-.143.252-.152.287-.3.582-.425.882-.044.1-.081.2-.12.3-.09.223-.173.45-.25.679-.039.117-.078.232-.114.351-.094.317-.179.637-.248.962-.015.073-.025.148-.04.22q-.08.425-.131.856c-.01.1-.022.2-.031.308-.033.358-.055.72-.055 1.084a12.035 12.035 0 0 0 5.819 10.308 11.242 11.242 0 0 0 9.577 16.444 11.116 11.116 0 0 0 11 9.655 12.912 12.912 0 0 0 8.424-2.852 12.915 12.915 0 0 0 8.423 2.852 11.115 11.115 0 0 0 11-9.655 11.243 11.243 0 0 0 9.587-16.444 12.036 12.036 0 0 0 5.817-10.31zM40.263 22.959a5.945 5.945 0 0 1-4.393.694 6.333 6.333 0 0 1-4.806-3.45 1.4 1.4 0 1 0-2.564 1.113 9.11 9.11 0 0 0 6.862 5.084 10.4 10.4 0 0 0 1.889.176 8.852 8.852 0 0 0 3.013-.507v46.2a9.974 9.974 0 0 1-7.029 2.547 8.314 8.314 0 0 1-8.3-8.286v-.017a7.11 7.11 0 0 1 2.376-5.45 8.828 8.828 0 0 1 5.927-2.118 1.4 1.4 0 0 0 0-2.791 12.524 12.524 0 0 0-3.693.556 11.118 11.118 0 0 0-.949-6.6 1.4 1.4 0 0 0-2.512 1.22 8.347 8.347 0 0 1 .056 7.094c-.238.179-.472.363-.693.562a9.854 9.854 0 0 0-3.21 6.168 8.437 8.437 0 0 1-6.473-13.368l1.017-1.405-1.591-.692a9.247 9.247 0 0 1-5.562-8.481c0-.286.017-.569.044-.85.009-.094.022-.188.033-.282.023-.185.051-.369.084-.55.02-.106.04-.214.063-.319.04-.179.087-.353.137-.528.026-.092.048-.185.077-.276q.119-.372.267-.728c.037-.09.081-.177.12-.265.073-.162.149-.323.232-.48.048-.091.1-.182.15-.272.09-.161.186-.318.286-.472.046-.071.09-.143.139-.212a9.269 9.269 0 0 1 1.057-1.276l.084-.081c.172-.169.351-.332.535-.487l.13-.106c.183-.149.372-.29.566-.424.039-.026.077-.054.115-.081a9.3 9.3 0 0 1 1.47-.8c.079-.034.161-.064.241-.1a9.185 9.185 0 0 1 3.416-.662 8.5 8.5 0 0 1 7.415 4.227 12 12 0 0 0-4.344 3.809 1.4 1.4 0 0 0 2.29 1.6A9.194 9.194 0 0 1 33 37.726a1.4 1.4 0 0 0 .365-2.768 12.023 12.023 0 0 0-4.423.24 11.389 11.389 0 0 0-10.068-6.032 11.988 11.988 0 0 0-2.905.369 8.433 8.433 0 0 1 8.423-12.475l1.481.184.084-1.49a8.447 8.447 0 0 1 14.3-5.585v12.79zm27.865 26.724l-1.591.692 1.017 1.405a8.437 8.437 0 0 1-6.461 13.367 11.122 11.122 0 0 0-4.208-7.4 11 11 0 0 0 1.915-4.5 1.4 1.4 0 0 0-2.75-.491 8.358 8.358 0 0 1-6.465 6.661 1.4 1.4 0 1 0 .57 2.734 11.015 11.015 0 0 0 4.808-2.35 8.314 8.314 0 0 1 3.424 6.707v.008a8.315 8.315 0 0 1-8.3 8.3 9.975 9.975 0 0 1-7.028-2.547V45.3c.635.023 1.435.043 2.279.043a30.891 30.891 0 0 0 3.175-.137 9.212 9.212 0 0 0 1.345 3.287 1.4 1.4 0 1 0 2.259-1.642c-1.206-1.661-1.486-5.709-.957-7.029a1.4 1.4 0 0 0-2.592-1.039 9.4 9.4 0 0 0-.427 3.659 43.126 43.126 0 0 1-5.083.064V10.167A8.439 8.439 0 0 1 57.2 14.559a11.214 11.214 0 0 0-5.832 3.641A1.4 1.4 0 0 0 53.5 20a8.427 8.427 0 0 1 5.45-2.942 8.323 8.323 0 0 1 1.013-.065 8.438 8.438 0 0 1 7.382 12.543 11.857 11.857 0 0 0-8.476 1A12.022 12.022 0 0 0 54.822 28a1.4 1.4 0 1 0-.981 2.615 9.191 9.191 0 0 1 5.913 7.542 1.4 1.4 0 0 0 1.385 1.23 1.484 1.484 0 0 0 .168-.01 1.4 1.4 0 0 0 1.221-1.552 12 12 0 0 0-1.828-5.074 9.185 9.185 0 0 1 7.158-.131c.081.031.162.061.241.1a9.3 9.3 0 0 1 1.47.8c.039.027.076.055.115.081.194.134.383.275.565.424l.131.106c.185.155.362.318.535.487.027.027.056.052.083.081a9.273 9.273 0 0 1 1.058 1.276c.048.069.093.141.139.212.1.154.2.311.286.472.051.09.1.181.15.272.082.157.158.318.232.48.04.088.084.176.121.265q.148.357.266.728c.029.09.052.184.077.276.051.175.1.35.136.528.023.1.044.212.064.319.033.182.061.365.084.55.012.094.025.187.033.282.026.281.044.563.044.85a9.247 9.247 0 0 1-5.56 8.474z" data-name="Path 126" transform="translate(502.505 1581.696)" style="fill:#ff5050"/>
        </g>
    </g>
</svg>
