<svg xmlns="http://www.w3.org/2000/svg" width="100" height="100" viewBox="0 0 100 100">
    <defs>
        <style>
            .prefix__cls-2{fill:#ff5050}
        </style>
    </defs>
    <g id="prefix__Group_235" data-name="Group 235" transform="translate(-494 -1573)">
        <g id="prefix__Group_18" data-name="Group 18">
            <path id="prefix__Rectangle_8" d="M0 0H100V100H0z" data-name="Rectangle 8" transform="translate(494 1573)" style="fill:none"/>
            <g id="prefix__noun_innovation_3049142" transform="translate(503 1582)">
                <g id="prefix__Group_349" data-name="Group 349" transform="translate(1 1)">
                    <path id="prefix__Path_282" d="M81.686 55.658v-2.6h-2.6V34.836h-7.811v18.22h-2.6V40.042h-7.811v13.014h-2.6v-7.809h-7.811v7.808h-2.6v10.412h-5.209v-2.6a5.211 5.211 0 0 0-5.206-5.206H20.521a2.6 2.6 0 0 1 0-5.206h16.918a5.211 5.211 0 0 0 5.206-5.206v-4.6a7.8 7.8 0 0 0 13.014-5.809c0-.151-.005-.3-.014-.454a7.781 7.781 0 0 0 3.218-12.557 7.723 7.723 0 0 0 2-5.208 7.815 7.815 0 0 0-5.228-7.361 8.071 8.071 0 0 0-.135-2.03 7.817 7.817 0 0 0-14.161-2.738 7.806 7.806 0 0 0-14.311 4.316c0 .151.005.3.014.454a7.781 7.781 0 0 0-3.218 12.558 7.723 7.723 0 0 0-2 5.208 7.815 7.815 0 0 0 5.228 7.361 8.075 8.075 0 0 0 .134 2.026A7.807 7.807 0 0 0 39.759 40.9c.1-.082.185-.18.282-.267v4.617a2.605 2.605 0 0 1-2.6 2.6h-16.92a5.206 5.206 0 1 0 0 10.411h16.918a2.605 2.605 0 0 1 2.6 2.6v2.6H10.11a9.11 9.11 0 0 0 0 18.219h56.242l13.387-6.08a3.322 3.322 0 0 0 0-6.049l-13.387-6.084h-15.9v-7.809zm-7.808-18.219h2.6v15.617h-2.6zm-10.411 5.205h2.6v10.412h-2.6zM53.056 47.85h2.6v5.206h-2.6zM44.569 4.768a5.205 5.205 0 0 1 8.381 2.967 5.59 5.59 0 0 1 .105 1.074 7.816 7.816 0 0 0-7.808 7.808h2.6a5.206 5.206 0 0 1 10.411 0 5.135 5.135 0 0 1-1.452 3.567 7.8 7.8 0 0 0-11.562 6.844h2.6a5.206 5.206 0 1 1 6.115 5.111l-1.339.237.3 1.327a5.2 5.2 0 1 1-10.277 1.134V8.808a5.188 5.188 0 0 1 1.926-4.04zm-6.452 34.109a5.2 5.2 0 0 1-8.381-2.967 5.59 5.59 0 0 1-.105-1.074 7.816 7.816 0 0 0 7.808-7.808h-2.6a5.206 5.206 0 0 1-10.411 0 5.135 5.135 0 0 1 1.452-3.567 7.8 7.8 0 0 0 11.562-6.844h-2.6a5.206 5.206 0 1 1-6.115-5.111l1.339-.237-.3-1.327a5.2 5.2 0 1 1 10.276-1.134v26.028a5.188 5.188 0 0 1-1.925 4.041zM21.822 79.083h-2.6V66.069h2.6zm2.6-5.206l39.213-.005-1.735 2.606 1.736 2.605H24.425zm40.606 2.6l2.6-3.907-2.6-3.9 1.507-2.258 4.737 2.154v8.024l-4.736 2.152zm-1.394-5.208l-39.212.007v-5.207h39.214l-1.735 2.6zM3.6 72.576a6.514 6.514 0 0 1 6.507-6.507h6.507v13.014H10.11a6.514 6.514 0 0 1-6.51-6.507zm75.48 0a.722.722 0 0 1-.422.656l-4.784 2.175v-5.66l4.784 2.175a.718.718 0 0 1 .425.654z" class="prefix__cls-2" data-name="Path 282" transform="translate(-1 -1)"/>
                    <path id="prefix__Rectangle_37" d="M0 0H13V3H0z" class="prefix__cls-2" data-name="Rectangle 37" transform="translate(5.343 32.343)"/>
                    <path id="prefix__Rectangle_38" d="M0 0H13V3H0z" class="prefix__cls-2" data-name="Rectangle 38" transform="translate(5.343 37.343)"/>
                </g>
            </g>
        </g>
    </g>
</svg>
