<svg xmlns="http://www.w3.org/2000/svg" width="100" height="100" viewBox="0 0 100 100">
    <g id="prefix__Group_19" data-name="Group 19" transform="translate(-.461)">
        <g id="prefix__Group_18" data-name="Group 18">
            <path id="prefix__Rectangle_8" d="M0 0H100V100H0z" data-name="Rectangle 8" transform="translate(.461)" style="fill:none"/>
            <g id="prefix__Group_52" data-name="Group 52" transform="translate(19 9)">
                <path id="prefix__Path_27" d="M42.15 0a5.086 5.086 0 1 0 5.086 5.086A5.106 5.106 0 0 0 42.15 0zm0 2.543a2.543 2.543 0 1 1-2.543 2.543 2.524 2.524 0 0 1 2.543-2.547zM29.434 5.082A3.815 3.815 0 1 0 33.249 8.9a3.834 3.834 0 0 0-3.815-3.818zm0 2.543A1.272 1.272 0 1 1 28.163 8.9a1.253 1.253 0 0 1 1.271-1.274zm3.681 5.091a1.273 1.273 0 0 0 .129 2.543h.368v8.1c-.149.056-.308.115-.546.2a16.577 16.577 0 1 0 10.466 0h-.075a3.565 3.565 0 0 1-.5-.2v-8.1h.417a1.272 1.272 0 1 0 0-2.543h-10.13a1.271 1.271 0 0 0-.129.001zm3.04 2.543h4.262v8.583a1.632 1.632 0 0 0 .522 1.187 2.82 2.82 0 0 0 .651.487 5.126 5.126 0 0 0 1.207.5 14.033 14.033 0 1 1-8.926-.04h.015a7.6 7.6 0 0 0 1.073-.407 2.341 2.341 0 0 0 .72-.527 1.859 1.859 0 0 0 .477-1.2V15.26zm10.188 2.712a1.272 1.272 0 0 0-.368 2.494 23.236 23.236 0 0 1 16.243 25.77L51.042 70.644a1.272 1.272 0 0 0-.109.621L51.6 80.2a1.273 1.273 0 0 0 2.538-.189L53.49 71.4l11.147-24.345a1.272 1.272 0 0 0 .1-.338A25.893 25.893 0 0 0 46.72 18.032a1.272 1.272 0 0 0-.378-.06zm-15.965.442a1.272 1.272 0 0 0-.457.079 25.847 25.847 0 0 0-16.546 20.194L4.136 57.044a1.272 1.272 0 0 0 1.137 1.848H8.92v12.83a1.272 1.272 0 0 0 1.271 1.272H20.3l.705 7.242a1.272 1.272 0 1 0 2.528-.253l-.815-8.39a1.272 1.272 0 0 0-1.267-1.147h-9.988V57.615a1.272 1.272 0 0 0-1.271-1.272H7.34l8.385-16.67a1.272 1.272 0 0 0 .119-.378 23.377 23.377 0 0 1 14.961-18.412 1.272 1.272 0 0 0-.427-2.469zm-3.343 17.2l-.114 1.142a10.485 10.485 0 0 0 .278 2.965 11.155 11.155 0 0 0 11.017 9.512 11.36 11.36 0 0 0 11.251-9.5 10.517 10.517 0 0 0 .278-2.98l-.119-1.142h-22.6zm2.543 2.543h17.515c-.052.389-.05.683-.129 1.167a8.772 8.772 0 0 1-8.742 7.366 8.514 8.514 0 0 1-8.509-7.376c-.084-.483-.082-.773-.135-1.159z" data-name="Path 27" transform="translate(-3.998 .004)" style="fill:#ff5050"/>
            </g>
            <path id="prefix__Path_52" d="M60.945 27.788s-2.759 4.939-1.02 6.8 9.258 5.9 8.95 13.013a19.331 19.331 0 0 1-7.931 14.213c-2.58 1.622-6.261 1.387-6.776 2.745s-3.537 13.063.719 20.457 12.87 4.8 12.87 4.8V79.335l9.41-20.5 2.1-3.938-2.61-13.097-4.884-8z" data-name="Path 52" style="opacity:.2;fill:#ff5050"/>
        </g>
    </g>
</svg>
