<svg xmlns="http://www.w3.org/2000/svg" width="100" height="100" viewBox="0 0 100 100">
    <g id="prefix__Group_19" data-name="Group 19" transform="translate(-494 -1573)">
        <g id="prefix__Group_18" data-name="Group 18">
            <path id="prefix__Rectangle_8" d="M0 0H100V100H0z" data-name="Rectangle 8" transform="translate(494 1573)" style="fill:none"/>
            <g id="prefix__Group_255" data-name="Group 255" transform="translate(506.112 1579.499)">
                <path id="prefix__Path_188" d="M26.109 80.863a4.559 4.559 0 0 0 3.028 4.129 4.218 4.218 0 0 0 1.459.257h15.56a4.463 4.463 0 0 0 4.488-4.238 58.741 58.741 0 0 1 2.526-14.268 65.333 65.333 0 0 1 9.314-18.736 29.761 29.761 0 0 0 5.308-19.494C66.53 13.239 53.346 1.894 40.142 1.553A29.5 29.5 0 0 0 8.888 30.979c0 15.818 9.7 17.7 14.908 35.743a59.324 59.324 0 0 1 2.313 14.141zm21.191-.012a1.119 1.119 0 0 1-1.144 1.049H30.6a.949.949 0 0 1-.34-.065 1.213 1.213 0 0 1-.8-1.109c-.062-1.521-.2-3.037-.372-4.551h9.9a1.256 1.256 0 0 0 0-2.512H28.75c-.322-2.067-.762-4.113-1.289-6.14h22.024A61.92 61.92 0 0 0 47.3 80.851zm12.449-34.778a68.87 68.87 0 0 0-9.527 18.909H39.644V49.633c3.187.783 4.266 1.618 6.527.992a5.628 5.628 0 0 0 3.963-4.025 5.7 5.7 0 0 0-7.627-6.736 21.439 21.439 0 0 1-2.863.914v-4.829c7.224-.252 8.527.615 9.726-.887 1.458-1.826-.869-4.819-.869-6.623 0-3.625 5.329-4.368 6.242-.875.4 1.463-.178 1.789-1.066 5.524a2.333 2.333 0 0 0 2.279 2.861h8.1a26.013 26.013 0 0 1-4.307 10.124zm-20.1-31.4v-9.79a26.229 26.229 0 0 1 24.776 28.563l-8.262.053c.813-3.35 1.636-4.324 1.006-6.589a5.639 5.639 0 0 0-4.029-3.963 5.7 5.7 0 0 0-6.734 7.63 20.5 20.5 0 0 1 .906 2.86h-7.668V23.094a2.364 2.364 0 0 0-2.827-2.288c-3.135.713-5.3 2.466-7.151.112a3.177 3.177 0 0 1 1.595-5.036c1.446-.4 1.823.183 5.524 1.067a2.36 2.36 0 0 0 2.859-2.278zM12.238 30.979A26.143 26.143 0 0 1 37.132 4.915v9.535c-3.2-.786-4.274-1.619-6.525-.992a5.694 5.694 0 0 0-2.916 9.013c3.018 3.843 7.131 1.4 9.441.837v10.129c-7.851.282-12-1.7-8.8 6.313 1.691 4.15-4.914 6.25-6.003 2.072-.664-2.4 2.214-5.488.63-7.491a2.331 2.331 0 0 0-1.842-.894h-8.756c-.075-.813-.123-1.631-.123-2.458zm8.671 4.908c-.813 3.351-1.636 4.326-1.006 6.587a5.692 5.692 0 1 0 10.763-3.663 20.923 20.923 0 0 1-.908-2.862h7.374c.053 4.71-.272 5.733.682 6.693 2.422 2.457 6.629-2.879 9.3.523a3.285 3.285 0 0 1 .586 2.824 3.087 3.087 0 0 1-2.182 2.211c-1.455.4-1.819-.181-5.524-1.066a2.362 2.362 0 0 0-2.863 2.279v15.57h-10.37C21.93 49.087 14.742 46.544 12.722 35.938z" data-name="Path 188" style="fill:#ff5050"/>
            </g>
        </g>
    </g>
</svg>
