<svg xmlns="http://www.w3.org/2000/svg" width="100" height="100" viewBox="0 0 100 100">
    <defs>
        <style>
            .prefix__cls-2{fill:#ff5050;stroke:#ff5050;stroke-width:.4px}
        </style>
    </defs>
    <g id="prefix__Group_226" data-name="Group 226" transform="translate(-.461)">
        <g id="prefix__Group_18" data-name="Group 18">
            <path id="prefix__Rectangle_8" d="M0 0H100V100H0z" data-name="Rectangle 8" transform="translate(.461)" style="fill:none"/>
            <g id="prefix__noun_Light_Bulb_1473815" data-name="noun_Light Bulb_1473815" transform="translate(10.461 10)">
                <g id="prefix__Layer_3" data-name="Layer 3" transform="translate(3 2)">
                    <path id="prefix__Path_347" d="M24.326 55.543a8.73 8.73 0 0 1 3.908 7.347v8.083a1.636 1.636 0 0 0 0 .241 1.345 1.345 0 0 0 .076.241v.076l2.183 3.807a1.269 1.269 0 0 0 1.091.634h10.888a1.269 1.269 0 0 0 1.091-.634l2.183-3.807v-.076a1.346 1.346 0 0 0 .076-.241 1.637 1.637 0 0 0 0-.241v-8.082a8.794 8.794 0 0 1 4-7.411A24.808 24.808 0 0 0 61.227 34.8a24.118 24.118 0 1 0-48.22-1.269 24.643 24.643 0 0 0 11.319 22.013zm19.136 6.472v2.538h-12.69v-2.538zm-12.69 5.076h12.69v2.538h-12.69zm1.637 6.345l-.723-1.269h10.862l-.723 1.269zM15.545 33.654A21.762 21.762 0 0 1 36.3 13.11a21.318 21.318 0 0 1 15.74 6.015A21.572 21.572 0 0 1 58.689 34.8a22.245 22.245 0 0 1-10.063 18.548 11.192 11.192 0 0 0-4.632 6.129h-5.608V40.291l6.078-5.076a1.27 1.27 0 0 0-1.637-1.941l-5.71 4.771-5.71-4.784A1.27 1.27 0 0 0 29.77 35.2l6.078 5.076v19.2h-5.609A10.938 10.938 0 0 0 25.7 53.4a22.118 22.118 0 0 1-10.155-19.746z" class="prefix__cls-2" data-name="Path 347" transform="translate(-.317 .163)"/>
                    <path id="prefix__Path_348" d="M4.269 30.538h5.076a1.269 1.269 0 1 0 0-2.538H4.269a1.269 1.269 0 0 0 0 2.538z" class="prefix__cls-2" data-name="Path 348" transform="translate(-3 4.993)"/>
                    <path id="prefix__Path_349" d="M15.206 14.008a1.274 1.274 0 1 0 1.8-1.8L13.2 8.4a1.274 1.274 0 1 0-1.8 1.8z" class="prefix__cls-2" data-name="Path 349" transform="translate(-.841 -.379)"/>
                    <path id="prefix__Path_350" d="M32.269 9.614a1.269 1.269 0 0 0 1.269-1.269V3.269a1.269 1.269 0 1 0-2.538 0v5.076a1.269 1.269 0 0 0 1.269 1.269z" class="prefix__cls-2" data-name="Path 350" transform="translate(4.53 -2)"/>
                    <path id="prefix__Path_351" d="M49.271 14.346a1.269 1.269 0 0 0 .9-.368l3.807-3.807a1.274 1.274 0 0 0-1.8-1.8l-3.808 3.805a1.269 1.269 0 0 0 .9 2.17z" class="prefix__cls-2" data-name="Path 351" transform="translate(9.101 -.387)"/>
                    <path id="prefix__Path_352" d="M56.269 30.538h5.076a1.269 1.269 0 0 0 0-2.538h-5.076a1.269 1.269 0 0 0 0 2.538z" class="prefix__cls-2" data-name="Path 352" transform="translate(10.985 4.993)"/>
                    <path id="prefix__Path_353" d="M50.141 45.339a1.274 1.274 0 0 0-1.8 1.8l3.807 3.807a1.274 1.274 0 1 0 1.8-1.8z" class="prefix__cls-2" data-name="Path 353" transform="translate(9.093 9.555)"/>
                    <path id="prefix__Path_354" d="M12.271 51.346a1.269 1.269 0 0 0 .9-.368l3.807-3.807a1.274 1.274 0 1 0-1.8-1.8l-3.808 3.805a1.269 1.269 0 0 0 .9 2.17z" class="prefix__cls-2" data-name="Path 354" transform="translate(-.85 9.564)"/>
                </g>
            </g>
        </g>
    </g>
</svg>
