<svg xmlns="http://www.w3.org/2000/svg" width="100" height="100" viewBox="0 0 100 100">
    <defs>
        <style>
            .prefix__cls-2{fill:#ff5050}
        </style>
    </defs>
    <g id="prefix__Group_19" data-name="Group 19" transform="translate(-494 -1573)">
        <g id="prefix__Group_18" data-name="Group 18">
            <path id="prefix__Rectangle_8" d="M0 0H100V100H0z" data-name="Rectangle 8" transform="translate(494 1573)" style="fill:none"/>
            <g id="prefix__Group_294" data-name="Group 294" transform="translate(452.015 1498.456)">
                <g id="prefix__Group_295" data-name="Group 295" transform="translate(81.103 141.023)">
                    <g id="prefix__Group_294-2" data-name="Group 294">
                        <path id="prefix__Path_247" d="M403.573 698.112v8.927a3.647 3.647 0 0 1-.026.43c.018-.263-.035.158-.053.237a4.478 4.478 0 0 1-.132.456c-.026.079-.132.325-.035.114a6.492 6.492 0 0 1-.456.8c-.009.018-.123.167-.035.053s-.053.061-.079.088c-.088.1-.184.193-.281.29-.044.044-.307.272-.211.193.114-.088-.035.026-.053.035l-.237.158c-.114.07-.228.14-.351.2l-.158.079c-.184.088.184-.061-.009 0a7.208 7.208 0 0 1-.851.237c-.018 0-.211.026-.061.009.167-.018-.088 0-.123.009-.105.009-.2.009-.307.009h-10.332a2.3 2.3 0 0 1-.246-.009c-.079 0-.158-.009-.246-.018.132.009.114.018-.009 0a8.247 8.247 0 0 1-.8-.211c-.237-.079-.061-.026-.009 0-.07-.035-.14-.061-.211-.1a4.217 4.217 0 0 1-.4-.228 3.194 3.194 0 0 1-.281-.193c.211.167-.132-.123-.167-.167a3.133 3.133 0 0 1-.237-.246c-.053-.053-.1-.114-.149-.176.123.14.026.035-.035-.053a6.943 6.943 0 0 1-.4-.7c-.07-.132.009.026.018.044l-.079-.219a3.912 3.912 0 0 1-.132-.456c-.018-.061-.07-.421-.061-.3.018.149 0-.044 0-.061 0-.079-.009-.158-.009-.246v-9a1.317 1.317 0 0 0-2.633 0v8.875a6.215 6.215 0 0 0 1.4 3.871 6.316 6.316 0 0 0 5.065 2.212h8.866a7.587 7.587 0 0 0 4.31-.93 6.273 6.273 0 0 0 2.853-5.425v-8.6a1.332 1.332 0 0 0-1.317-1.317 1.356 1.356 0 0 0-1.308 1.325z" class="prefix__cls-2" data-name="Path 247" transform="translate(-383.7 -696.785)"/>
                    </g>
                </g>
                <g id="prefix__Group_297" data-name="Group 297" transform="translate(86.814 154.691)">
                    <g id="prefix__Group_296" data-name="Group 296">
                        <path id="prefix__Path_248" d="M457.2 853.794v2.958a2.8 2.8 0 0 1-.009.386c.035-.351-.114.184.026-.114-.018.035-.035.062-.053.1-.079.123-.079.123.009 0 .018.009-.255.2.018.009a1.394 1.394 0 0 1-.193.114c.14-.062.14-.062-.009-.018.009-.035.219 0-.018-.009h-4.354c-.334 0-.667-.009-1 0h-.026c-.316.009 0-.026 0 .009-.035-.009-.07-.018-.114-.026.14.07.14.061.009 0-.272-.149.009-.009 0 .009l-.079-.079c.088.123.088.123.009 0-.018-.035-.035-.061-.053-.1.061.14.061.14.018-.009.026 0 0 .316.009 0v-.044c.009-1.062 0-2.124 0-3.178l-1.317 1.317h8.436a1.317 1.317 0 1 0 0-2.633h-8.436a1.338 1.338 0 0 0-1.317 1.317c0 1.044-.009 2.089 0 3.142a2.86 2.86 0 0 0 1.554 2.607 4 4 0 0 0 1.808.307h3.941c.325 0 .658.018.983 0a2.892 2.892 0 0 0 2.774-2.712c.07-1.106.009-2.238.009-3.344a1.332 1.332 0 0 0-1.317-1.317 1.317 1.317 0 0 0-1.308 1.308z" class="prefix__cls-2" data-name="Path 248" transform="translate(-448.756 -852.485)"/>
                    </g>
                </g>
                <g id="prefix__Group_299" data-name="Group 299" transform="translate(51.985 111.969)">
                    <g id="prefix__Group_298" data-name="Group 298">
                        <path id="prefix__Path_249" d="M53.3 368.433h3.476a1.317 1.317 0 1 0 0-2.633H53.3a1.317 1.317 0 1 0 0 2.633z" class="prefix__cls-2" data-name="Path 249" transform="translate(-51.985 -365.8)"/>
                    </g>
                </g>
                <g id="prefix__Group_301" data-name="Group 301" transform="translate(126.633 111.969)">
                    <g id="prefix__Group_300" data-name="Group 300">
                        <path id="prefix__Path_250" d="M903.7 368.433h3.476a1.317 1.317 0 1 0 0-2.633H903.7a1.317 1.317 0 1 0 0 2.633z" class="prefix__cls-2" data-name="Path 250" transform="translate(-902.385 -365.8)"/>
                    </g>
                </g>
                <g id="prefix__Group_303" data-name="Group 303" transform="translate(60.166 131.911)">
                    <g id="prefix__Group_302" data-name="Group 302">
                        <path id="prefix__Path_251" d="M147.156 597.051c1.159-.544 2.317-1.1 3.467-1.641a1.316 1.316 0 0 0-1.325-2.274c-1.159.544-2.317 1.1-3.467 1.642a1.316 1.316 0 0 0 1.325 2.273z" class="prefix__cls-2" data-name="Path 251" transform="translate(-145.189 -592.976)"/>
                    </g>
                </g>
                <g id="prefix__Group_305" data-name="Group 305" transform="translate(118.576 90.428)">
                    <g id="prefix__Group_304" data-name="Group 304">
                        <path id="prefix__Path_252" d="M812.556 124.472c1.124-.544 2.256-1.1 3.38-1.642a1.331 1.331 0 0 0 .474-1.8 1.351 1.351 0 0 0-1.8-.474c-1.124.544-2.256 1.1-3.38 1.642a1.331 1.331 0 0 0-.474 1.8 1.349 1.349 0 0 0 1.8.474z" class="prefix__cls-2" data-name="Path 252" transform="translate(-810.589 -120.399)"/>
                    </g>
                </g>
                <g id="prefix__Group_307" data-name="Group 307" transform="translate(118.576 131.913)">
                    <g id="prefix__Group_306" data-name="Group 306">
                        <path id="prefix__Path_253" d="M815.936 594.8c-1.124-.544-2.256-1.1-3.38-1.642a1.349 1.349 0 0 0-1.8.474 1.331 1.331 0 0 0 .474 1.8c1.124.544 2.256 1.1 3.38 1.641a1.349 1.349 0 0 0 1.8-.474 1.335 1.335 0 0 0-.474-1.8z" class="prefix__cls-2" data-name="Path 253" transform="translate(-810.589 -592.999)"/>
                    </g>
                </g>
                <g id="prefix__Group_309" data-name="Group 309" transform="translate(60.171 90.422)">
                    <g id="prefix__Group_308" data-name="Group 308">
                        <path id="prefix__Path_254" d="M150.6 122.226c-1.124-.579-2.256-1.15-3.38-1.729a1.341 1.341 0 0 0-1.8.474 1.325 1.325 0 0 0 .474 1.8c1.124.579 2.256 1.15 3.38 1.729a1.316 1.316 0 1 0 1.325-2.274z" class="prefix__cls-2" data-name="Path 254" transform="translate(-145.244 -120.333)"/>
                    </g>
                </g>
                <g id="prefix__Group_311" data-name="Group 311" transform="translate(66.34 108.053)">
                    <g id="prefix__Group_310" data-name="Group 310">
                        <path id="prefix__Path_255" d="M215.681 323.165a9.561 9.561 0 0 0 1.387 2.1c.132.149.263.3.4.439.061.061.132.167.211.2.219.123-.272-.342.061.018a6.476 6.476 0 0 0 1.194.983 9.458 9.458 0 0 0 5.188 1.571 1.317 1.317 0 1 0 0-2.633 6.77 6.77 0 0 1-3.854-1.211c-.14-.1-.219-.149-.272-.193s-.114-.1-.176-.14c.149.255.114.228-.114-.105-.237-.255-.5-.474-.729-.737a7.127 7.127 0 0 1-1.018-1.624 1.331 1.331 0 0 0-1.8-.474 1.359 1.359 0 0 0-.483 1.808z" class="prefix__cls-2" data-name="Path 255" transform="translate(-215.525 -321.189)"/>
                    </g>
                </g>
                <g id="prefix__Group_313" data-name="Group 313" transform="translate(62.856 87.544)">
                    <g id="prefix__Group_312" data-name="Group 312">
                        <path id="prefix__Path_256" d="M204.018 93.614v44.154a6.981 6.981 0 0 1-.342 2.879c.088-.193-.114.219-.105.2a2.239 2.239 0 0 1-.14.246c-.07.123-.149.237-.228.36-.246.369.07-.07-.1.123a4.4 4.4 0 0 1-.527.544c-.061.061-.132.114-.2.176.1-.07.079-.053-.053.035-.07.053-.149.105-.219.149a4.151 4.151 0 0 1-2.467.693 4.312 4.312 0 0 1-3.775-2.6 4.255 4.255 0 0 1-.132-2.87 1.335 1.335 0 0 0-1.624-1.624 6.1 6.1 0 0 1-1.782.167c-.123-.009-.246-.009-.369-.026-.079-.009-.439-.061-.184-.018a6.778 6.778 0 0 1-.816-.176c-.246-.07-.483-.149-.729-.237-.053-.018-.105-.044-.167-.061.018.009.184.079.044.018s-.281-.132-.413-.2c-.219-.114-.439-.246-.65-.377-.1-.061-.193-.132-.281-.193-.018-.009-.167-.123-.053-.035.132.1-.141-.114-.132-.114a7.967 7.967 0 0 1-1.045-1.062c-.035-.035-.149-.2-.009-.009-.035-.044-.07-.088-.105-.14-.061-.1-.132-.193-.193-.29a6.925 6.925 0 0 1-.4-.7c-.061-.123-.123-.246-.176-.369.088.2-.018-.044-.044-.114a8.061 8.061 0 0 1-.246-.781c-.026-.114-.053-.228-.079-.351-.009-.053-.079-.421-.053-.3a1.937 1.937 0 0 0-.026-.246 4.492 4.492 0 0 1-.026-.492 6.417 6.417 0 0 1 1.115-3.818 1.329 1.329 0 0 0-1.141-1.984c-.307 0-.614-.018-.922-.044-.035 0-.29-.035-.123-.009s-.088-.018-.123-.018q-.263-.04-.527-.105a8.587 8.587 0 0 1-.957-.281l-.219-.079c-.035-.009-.263-.105-.114-.044s-.079-.035-.105-.053c-.088-.044-.176-.079-.263-.123-.29-.149-.579-.307-.851-.483-.132-.079-.255-.167-.377-.255-.026-.018-.228-.167-.1-.07s-.114-.088-.14-.114a8.9 8.9 0 0 1-1.361-1.4c.158.2-.123-.184-.167-.246-.088-.123-.167-.255-.246-.386-.167-.281-.325-.571-.465-.869 0 .009-.149-.342-.07-.158.061.149-.026-.079-.044-.114l-.158-.439a8.806 8.806 0 0 1-.255-.974l-.053-.29c-.009-.035-.044-.29-.018-.123s-.009-.088-.009-.123a2.162 2.162 0 0 1-.018-.246 8.507 8.507 0 0 1-.009-1.159c.009-.184.026-.369.044-.544.026-.228-.026.167.009-.053.018-.088.026-.176.044-.263a8.654 8.654 0 0 1 .307-1.159c.061-.184.132-.377.211-.553-.079.184.009-.018.026-.044.061-.114.114-.237.176-.351a9.1 9.1 0 0 1 .641-1.053c.053-.07.1-.14.149-.211.079-.105-.07.079.079-.088s.281-.325.43-.483a9.939 9.939 0 0 1 .957-.869 1.338 1.338 0 0 0 .2-1.6c-.061-.14-.07-.158-.026-.044-.035-.1-.079-.184-.105-.281-.053-.14-.1-.29-.14-.439a7.3 7.3 0 0 1-.237-1.053 9.979 9.979 0 0 1-.009-1.782c.018-.158.018-.158 0-.018a2.243 2.243 0 0 1 .044-.237c.018-.123.044-.237.07-.351.061-.272.14-.544.228-.808.044-.132.1-.263.149-.386.035-.088.026-.07-.018.044.035-.07.061-.14.1-.211.123-.246.255-.483.4-.72.061-.1.123-.193.193-.3.026-.044.316-.43.14-.2.167-.211.351-.421.535-.614a7.178 7.178 0 0 1 .6-.553c.018-.018.316-.246.1-.088.123-.1.255-.184.377-.272.228-.149.465-.29.7-.421l.316-.158a2.246 2.246 0 0 1 .211-.1c-.132.053-.132.053.018 0a9.538 9.538 0 0 1 1.615-.43 1.339 1.339 0 0 0 .922-1.624 5.967 5.967 0 0 1-.105-1.879c.009-.1.009-.079-.009.053a2.249 2.249 0 0 1 .044-.237 4.435 4.435 0 0 1 .105-.465 6.284 6.284 0 0 1 .263-.781c-.088.211.026-.035.061-.105.07-.14.14-.272.219-.4l.184-.29c.026-.044.307-.421.132-.2a5.766 5.766 0 0 1 .535-.6c.079-.079.167-.158.255-.237.035-.035.413-.325.176-.158a6.849 6.849 0 0 1 .676-.439c.114-.07.237-.123.36-.184a1.244 1.244 0 0 1 .158-.07c-.14.053-.132.053.009 0a6.194 6.194 0 0 1 .781-.246c.158-.035.307-.07.465-.1.377-.07-.255.009.132-.018a5.3 5.3 0 0 1 3.573.9 1.337 1.337 0 0 0 1.8-.474c0-.009.237-.334.088-.149.079-.1.167-.193.246-.29a2.555 2.555 0 0 1 .272-.263c.018-.018.272-.228.158-.14s.149-.105.176-.123c.105-.07.219-.132.325-.193a3.068 3.068 0 0 1 .342-.167c-.219.1.158-.044.167-.053.105-.035.211-.061.316-.088.044-.009.386-.079.281-.061-.14.026.193-.018.228-.018.132-.009.263-.009.4-.009s.246.018.36.026c-.237-.018.035.009.123.026a5.516 5.516 0 0 1 .623.176c.105.035.237.1.061.018a2.029 2.029 0 0 1 .307.158 4.918 4.918 0 0 1 .535.334c.079.053.061.044-.044-.035a1.522 1.522 0 0 1 .132.114c.07.061.14.132.211.193.079.079.158.167.237.255.237.246-.114-.193.079.1.114.176.228.351.334.535.018.035.167.351.105.211-.061-.158.044.14.061.167a4.349 4.349 0 0 1 .176.685c.053.281.009-.184.018.123a2.466 2.466 0 0 0-.009.36 1.317 1.317 0 0 0 2.633 0 6.065 6.065 0 0 0-11.21-3.213l1.8-.474a7.816 7.816 0 0 0-11.868 8.436c.307-.544.614-1.08.922-1.624a9.368 9.368 0 0 0-6.434 4.442 9.509 9.509 0 0 0-.386 8.848c.07-.535.14-1.062.2-1.6a10.346 10.346 0 0 0 6.5 18.4c-.377-.658-.755-1.317-1.141-1.984a9.073 9.073 0 0 0 9.77 13.773l-1.63-1.615a6.863 6.863 0 0 0 13.132 3.994 7.487 7.487 0 0 0 .316-2.291v-37.46c0-2.511.053-5.021 0-7.523v-.105a1.308 1.308 0 1 0-2.616 0z" class="prefix__cls-2" data-name="Path 256" transform="translate(-175.825 -87.544)"/>
                    </g>
                </g>
                <g id="prefix__Group_315" data-name="Group 315" transform="translate(71.906 121.516)">
                    <g id="prefix__Group_314" data-name="Group 314">
                        <path id="prefix__Path_257" d="M281.378 479.22a6.14 6.14 0 0 1 1.106-1.238 6.958 6.958 0 0 1 1.527-.992 1.325 1.325 0 0 0 .474-1.8 1.341 1.341 0 0 0-1.8-.474 9.021 9.021 0 0 0-3.573 3.169 1.314 1.314 0 0 0 2.265 1.334z" class="prefix__cls-2" data-name="Path 257" transform="translate(-278.931 -474.555)"/>
                    </g>
                </g>
                <g id="prefix__Group_317" data-name="Group 317" transform="translate(72.362 96.714)">
                    <g id="prefix__Group_316" data-name="Group 316">
                        <path id="prefix__Path_258" d="M284.168 193.656a8 8 0 0 0 3.6 4.828 1.316 1.316 0 0 0 1.325-2.274c-.167-.105-.334-.211-.492-.325-.176-.132.123.105-.044-.035-.088-.07-.167-.14-.246-.211-.149-.132-.281-.272-.421-.421-.061-.061-.114-.132-.176-.193-.026-.026-.193-.255-.079-.1a7.117 7.117 0 0 1-.579-.957c-.026-.061-.132-.272-.061-.114-.035-.079-.061-.167-.1-.246a5.932 5.932 0 0 1-.193-.641 1.343 1.343 0 0 0-1.624-.922 1.323 1.323 0 0 0-.913 1.606z" class="prefix__cls-2" data-name="Path 258" transform="translate(-284.126 -192.006)"/>
                    </g>
                </g>
                <g id="prefix__Group_319" data-name="Group 319" transform="translate(108.472 108.06)">
                    <g id="prefix__Group_318" data-name="Group 318">
                        <path id="prefix__Path_259" d="M696.8 328.546a9.446 9.446 0 0 0 8.436-5.311 1.349 1.349 0 0 0-.474-1.8 1.323 1.323 0 0 0-1.8.474 6.788 6.788 0 0 1-6.162 4 1.317 1.317 0 1 0 0 2.633z" class="prefix__cls-2" data-name="Path 259" transform="translate(-695.485 -321.266)"/>
                    </g>
                </g>
                <g id="prefix__Group_321" data-name="Group 321" transform="translate(91.049 87.558)">
                    <g id="prefix__Group_320" data-name="Group 320">
                        <path id="prefix__Path_260" d="M517.488 124.347a1.326 1.326 0 0 0-1.141 1.984 6.332 6.332 0 0 1 .781 1.563 6.052 6.052 0 0 1 .334 1.764 7.016 7.016 0 0 1-.018.86c-.009.123-.018.246-.035.36-.018.158 0-.035.009-.053l-.053.29c-.053.255-.114.5-.184.746-.035.114-.07.219-.105.334-.026.07-.184.465-.079.228a7.686 7.686 0 0 1-.737 1.308l-.132.184c.009-.018.123-.158.026-.035-.07.088-.149.176-.219.263a7 7 0 0 1-.562.579l-.3.263c-.061.053-.272.211-.1.079-.219.158-.439.307-.667.448a6.919 6.919 0 0 1-.667.351 1.242 1.242 0 0 1-.158.07c.018-.009.184-.079.044-.018s-.29.114-.439.158c-.281.088-.562.167-.851.228-.061.009-.114.026-.176.035-.026.009-.272.044-.123.026.167-.026-.088.009-.123.018a2.158 2.158 0 0 1-.246.018 6.6 6.6 0 0 1-2.028-.149 1.337 1.337 0 0 0-1.624 1.624 4.519 4.519 0 0 1 .167 1.694 4.741 4.741 0 0 1-.43 1.448 4.338 4.338 0 0 1-.456.72c.105-.14-.026.035-.044.053l-.263.29a3.792 3.792 0 0 1-1.211.869c-.009 0-.4.167-.167.079-.123.044-.255.088-.377.132a4.886 4.886 0 0 1-.79.176c.255-.035-.193.009-.2.009-.1.009-.184.009-.281.009-.132 0-.255 0-.386-.009l-.255-.026c.14.018.14.018-.018-.009a6.509 6.509 0 0 1-.711-.184c-.114-.035-.228-.079-.342-.123.263.105-.1-.053-.123-.07a4.377 4.377 0 0 1-.614-.369c-.026-.018-.334-.255-.114-.079-.123-.105-.246-.2-.36-.316-.14-.14-.272-.29-.4-.439-.246-.281.114.2-.088-.114-.061-.105-.132-.2-.193-.3a5.53 5.53 0 0 1-.334-.641c.114.263-.035-.114-.044-.14-.061-.184-.114-.377-.158-.571a4.7 4.7 0 0 1-.088-.922V93.773c0-.123.009-.246.018-.369.009-.377-.061.237.018-.123a6.524 6.524 0 0 1 .176-.685c.009-.035.158-.386.035-.114a3.654 3.654 0 0 1 .211-.413 2.652 2.652 0 0 1 .184-.29c0 .009.219-.29.1-.14s.123-.132.114-.132c.079-.088.158-.167.237-.246s.167-.149.255-.228c-.219.184.07-.044.1-.07a4.982 4.982 0 0 1 .7-.4c-.272.123.079-.026.114-.035.114-.035.219-.07.333-.1l.342-.079c.369-.079-.255-.009.123-.018.211-.009.421-.018.641-.009.018 0 .448.061.184.009a4.766 4.766 0 0 1 .509.114 3.615 3.615 0 0 1 1.9 1.413 1.339 1.339 0 0 0 1.8.474 5.21 5.21 0 0 1 1.738-.781 5.647 5.647 0 0 1 1.835-.114c.29.018-.176-.044.132.018.158.026.316.061.465.1a8.058 8.058 0 0 1 .781.246c.29.105-.132-.079.114.053.14.07.281.14.413.211a6.842 6.842 0 0 1 .676.439c-.228-.167.1.079.14.114.105.088.2.176.3.272a5.774 5.774 0 0 1 .535.6c-.176-.228.105.158.132.2l.184.29c.079.132.149.272.219.4.009.026.167.377.061.105a6.3 6.3 0 0 1 .263.781 4 4 0 0 1 .105.465c.018.079.053.36.026.123a6.106 6.106 0 0 1-.1 1.94 1.332 1.332 0 0 0 .922 1.624 10.184 10.184 0 0 1 1.615.43c.14.061.149.061.018 0 .07.035.14.061.211.1l.316.158a5.722 5.722 0 0 1 .7.421c.132.088.255.176.377.272-.184-.14.044.035.1.088.211.176.4.36.6.553a7.253 7.253 0 0 1 .535.614c-.167-.219.079.114.105.158.079.114.149.228.219.342.14.237.272.474.4.72.035.07.149.325.061.114.061.149.114.29.167.439.088.263.167.535.228.808.026.114.053.237.07.351.018.079.026.158.044.237-.018-.149-.018-.14 0 .018a8.577 8.577 0 0 1-.009 1.782 6.361 6.361 0 0 1-.219.983c-.053.176-.105.342-.167.509-.035.1-.07.193-.105.281.044-.114.035-.1-.026.044a1.366 1.366 0 0 0 .2 1.6 9.682 9.682 0 0 1 .781.685c.14.14.272.281.4.421.061.061.114.132.167.193s.184.228.079.088a8.183 8.183 0 0 1 .579.86c.088.149.176.3.255.456.044.079.079.158.114.237.009.026.167.369.079.167a7.9 7.9 0 0 1 .342 1l.132.518.053.263s.061.421.035.184a8.741 8.741 0 0 1 0 2.195c.035-.281-.035.176-.044.246-.026.158-.061.307-.1.465a9.588 9.588 0 0 1-.307 1.009 2.267 2.267 0 0 1-.088.219c.018-.053.105-.219 0 .009-.07.14-.132.281-.2.421a9.181 9.181 0 0 1-.527.9c-.088.132-.176.255-.263.377.158-.219-.114.132-.149.184-.211.246-.43.483-.667.711a4.666 4.666 0 0 1-.386.342c-.061.053-.386.3-.184.149-.263.193-.535.377-.816.544a9.38 9.38 0 0 1-.983.5c.228-.1.035-.018-.009 0-.114.044-.219.079-.334.123a4.9 4.9 0 0 1-.509.158 9.159 9.159 0 0 1-1.106.237c.246-.035.044-.009-.009 0-.123.009-.246.026-.36.035-.184.009-.4.009-.6.009a1.317 1.317 0 1 0 0 2.633 10.506 10.506 0 0 0 8.322-4.2 10.32 10.32 0 0 0-1.817-14.194c.07.535.141 1.062.2 1.6a9.51 9.51 0 0 0-.386-8.848 9.414 9.414 0 0 0-6.434-4.442c.307.544.614 1.08.922 1.624a7.934 7.934 0 0 0-1.6-6.917 7.793 7.793 0 0 0-10.27-1.519l1.8.474a6.18 6.18 0 0 0-6.566-2.686 6.087 6.087 0 0 0-4.486 4.538 14.923 14.923 0 0 0-.158 3.134v43.451a6.88 6.88 0 0 0 7.488 6.952 6.989 6.989 0 0 0 5.855-4.565 6.88 6.88 0 0 0 .105-4.2l-1.624 1.624a9.225 9.225 0 0 0 8-1.861 9.075 9.075 0 0 0 1.773-11.921c-.378.658-.755 1.317-1.141 1.984h.009a1.326 1.326 0 0 0 .009-2.651z" class="prefix__cls-2" data-name="Path 260" transform="translate(-497.01 -87.708)"/>
                    </g>
                </g>
                <g id="prefix__Group_323" data-name="Group 323" transform="translate(106.739 96.703)">
                    <g id="prefix__Group_322" data-name="Group 322">
                        <path id="prefix__Path_261" d="M677.732 198.37a7.946 7.946 0 0 0 3.6-4.828 1.32 1.32 0 1 0-2.546-.7c-.053.193-.105.386-.176.579-.026.088-.062.167-.1.255s-.035.079 0-.009l-.053.123a8.053 8.053 0 0 1-.615 1.018c.079-.114.009 0-.035.044-.053.07-.114.132-.176.2-.132.149-.272.29-.413.421l-.246.219c-.044.044-.158.123-.044.035-.176.132-.36.255-.544.369a1.343 1.343 0 0 0-.474 1.8 1.36 1.36 0 0 0 1.817.474z" class="prefix__cls-2" data-name="Path 261" transform="translate(-675.743 -191.882)"/>
                    </g>
                </g>
                <g id="prefix__Group_325" data-name="Group 325" transform="translate(107.107 121.525)">
                    <g id="prefix__Group_324" data-name="Group 324">
                        <path id="prefix__Path_262" d="M680.59 477.09a7.188 7.188 0 0 1 1.519.983 5.945 5.945 0 0 1 1.106 1.238 1.345 1.345 0 0 0 1.8.474 1.329 1.329 0 0 0 .474-1.8 9.081 9.081 0 0 0-3.573-3.169 1.341 1.341 0 0 0-1.8.474 1.325 1.325 0 0 0 .474 1.8z" class="prefix__cls-2" data-name="Path 262" transform="translate(-679.944 -474.655)"/>
                    </g>
                </g>
            </g>
        </g>
    </g>
</svg>
