<svg xmlns="http://www.w3.org/2000/svg" width="100" height="100" viewBox="0 0 100 100">
    <g id="prefix__Group_19" data-name="Group 19" transform="translate(-494 -1573)">
        <g id="prefix__Group_18" data-name="Group 18">
            <path id="prefix__Rectangle_8" d="M0 0H100V100H0z" data-name="Rectangle 8" transform="translate(494 1573)" style="fill:none"/>
            <g id="prefix__noun_innovation_697695" transform="translate(499 1579.321)">
                <g id="prefix__Group_334" data-name="Group 334" transform="translate(3 9.679)">
                    <path id="prefix__Path_271" d="M29.657 9.694a1.955 1.955 0 0 0-1.39.289c-.587.462-.59 1.323-.222 2.54a21.841 21.841 0 0 0 2.355 4.77c.3.483.669 1.006 1 1.51a15.88 15.88 0 0 0-2.416 6.539l-.514-1.182a7.434 7.434 0 0 0-3.133 2.08 2.671 2.671 0 0 0-.365 2.776c.637 1.379 2.224 2.465 4.648 3.392a15.926 15.926 0 0 0 3.552 5.922H31.8c.108-.182.2-.349.317-.538l-1.758.222c-.068.111-.119.208-.184.317H10.383a4.512 4.512 0 0 0-4.493 4.52v-.081L3.076 67.688v.03L3 72.506a5.437 5.437 0 0 0 5.446 5.486h72.218a5.462 5.462 0 0 0 5.443-5.475v-4.829l-2.818-24.92.005.081a4.512 4.512 0 0 0-4.493-4.52h-9.826a2.065 2.065 0 0 0-4.115 0h-5.434c-.065-.108-.116-.206-.184-.317l-1.758-.222c.116.189.209.357.317.538h-1.365a15.976 15.976 0 0 0 3.043-4.58 16.6 16.6 0 0 0 3.855-1.472 4.522 4.522 0 0 0 2.232-2.3 2.446 2.446 0 0 0 .041-1.418 3.362 3.362 0 0 0-.73-1.355 9.361 9.361 0 0 0-3.36-2.216l-.522 1.266a8.269 8.269 0 0 1 2.851 1.847c.493.567.562.947.408 1.393a3.419 3.419 0 0 1-1.631 1.574 13.567 13.567 0 0 1-2.546 1.05A15.771 15.771 0 0 0 58.2 18.789c.331-.5.7-1.017 1-1.5a21.841 21.841 0 0 0 2.359-4.769c.368-1.217.365-2.078-.222-2.54a1.955 1.955 0 0 0-1.39-.289 7.049 7.049 0 0 0-2.053.59 25.433 25.433 0 0 0-5 3.106l1.161.4a22.809 22.809 0 0 1 4.139-2.611 3.245 3.245 0 0 1 .933-.287.622.622 0 0 1 .487.119c.29.228.4.887.07 1.986a20.891 20.891 0 0 1-2.24 4.518c-.022.036-.053.077-.076.114a15.934 15.934 0 0 0-25.123.014c-.025-.041-.061-.086-.087-.127a20.89 20.89 0 0 1-2.24-4.518c-.332-1.1-.217-1.758.073-1.986a.616.616 0 0 1 .484-.119 3.245 3.245 0 0 1 .933.287 22.808 22.808 0 0 1 4.139 2.611l1.161-.4a25.425 25.425 0 0 0-4.994-3.106 7.065 7.065 0 0 0-2.057-.588zm15.152 3.192a14.545 14.545 0 0 1 11.746 5.957 99.035 99.035 0 0 1-9.685 12.049h-4.141a109.616 109.616 0 0 1-7.851-9.417c2.19-3.494 1.607-4.819-.876-1.19-.347-.492-.636-.954-.95-1.428a14.548 14.548 0 0 1 11.757-5.971zm12.55 7.169a14.366 14.366 0 0 1 1.093 12.52 48.224 48.224 0 0 1-10.231 1.109v-1.407h2.77v-1.385H48.5a105.157 105.157 0 0 0 8.859-10.837zm-25.11.016c.321.458.676.929 1.02 1.4-1.067 1.956.159 2.864.931 1.247 2.05 2.69 4.4 5.477 6.9 8.175h-2.578v1.385h2.77v1.147a49.313 49.313 0 0 1-8.773-1.507c-.649-.184-1.23-.382-1.78-.584a14.474 14.474 0 0 1 1.51-11.262zm-3.279 5.4a16.039 16.039 0 0 0-.141 2.015 15.765 15.765 0 0 0 .33 3.195 6.222 6.222 0 0 1-2.924-2.216 1.129 1.129 0 0 1 .214-1.353 6.356 6.356 0 0 1 2.521-1.642zm15.074 6.806h1.515c-.253.265-.5.537-.757.8-.255-.263-.502-.535-.758-.8zm-1.366.276c.331.344.654.7.987 1.036-.329-.018-.659-.026-.987-.049zm4.155.095v1.039c-.333 0-.662.007-1 0 .34-.341.667-.694 1-1.04zm-15.533.311c.3.094.555.2.876.289a51.124 51.124 0 0 0 9.111 1.583v1.7c-1.363 1.28-2.68 2.422-3.96 3.474a14.563 14.563 0 0 1-6.027-7.046zm26.462 1.171a14.553 14.553 0 0 1-5.486 5.881c-1.311-1.077-2.66-2.244-4.058-3.56v-1.363a51.415 51.415 0 0 0 9.544-.958zm-15.084.812l.233.014-.233.227zm1.783.092c.241.01.479.03.72.038.553.54 1.1 1.1 1.653 1.612v8.059h-4.156v-7.98c.594-.556 1.187-1.147 1.782-1.73zm2.367.057h.005v.009zm20.089 2.735a.693.693 0 1 1-.69.693.682.682 0 0 1 .69-.694zm-18.7.1q1.57 1.413 3.079 2.632l-.046.024v4.161h-3.032zm-6.925.081v6.736h-2.924v-4.161l-.057-.03q1.465-1.186 2.982-2.546zm23.9 1.658a2.059 2.059 0 0 0 3.411.049h3.474l1.833 29.238H14.695l1.829-29.238h12.858a16.648 16.648 0 0 0-1.347 3.041c-.358 1.208-.35 2.065.254 2.516a2.042 2.042 0 0 0 1.42.262 7.224 7.224 0 0 0 2.059-.609 25.864 25.864 0 0 0 5.007-3.13c.067-.051.141-.116.208-.168v3.116h-.538a.693.693 0 0 0-.693.692v2.2a2.064 2.064 0 0 0 0 3.9v2.216a.693.693 0 0 0 .692.693h2.078v2.078a.693.693 0 0 0 .692.693h2.078V58.6h1.385v-1.384h4.155V58.6h1.385v-1.384h2.167a.693.693 0 0 0 .693-.692v-2.078h1.988a.693.693 0 0 0 .693-.692v-2.189a2.062 2.062 0 0 0 0-3.952v-2.178a.693.693 0 0 0-.692-.693h-.43v-3.1c.062.047.128.108.189.154a25.864 25.864 0 0 0 5.007 3.13 7.239 7.239 0 0 0 2.061.609 2.034 2.034 0 0 0 1.418-.262c.6-.451.612-1.308.254-2.516a16.648 16.648 0 0 0-1.347-3.041h4.975zm-54.811.049h4.753L13.266 69.6a.693.693 0 0 0 .69.736h60.689a.693.693 0 0 0 .693-.736l-1.872-29.887H78.8a3.1 3.1 0 0 1 3.108 3.135v.038l2.812 24.856a4.94 4.94 0 0 1-5.12 5.037H9.017a4.113 4.113 0 0 1-3.46-1.531 5.709 5.709 0 0 1-1.093-3.508l2.811-24.85v-.041a3.1 3.1 0 0 1 3.108-3.136zm20.638 0h3.639a16.116 16.116 0 0 0 1.58 1.177c-.2.16-.427.357-.628.509a23.246 23.246 0 0 1-4.169 2.643 3.373 3.373 0 0 1-.952.3.632.632 0 0 1-.489-.109c-.292-.218-.414-.864-.092-1.953a15.08 15.08 0 0 1 1.113-2.568zm23.939 0h3.62a15.054 15.054 0 0 1 1.122 2.567c.322 1.089.2 1.735-.095 1.953a.631.631 0 0 1-.492.108 3.373 3.373 0 0 1-.952-.3 23.246 23.246 0 0 1-4.173-2.642c-.2-.15-.418-.343-.619-.5a16.106 16.106 0 0 0 1.59-1.187zm-17.821 6.414h15.236v1.385H37.137zm-.693 2.77h16.71a.693.693 0 1 1 0 1.385H36.445a.693.693 0 1 1 0-1.385zm.693 2.77h15.236v1.393H37.137zm2.77 2.778h9.785v1.385h-9.784zm44.815 17.24v.831a4.049 4.049 0 0 1-4.058 4.09H8.446a4.031 4.031 0 0 1-4.061-4.082l.008-.541c.029.039.048.084.078.122a5.617 5.617 0 0 0 4.545 2.056H79.6a6.315 6.315 0 0 0 5.122-2.475z" data-name="Path 271" transform="translate(-3 -9.679)" style="fill:#ff5050;stroke:#ff5050;stroke-width:.6px;fill-rule:evenodd"/>
                </g>
            </g>
        </g>
    </g>
</svg>
