<svg xmlns="http://www.w3.org/2000/svg" width="598" height="323.536" viewBox="0 0 598 323.536">
    <defs>
        <style>
            .prefix__cls-3,.prefix__cls-4{fill:#ff5050}.prefix__cls-2,.prefix__cls-9{fill:none}.prefix__cls-2,.prefix__cls-4{stroke:#ff5050}.prefix__cls-2{stroke-width:2px}.prefix__cls-4{stroke-width:.4px}.prefix__cls-7{fill:#061134;font-size:16px;font-family:ProximaNova-Bold,Proxima Nova;font-weight:700}.prefix__cls-8{stroke:none}
        </style>
    </defs>
    <g id="prefix__Group_550" data-name="Group 550" transform="translate(-1005 -438.444)">
        <g id="prefix__Group_376" data-name="Group 376" transform="translate(68)">
            <path id="prefix__Path_344" fill="#ff5050" d="M-1878.336 9005.453s31.968 24.744 43.654 58.066 13.457 47.419 10.3 69.922-11.108 48.973-20.455 59.472-6.656 10.277-6.656 10.277-20.654 26.494-24.533 26.973-10.952-6.236-10.952-6.236-26.759-27.026-31.79-44.4-14.318-42.2-13.069-58.36c.606-7.84.078-14.709.925-21.251a3.785 3.785 0 0 0 .506-.952c.786-6.073 2.513-11.317 3.052-15.09.656-4.59 4.61-16.453 9.326-26.954a156.448 156.448 0 0 1 8-14.694c5.447-9.456 18.5-25.346 18.5-25.346z" data-name="Path 344" opacity="0.8" transform="translate(3054 -8503)"/>
            <g id="prefix__Group_247" data-name="Group 247" transform="translate(0 -29.021)">
                <g id="prefix__Group_246" data-name="Group 246" transform="translate(0 150)">
                    <g id="prefix__Ellipse_24" class="prefix__cls-2" data-name="Ellipse 24" transform="translate(937 347)">
                        <circle cx="147" cy="147" r="147" class="prefix__cls-8"/>
                        <circle cx="147" cy="147" r="146" class="prefix__cls-9"/>
                    </g>
                    <g id="prefix__Ellipse_25" class="prefix__cls-2" data-name="Ellipse 25" transform="translate(1121 347)">
                        <circle cx="147" cy="147" r="147" class="prefix__cls-8"/>
                        <circle cx="147" cy="147" r="146" class="prefix__cls-9"/>
                    </g>
                    <g id="prefix__Group_245" data-name="Group 245" transform="translate(8)">
                        <g id="prefix__profit" transform="translate(1181.478 426.282)">
                            <g id="prefix__Group_464" data-name="Group 464" transform="translate(71.596 9.37)">
                                <g id="prefix__Group_463" data-name="Group 463">
                                    <path id="prefix__Path_465" d="M116.341 110.5h-.178a11.344 11.344 0 0 0-8.072 19.1 8.079 8.079 0 0 1 2.222 5.893h-.322a.848.848 0 0 0 0 1.7h12.728a.848.848 0 1 0 0-1.7h-.458a7.726 7.726 0 0 1 2.264-5.842.085.085 0 0 0 .008-.025 11.33 11.33 0 0 0-8.191-19.121zm6.962 17.976a9.481 9.481 0 0 0-2.73 7.013h-8.556a9.823 9.823 0 0 0-2.688-7.063 9.5 9.5 0 0 1-2.595-6.75 9.6 9.6 0 0 1 19.206.017v.153a9.745 9.745 0 0 1-2.64 6.63z" class="prefix__cls-3" data-name="Path 465" transform="translate(-105.028 -110.5)"/>
                                </g>
                            </g>
                            <g id="prefix__Group_466" data-name="Group 466" transform="translate(78.217 38.768)">
                                <g id="prefix__Group_465" data-name="Group 465">
                                    <path id="prefix__Path_466" d="M191.472 457.2H183.7a.848.848 0 1 0 0 1.7h7.776a.848.848 0 1 0 0-1.7z" class="prefix__cls-3" data-name="Path 466" transform="translate(-182.848 -457.2)"/>
                                </g>
                            </g>
                            <g id="prefix__Group_468" data-name="Group 468" transform="translate(81.846)">
                                <g id="prefix__Group_467" data-name="Group 467">
                                    <path id="prefix__Path_467" d="M226.5 0a.85.85 0 0 0-.848.848v4.333a.848.848 0 1 0 1.7 0V.848A.85.85 0 0 0 226.5 0z" class="prefix__cls-3" data-name="Path 467" transform="translate(-225.648)"/>
                                </g>
                            </g>
                            <g id="prefix__Group_470" data-name="Group 470" transform="translate(92.494 5.967)">
                                <g id="prefix__Group_469" data-name="Group 469">
                                    <path id="prefix__Path_468" d="M355.859 70.636a.845.845 0 0 0-1.2-.034l-3.18 3a.846.846 0 0 0 1.162 1.23l3.18-3a.845.845 0 0 0 .038-1.196z" class="prefix__cls-3" data-name="Path 468" transform="translate(-351.219 -70.371)"/>
                                </g>
                            </g>
                            <g id="prefix__Group_472" data-name="Group 472" transform="translate(68.523 5.476)">
                                <g id="prefix__Group_471" data-name="Group 471">
                                    <path id="prefix__Path_469" d="M73.027 67.926l-3.053-3.1a.846.846 0 0 0-1.213 1.179l.008.008 3.053 3.1a.862.862 0 0 0 .6.254.85.85 0 0 0 .848-.848.834.834 0 0 0-.243-.593z" class="prefix__cls-3" data-name="Path 469" transform="translate(-68.523 -64.575)"/>
                                </g>
                            </g>
                            <g id="prefix__Group_343" data-name="Group 343" transform="translate(79.281 16.398)">
                                <g id="prefix__Group_338" data-name="Group 338">
                                    <g id="prefix__Group_339" data-name="Group 339">
                                        <g id="prefix__Group_338-2" data-name="Group 338">
                                            <path id="prefix__Path_273" d="M151.916 44h1.814a6.99 6.99 0 0 1 .88.021l-.113-.015a2.5 2.5 0 0 1 .633.172l-.1-.043a2.512 2.512 0 0 1 .54.315l-.086-.067a2.527 2.527 0 0 1 .451.451l-.067-.086a2.513 2.513 0 0 1 .315.54l-.043-.1a2.5 2.5 0 0 1 .172.633l-.015-.113a2.539 2.539 0 0 1 0 .644l.015-.114a2.5 2.5 0 0 1-.172.633l.043-.1a2.513 2.513 0 0 1-.315.54l.067-.086a2.526 2.526 0 0 1-.451.451l.086-.067a2.512 2.512 0 0 1-.54.315l.1-.043a2.5 2.5 0 0 1-.633.172l.113-.015a6.089 6.089 0 0 1-.768.021h-1.926a.431.431 0 0 0-.427.427v.226a.477.477 0 0 0 .131.327l.079.091.394.457 1.385 1.6 1.513 1.753.841.974.019.022a.427.427 0 0 0 .729-.3.447.447 0 0 0-.125-.3l-.665-.77-1.461-1.693-1.458-1.688-.653-.756.125.3v-.244l-.427.427h1.814c.231 0 .464.008.695 0a2.8 2.8 0 0 0 .9-.192 3.088 3.088 0 0 0 .845-.508 2.861 2.861 0 0 0 .982-2.449 3.069 3.069 0 0 0-.269-.973 2.855 2.855 0 0 0-1.208-1.28 2.963 2.963 0 0 0-1.434-.356h-2.326a.427.427 0 1 0 0 .854z" class="prefix__cls-4" data-name="Path 273" transform="translate(-151.489 -43.149)"/>
                                        </g>
                                    </g>
                                    <g id="prefix__Group_341" data-name="Group 341" transform="translate(0 2.535)">
                                        <g id="prefix__Group_340" data-name="Group 340">
                                            <path id="prefix__Path_274" d="M158.582 250.982h-6.666a.427.427 0 0 0 0 .854h6.666a.427.427 0 0 0 0-.854z" class="prefix__cls-4" data-name="Path 274" transform="translate(-151.489 -250.982)"/>
                                        </g>
                                    </g>
                                </g>
                                <g id="prefix__Group_339-2" data-name="Group 339">
                                    <g id="prefix__Group_342" data-name="Group 342">
                                        <path id="prefix__Path_275" d="M151.918 44h6.666a.427.427 0 1 0 0-.854h-6.666a.427.427 0 0 0 0 .854z" class="prefix__cls-4" data-name="Path 275" transform="translate(-151.491 -43.144)"/>
                                    </g>
                                </g>
                            </g>
                        </g>
                    </g>
                    <g id="prefix__Group_269" data-name="Group 269" transform="translate(999.03 422.655)">
                        <path id="prefix__Path_203" d="M20.408 21.541h.042a5.807 5.807 0 0 0 2.953-.883 5.79 5.79 0 0 0 2.986.883h.041c2.1-.013 4.145-1.272 5.748-3.546a11.96 11.96 0 0 0 2.233-6.649 8.042 8.042 0 0 0-11.019-7.394 8.065 8.065 0 0 0-3.039-.587 8.024 8.024 0 0 0-7.98 8.078c.027 4.546 3.739 10.098 8.035 10.098zm12.385-10.186a10.443 10.443 0 0 1-1.938 5.709c-1.275 1.808-2.891 2.851-4.438 2.86h-.029a3.963 3.963 0 0 1-1.565-.332c2.052-2.329 3.633-4.656 3.614-8.249a8.183 8.183 0 0 0-3.1-6.277 6.428 6.428 0 0 1 7.456 6.289zm-12.38-6.373a6.375 6.375 0 0 1 2.645.574 6.456 6.456 0 0 1 3.762 5.8 10.236 10.236 0 0 1-3.883 7.7 4.38 4.38 0 0 1-2.5.871h-.029c-3.371 0-6.4-4.748-6.421-8.491a6.406 6.406 0 0 1 6.426-6.454z" class="prefix__cls-3" data-name="Path 203" transform="translate(-1.419)"/>
                        <path id="prefix__Path_204" d="M4.97 35.332V43.9a.808.808 0 0 0 .808.808h32.376a.808.808 0 0 0 .808-.808v-8.568a7.185 7.185 0 0 0-7.177-7.177h-9.366a.809.809 0 0 0-.748.5l-2.6 6.354-2.694-5.89-.234-.5a.808.808 0 0 0-.732-.466h-3.264a7.185 7.185 0 0 0-7.177 7.179zm26.816-5.56a5.566 5.566 0 0 1 5.56 5.56v7.758H32.99v-7.758a7.226 7.226 0 0 0-2.63-5.56zm-19.639 0H14.9l3.481 7.61a.808.808 0 0 0 1.483-.03l3.1-7.58h2.805l2.184.434a5.643 5.643 0 0 1 3.422 5.126v7.758H6.586v-7.758a5.566 5.566 0 0 1 5.561-5.56z" class="prefix__cls-3" data-name="Path 204" transform="translate(0 -4.755)"/>
                    </g>
                </g>
                <g id="prefix__Group_210" data-name="Group 210" transform="rotate(-27 1107.262 562.488)">
                    <path id="prefix__Path_144" fill="none" stroke="#061134" stroke-linecap="round" stroke-width="2px" d="M12334.367-1224.12s67.785-89.316 229.273-48.434" data-name="Path 144" transform="rotate(11 -2864.26 -58225.297)"/>
                    <g id="prefix__Group_208" data-name="Group 208" transform="rotate(24 -404.14 3281.278)">
                        <path id="prefix__Path_145" fill="#061134" d="M168.711 121.726a.795.795 0 0 0 1.123.042l6.137-5.7a.795.795 0 0 0 0-1.165l-6.137-5.7a.795.795 0 0 0-1.081 1.165l5.509 5.113-5.509 5.113a.8.8 0 0 0-.042 1.132z" data-name="Path 145"/>
                    </g>
                </g>
            </g>
        </g>
        <text id="prefix__Employee_mindset" class="prefix__cls-7" data-name="Employee mindset" transform="translate(1072 620.979)">
            <tspan x="0" y="0">Employee </tspan><tspan x="0" y="20">mindset</tspan>
        </text>
        <text id="prefix__Entrepreneurial_mindset" class="prefix__cls-7" data-name="Entrepreneurial mindset" transform="translate(1326 620.979)">
            <tspan x="0" y="0">Entrepreneurial </tspan><tspan x="0" y="20">mindset</tspan>
        </text>
        <text id="prefix__Intrapreneurial_mindset" class="prefix__cls-7" data-name="Intrapreneurial mindset" transform="translate(1491 454.979)">
            <tspan x="0" y="0">Intrapreneurial </tspan><tspan x="0" y="18">mindset</tspan>
        </text>
    </g>
</svg>
