<svg xmlns="http://www.w3.org/2000/svg" width="100" height="100" viewBox="0 0 100 100">
    <g id="prefix__Group_19" data-name="Group 19" transform="translate(-494 -1573)">
        <g id="prefix__Group_18" data-name="Group 18">
            <path id="prefix__Rectangle_8" d="M0 0H100V100H0z" data-name="Rectangle 8" transform="translate(494 1573)" style="fill:none"/>
            <g id="prefix__noun_strategy_2419027" transform="translate(512.654 1583.969)">
                <path id="prefix__Path_111" d="M11.951 58.913V29.7A22.873 22.873 0 0 1 33.307 6.9 7.659 7.659 0 0 1 40.915.031a1.518 1.518 0 0 1 1.518 1.518v8.592l14.34 18.7a1.516 1.516 0 0 1-.131 2L50.185 37.3a1.521 1.521 0 0 1-1.9.2l-5.135-3.3h-5.474a8.587 8.587 0 0 1-1.061-.066v3.312a13.27 13.27 0 0 0 7.395 11.848 1.519 1.519 0 0 1 .85 1.362v8.13a8.129 8.129 0 0 1 7.55 8.1v9.182a1.518 1.518 0 0 1-1.518 1.518H6.864a1.518 1.518 0 0 1-1.518-1.518v-9.182a8.131 8.131 0 0 1 6.6-7.975zm29.875-7.336a16.223 16.223 0 0 1-8.245-14.129V33.17a.454.454 0 0 0-.049-.024 8.666 8.666 0 0 1-4.524-7.616v-.986a1.518 1.518 0 0 1 3.036 0v.986a5.639 5.639 0 0 0 5.636 5.636h5.92a1.514 1.514 0 0 1 .821.24l4.479 2.885 4.653-4.663-13.84-18.05a1.513 1.513 0 0 1-.313-.923V3.324a4.62 4.62 0 0 0-3.094 4.357v.539a1.52 1.52 0 0 1-.238.991l-.007.012A1.517 1.517 0 0 1 34.6 9.9a19.829 19.829 0 0 0-19.608 19.8v29.07h26.839zM8.386 74.555h40.993v-7.664a5.091 5.091 0 0 0-5.085-5.085H13.469a5.09 5.09 0 0 0-5.085 5.085z" data-name="Path 111" style="fill:#ff5050"/>
            </g>
        </g>
    </g>
</svg>
