<svg xmlns="http://www.w3.org/2000/svg" width="100" height="100" viewBox="0 0 100 100">
    <defs>
        <style>
            .prefix__cls-2{fill:#ff5050}
        </style>
    </defs>
    <g id="prefix__Group_19" data-name="Group 19" transform="translate(-494 -1573)">
        <g id="prefix__Group_18" data-name="Group 18">
            <path id="prefix__Rectangle_8" d="M0 0H100V100H0z" data-name="Rectangle 8" transform="translate(494 1573)" style="fill:none"/>
            <g id="prefix__noun_digital_3194287" transform="translate(504 1583.5)">
                <g id="prefix__Group_359" data-name="Group 359" transform="translate(6 2.5)">
                    <path id="prefix__Path_308" d="M68.153 61.085a5.366 5.366 0 0 0-2.925.77 5.633 5.633 0 0 0-5.081-3.233 6.125 6.125 0 0 0-2.925.77 5.085 5.085 0 0 0-1.078-1.54 5.591 5.591 0 0 0-4-1.694 4.61 4.61 0 0 0-2.309.462L49.908 45a5.519 5.519 0 0 0-1.617-4 5.591 5.591 0 0 0-4-1.694 5.823 5.823 0 0 0-5.7 5.62l-.154 26.558-3.156-3.156a5.707 5.707 0 0 0-7.236-.693 5.749 5.749 0 0 0-1.232 8.391l6.087 7.23a1.641 1.641 0 0 0 2.54-2.078l-6-7.236a2.308 2.308 0 0 1-.539-1.848 2.276 2.276 0 0 1 1-1.617 2.34 2.34 0 0 1 3 .308l4.388 4.388a2.47 2.47 0 0 0 2.848.539 2.5 2.5 0 0 0 1.617-2.386l.146-28.252a2.316 2.316 0 0 1 2.309-2.309 2.1 2.1 0 0 1 1.617.693 2.768 2.768 0 0 1 .847 1.617l-.073 16.78v2.695a1.7 1.7 0 0 0 1.617 1.694 1.751 1.751 0 0 0 1.694-1.617v-2.695a2.368 2.368 0 0 1 2.309-2.309 2.1 2.1 0 0 1 1.617.693 2.216 2.216 0 0 1 .693 1.617v5.081a1.7 1.7 0 0 0 1.617 1.694 1.751 1.751 0 0 0 1.694-1.617v-2.618a2.316 2.316 0 0 1 2.309-2.309 2.316 2.316 0 0 1 2.309 2.309v5a1.7 1.7 0 0 0 1.617 1.694 1.751 1.751 0 0 0 1.694-1.617v-2.614a2.316 2.316 0 0 1 2.309-2.309 2.316 2.316 0 0 1 2.309 2.309l-.077 15.7a1.7 1.7 0 0 0 1.617 1.694 1.751 1.751 0 0 0 1.694-1.617l.154-15.935a5.618 5.618 0 0 0-5.623-5.693z" class="prefix__cls-2" data-name="Path 308" transform="translate(-10.494 -10.971)"/>
                    <path id="prefix__Path_309" d="M25.168 46.536a1.694 1.694 0 0 0 0-3.387h-8.545a5.439 5.439 0 1 0-5.158 7.082 5.381 5.381 0 0 0 5.158-3.849h8.545zM11.466 47a2.155 2.155 0 1 1 2.155-2.155A2.152 2.152 0 0 1 11.466 47z" class="prefix__cls-2" data-name="Path 309" transform="translate(-6 -10.971)"/>
                    <path id="prefix__Path_310" d="M82.3 39.4a5.381 5.381 0 0 0-5.158 3.849h-8.548a1.694 1.694 0 0 0 0 3.387h8.545a5.429 5.429 0 0 0 10.623-1.616A5.621 5.621 0 0 0 82.3 39.4zm0 7.621a2.155 2.155 0 1 1 2.155-2.155 2.1 2.1 0 0 1-2.155 2.155z" class="prefix__cls-2" data-name="Path 310" transform="translate(-20.019 -10.994)"/>
                    <path id="prefix__Path_311" d="M46.694 13.123v8.545a1.694 1.694 0 1 0 3.387 0v-8.545A5.439 5.439 0 1 0 43 7.966a5.248 5.248 0 0 0 3.694 5.157zm1.694-7.313a2.2 2.2 0 0 1 2.155 2.155 2.155 2.155 0 0 1-4.311 0 2.2 2.2 0 0 1 2.156-2.155z" class="prefix__cls-2" data-name="Path 311" transform="translate(-14.516 -2.5)"/>
                    <path id="prefix__Path_312" d="M22.243 24.254a5.078 5.078 0 0 0 2.463-.616l6.081 6.081a1.7 1.7 0 0 0 1.155.462 1.567 1.567 0 0 0 1.158-.461 1.674 1.674 0 0 0 0-2.309l-6.081-6.081a5.555 5.555 0 0 0 .616-2.463 5.466 5.466 0 1 0-5.389 5.389zm0-7.621a2.155 2.155 0 1 1-2.155 2.155 2.2 2.2 0 0 1 2.155-2.155z" class="prefix__cls-2" data-name="Path 312" transform="translate(-8.463 -5.009)"/>
                    <path id="prefix__Path_313" d="M63.017 30.159a1.567 1.567 0 0 0 1.155-.462l6.081-6.081a5.555 5.555 0 0 0 2.463.616 5.466 5.466 0 1 0-5.466-5.466 5.078 5.078 0 0 0 .616 2.463l-6 6.081a1.674 1.674 0 0 0 0 2.309 1.385 1.385 0 0 0 1.151.54zm9.7-13.549a2.155 2.155 0 1 1-2.155 2.155 2.2 2.2 0 0 1 2.154-2.155z" class="prefix__cls-2" data-name="Path 313" transform="translate(-18.753 -4.986)"/>
                </g>
            </g>
        </g>
    </g>
</svg>
