<svg xmlns="http://www.w3.org/2000/svg" width="100" height="100" viewBox="0 0 100 100">
    <defs>
        <style>
            .prefix__cls-2{fill:#ff5050}
        </style>
    </defs>
    <g id="prefix__Group_19" data-name="Group 19" transform="translate(-494 -1573)">
        <g id="prefix__Group_18" data-name="Group 18">
            <path id="prefix__Rectangle_8" d="M0 0H100V100H0z" data-name="Rectangle 8" transform="translate(494 1573)" style="fill:none"/>
            <g id="prefix__Group_104" data-name="Group 104" transform="translate(499.9 1579.866)">
                <path id="prefix__Path_70" d="M75.576 46.415a5.835 5.835 0 0 0-4.3-1.318 20.911 20.911 0 0 0 .439-9.575c-1.405-7.291-6.764-12.034-13.44-12.034A19.28 19.28 0 0 0 47.906 27a18.762 18.762 0 0 0-10.453-3.6c-6.764 0-12.034 4.743-13.44 12.122a23.23 23.23 0 0 0 3.6 16.69 5.515 5.515 0 0 0-1.054.966L11.1 71.274l15.46 15.46 7.027-9.75 24.771-3.074a6.407 6.407 0 0 0 4.392-2.46l13.792-17.13a5.689 5.689 0 0 0-.966-7.905zm-48.137-10.19C28.493 30.6 32.446 27 37.453 27c2.9 0 6.149 1.23 9.4 3.6l1.054.791 1.053-.791a15.989 15.989 0 0 1 9.311-3.6c5.095 0 8.872 3.514 10.014 9.136a18.969 18.969 0 0 1-2.372 12.825l-9.136 10.98-11.331 2.724-1.846-2.108 7.994-3.25a5.675 5.675 0 0 0 3.25-6.939v-.088a5.686 5.686 0 0 0-6.764-3.689l-17.129 4.3a19.91 19.91 0 0 1-3.512-14.666zm46.292 15.811L59.94 69.253a3.161 3.161 0 0 1-2.02 1.147l-26.353 3.333-5.446 7.642L15.843 71.1 29.2 55.55a3.161 3.161 0 0 1 1.757-.966l18.1-4.568a2.17 2.17 0 0 1 2.543 1.406 2.126 2.126 0 0 1-1.23 2.635l-12.654 5.182 6.676 7.379L58.886 63.1l10.1-12.122v-.088l1.318-1.581a2.232 2.232 0 0 1 3.162-.264l.088.088a2.253 2.253 0 0 1 .177 2.903z" class="prefix__cls-2" data-name="Path 70" transform="translate(0 -2.613)"/>
                <path id="prefix__Rectangle_18" d="M0 0H3.986V9.965H0z" class="prefix__cls-2" data-name="Rectangle 18" transform="translate(46.367 3.134)"/>
                <path id="prefix__Rectangle_19" d="M0 0H3.514V12.737H0z" class="prefix__cls-2" data-name="Rectangle 19" transform="rotate(35.907 27.482 110.136)"/>
                <path id="prefix__Rectangle_20" d="M0 0H12.737V3.514H0z" class="prefix__cls-2" data-name="Rectangle 20" transform="rotate(54.12 8.213 27.81)"/>
            </g>
        </g>
    </g>
</svg>
