<svg xmlns="http://www.w3.org/2000/svg" width="100" height="100" viewBox="0 0 100 100">
    <defs>
        <style>
            .prefix__cls-2{fill:#ff5050;stroke:#ff5050}
        </style>
    </defs>
    <g id="prefix__Group_226" data-name="Group 226" transform="translate(-.461)">
        <g id="prefix__Group_18" data-name="Group 18">
            <path id="prefix__Rectangle_8" d="M0 0H100V100H0z" data-name="Rectangle 8" transform="translate(.461)" style="fill:none"/>
            <g id="prefix__Group_343" data-name="Group 343" transform="translate(-6228.75 3022.55) translate(6272.751 -2972)">
                <g id="prefix__Group_338" data-name="Group 338">
                    <g id="prefix__Group_339" data-name="Group 339">
                        <g id="prefix__Group_338-2" data-name="Group 338">
                            <path id="prefix__Path_273" d="M152.2 44.575h3.029a11.673 11.673 0 0 1 1.469.035l-.19-.025a4.17 4.17 0 0 1 1.057.287l-.17-.072a4.2 4.2 0 0 1 .9.526l-.144-.111a4.221 4.221 0 0 1 .752.752l-.111-.144a4.2 4.2 0 0 1 .526.9l-.072-.17a4.17 4.17 0 0 1 .287 1.057l-.025-.19a4.244 4.244 0 0 1 0 1.075l.025-.19a4.17 4.17 0 0 1-.287 1.057l.072-.17a4.2 4.2 0 0 1-.526.9l.111-.144a4.22 4.22 0 0 1-.752.752l.144-.111a4.2 4.2 0 0 1-.9.526l.17-.072a4.171 4.171 0 0 1-1.057.287l.19-.025a10.168 10.168 0 0 1-1.283.035H152.2a.72.72 0 0 0-.713.713v.377a.8.8 0 0 0 .218.545l.132.153.659.763 2.313 2.679 2.527 2.927 1.4 1.626.031.036a.713.713 0 0 0 1.217-.5.747.747 0 0 0-.209-.5l-1.111-1.286-2.441-2.826-2.423-2.825-1.091-1.263.209.5v-.407l-.713.713h3.029c.386 0 .775.014 1.16-.006a4.678 4.678 0 0 0 1.506-.32 5.157 5.157 0 0 0 1.412-.848 4.777 4.777 0 0 0 1.639-4.09 5.125 5.125 0 0 0-.449-1.624 4.768 4.768 0 0 0-2.017-2.137 4.947 4.947 0 0 0-2.395-.6h-3.89a.713.713 0 1 0 0 1.426z" class="prefix__cls-2" data-name="Path 273" transform="translate(-151.489 -43.149)"/>
                        </g>
                    </g>
                    <g id="prefix__Group_341" data-name="Group 341" transform="translate(0 4.234)">
                        <g id="prefix__Group_340" data-name="Group 340">
                            <path id="prefix__Path_274" d="M163.333 250.982H152.2a.713.713 0 0 0 0 1.426h11.131a.713.713 0 1 0 0-1.426z" class="prefix__cls-2" data-name="Path 274" transform="translate(-151.489 -250.982)"/>
                        </g>
                    </g>
                </g>
                <g id="prefix__Group_339-2" data-name="Group 339">
                    <g id="prefix__Group_342" data-name="Group 342">
                        <path id="prefix__Path_275" d="M152.2 44.57h11.131a.713.713 0 1 0 0-1.426H152.2a.713.713 0 0 0 0 1.426z" class="prefix__cls-2" data-name="Path 275" transform="translate(-151.491 -43.144)"/>
                    </g>
                </g>
            </g>
            <path id="prefix__Path_287" d="M70.032 10.292a8.039 8.039 0 0 0-7.732 5.837h-7.148a2.123 2.123 0 0 0-2.138 2.138V33.64h-8.632V18.185a8.057 8.057 0 1 0-4.439 0V33.64h-8.468V18.349a2.123 2.123 0 0 0-2.138-2.138h-7.152a8.016 8.016 0 1 0 0 4.357h4.933v13.155H20.7a2.123 2.123 0 0 0-2.138 2.138v31.322A2.123 2.123 0 0 0 20.7 69.32h19.32v6.988h-5.915a2.123 2.123 0 0 0-2.138 2.137 2.177 2.177 0 0 0 2.138 2.138H50.3a2.123 2.123 0 0 0 2.138-2.138 2.177 2.177 0 0 0-2.138-2.137h-5.918V69.32H63.7a2.123 2.123 0 0 0 2.138-2.138V35.86a2.123 2.123 0 0 0-2.138-2.137h-6.411V20.569h4.933a8.049 8.049 0 1 0 7.81-10.276zm-31.487.247a3.7 3.7 0 1 1 3.7 3.7 3.737 3.737 0 0 1-3.7-3.7zM14.457 21.966a3.7 3.7 0 1 1 3.7-3.7 3.684 3.684 0 0 1-3.7 3.7zm47.107 43H22.925V38h38.639zm8.468-43a3.7 3.7 0 1 1 3.7-3.7 3.792 3.792 0 0 1-3.7 3.7z" data-name="Path 287" transform="translate(8.208 8.058)" style="fill:#ff5050"/>
        </g>
    </g>
</svg>
