<svg xmlns="http://www.w3.org/2000/svg" width="100" height="100" viewBox="0 0 100 100">
    <g id="prefix__Group_354" data-name="Group 354" transform="translate(-494 -1573)">
        <g id="prefix__Group_18" data-name="Group 18">
            <path id="prefix__Rectangle_8" d="M0 0H100V100H0z" data-name="Rectangle 8" transform="translate(494 1573)" style="fill:none"/>
            <path id="prefix__Path_187" d="M59.422 17.64h-2.944v-2.282a3.768 3.768 0 0 0-3.93-3.538h-1.471c-1.485 0-2.525-.837-2.525-1.593V8.039a2.026 2.026 0 0 0-2-2.039H31.361a2.026 2.026 0 0 0-2.026 2.026v2.2c0 .756-1.04 1.593-2.512 1.593h-1.4a3.754 3.754 0 0 0-3.923 3.539v2.282h-2.981a6.279 6.279 0 0 0-6.279 6.279v46.71a6.279 6.279 0 0 0 6.279 6.279h40.9a6.279 6.279 0 0 0 6.266-6.279v-46.71a6.279 6.279 0 0 0-6.266-6.279zM26.77 15.871c3.619 0 6.563-2.525 6.563-5.645v-.176h11.14v.162c0 3.119 2.957 5.645 6.576 5.645H52.4v4.659H25.393v-4.645zm34.867 54.758a2.228 2.228 0 0 1-2.215 2.228h-40.9a2.228 2.228 0 0 1-2.228-2.228v-46.71a2.228 2.228 0 0 1 2.228-2.228h2.917v.878a2.012 2.012 0 0 0 1.283 1.864 1.958 1.958 0 0 0 .8.162h31.052a2.026 2.026 0 0 0 2.026-2.026v-.878h2.93a2.228 2.228 0 0 1 2.215 2.228zm-2.944-22.957a2.026 2.026 0 0 1-2.026 2.028h-9.641l-3.4 5.4a2.039 2.039 0 0 1-1.715.932A1.985 1.985 0 0 1 40.206 55l-5.4-9.453-2.633 4.213a2.053 2.053 0 0 1-1.742.986h-7.212a2.026 2.026 0 0 1 0-4.051h6.117l3.764-6.274a2.039 2.039 0 0 1 1.769-.986 2.026 2.026 0 0 1 1.742 1.04l5.4 9.574 2.174-3.416A2.039 2.039 0 0 1 45.9 45.7h10.8a2.026 2.026 0 0 1 1.985 2.026z" data-name="Path 187" transform="translate(504.76 1579.801)" style="fill:#ff5050"/>
        </g>
    </g>
</svg>
