<svg xmlns="http://www.w3.org/2000/svg" width="100" height="100" viewBox="0 0 100 100">
    <defs>
        <style>
            .prefix__cls-2{fill:#ff5050}
        </style>
    </defs>
    <g id="prefix__Group_19" data-name="Group 19" transform="translate(-494 -1573)">
        <g id="prefix__Group_18" data-name="Group 18">
            <path id="prefix__Rectangle_8" d="M0 0H100V100H0z" data-name="Rectangle 8" transform="translate(494 1573)" style="fill:none"/>
            <g id="prefix__Group_73" data-name="Group 73" transform="translate(496.358 1575.283)">
                <path id="prefix__Path_40" d="M54.6 75.838a2.8 2.8 0 0 0 2.8-2.8V59.8a2.8 2.8 0 1 0-5.6 0v13.241a2.8 2.8 0 0 0 2.8 2.797z" class="prefix__cls-2" data-name="Path 40" transform="translate(-2.607 -2.952)"/>
                <g id="prefix__Group_72" data-name="Group 72" transform="translate(13.125 13.2)">
                    <path id="prefix__Path_39" d="M54.6 13.2a2.8 2.8 0 0 0-2.8 2.8v13.287a2.8 2.8 0 1 0 5.6 0V16a2.8 2.8 0 0 0-2.8-2.8z" class="prefix__cls-2" data-name="Path 39" transform="translate(-15.732 -13.2)"/>
                    <path id="prefix__Path_41" d="M85.435 45a2.8 2.8 0 0 0-2.8-2.8H69.348a2.8 2.8 0 0 0 0 5.6h13.289a2.8 2.8 0 0 0 2.8-2.8z" class="prefix__cls-2" data-name="Path 41" transform="translate(-16.726 -15.155)"/>
                    <path id="prefix__Path_42" d="M38.887 47.8a2.8 2.8 0 1 0 0-5.6H25.6a2.8 2.8 0 0 0 0 5.6z" class="prefix__cls-2" data-name="Path 42" transform="translate(-13.777 -15.155)"/>
                    <path id="prefix__Path_43" d="M76.4 22.511a2.8 2.8 0 0 0-3.954 0l-9.4 9.4A2.8 2.8 0 1 0 67 35.866l9.4-9.391a2.8 2.8 0 0 0 0-3.964z" class="prefix__cls-2" data-name="Path 43" transform="translate(-16.43 -13.772)"/>
                    <path id="prefix__Path_44" d="M44.241 53.451a2.8 2.8 0 0 0-3.954 0L14.016 79.722a2.8 2.8 0 1 0 3.954 3.954l26.271-26.271a2.8 2.8 0 0 0 0-3.954z" class="prefix__cls-2" data-name="Path 44" transform="translate(-13.125 -15.858)"/>
                    <path id="prefix__Path_45" d="M74.433 67.631a2.8 2.8 0 0 0 1.977-4.775l-9.4-9.4a2.8 2.8 0 0 0-3.954 3.954l9.391 9.4a2.8 2.8 0 0 0 1.986.821z" class="prefix__cls-2" data-name="Path 45" transform="translate(-16.44 -15.863)"/>
                    <path id="prefix__Path_46" d="M45.47 31.916l-9.4-9.4a2.8 2.8 0 0 0-3.954 3.954l9.4 9.4a2.8 2.8 0 0 0 3.954-3.954z" class="prefix__cls-2" data-name="Path 46" transform="translate(-14.355 -13.777)"/>
                </g>
            </g>
            <circle id="prefix__Ellipse_22" cx="8" cy="8" r="8" data-name="Ellipse 22" transform="translate(543 1611)" style="opacity:.2;fill:#ff5050"/>
        </g>
    </g>
</svg>
