<svg xmlns="http://www.w3.org/2000/svg" width="100" height="100" viewBox="0 0 100 100">
    <defs>
        <style>
            .prefix__cls-2{fill:#ff5050}
        </style>
    </defs>
    <g id="prefix__Group_19" data-name="Group 19" transform="translate(-494 -1573)">
        <g id="prefix__Group_18" data-name="Group 18">
            <path id="prefix__Rectangle_8" d="M0 0H100V100H0z" data-name="Rectangle 8" transform="translate(494 1573)" style="fill:none"/>
            <g id="prefix__Group_358" data-name="Group 358" transform="translate(502 1577)">
                <path id="prefix__Path_303" d="M80.754 13H3.335A1.335 1.335 0 0 0 2 14.335v48.053a1.335 1.335 0 0 0 1.335 1.335h12.013v13.348a1.335 1.335 0 0 0 1.335 1.335h8.009a1.335 1.335 0 0 0 1.335-1.335V63.723h54.727a1.335 1.335 0 0 0 1.335-1.335V14.335A1.335 1.335 0 0 0 80.754 13zM18.018 43.7h5.339v26.7h-5.339zm.69-2.67l1.98-4.62 1.98 4.62zm4.649 34.7h-5.339v-2.67h5.339zm56.062-14.677H26.027V42.366c0-.019-.011-.035-.011-.055a1.335 1.335 0 0 0-.091-.448v-.02l-4-9.344a1.335 1.335 0 0 0-2.453 0l-4 9.344v.02a1.335 1.335 0 0 0-.091.448c0 .02-.011.036-.011.055v18.687H4.67V15.67h74.749z" class="prefix__cls-2" data-name="Path 303"/>
                <path id="prefix__Path_304" d="M25.335 46.369h18.687a1.335 1.335 0 0 0 1.335-1.335v-9.45a9.344 9.344 0 1 0-10.572-10.572h-9.45A1.335 1.335 0 0 0 24 26.347v18.687a1.335 1.335 0 0 0 1.335 1.335zm17.352-13.482a6.7 6.7 0 0 1-5.206-5.206h5.206zm1.335-13.215a6.674 6.674 0 0 1 1.335 13.215v-6.54a1.335 1.335 0 0 0-1.335-1.335h-6.54a6.686 6.686 0 0 1 6.541-5.339zm-17.352 8.01h8.116a9.344 9.344 0 0 0 7.9 7.9V43.7H26.67z" class="prefix__cls-2" data-name="Path 304" transform="translate(7.366 1.336)"/>
                <path id="prefix__Path_305" d="M57.156 38.343l-10.046 8.79-8.57-3.674a1.335 1.335 0 0 0-.994-.024l-10.678 4a1.335 1.335 0 0 0 .469 2.586 1.373 1.373 0 0 0 .469-.084l10.174-3.814 8.851 3.794a1.335 1.335 0 0 0 1.406-.223l10.679-9.344a1.335 1.335 0 1 0-1.759-2z" class="prefix__cls-2" data-name="Path 305" transform="translate(8.035 8.358)"/>
                <path id="prefix__Path_306" d="M7.335 24.67h18.687a1.335 1.335 0 1 0 0-2.67H7.335a1.335 1.335 0 1 0 0 2.67z" class="prefix__cls-2" data-name="Path 306" transform="translate(1.339 3.013)"/>
                <path id="prefix__Path_307" d="M48.335 37h10.679a1.335 1.335 0 0 0 1.159-2l-5.339-9.344a1.388 1.388 0 0 0-2.317 0L47.177 35a1.335 1.335 0 0 0 1.159 2zm5.339-7.987l3.039 5.318h-6.078z" class="prefix__cls-2" data-name="Path 307" transform="translate(15.066 4.029)"/>
            </g>
        </g>
    </g>
</svg>
