<svg xmlns="http://www.w3.org/2000/svg" width="100" height="100" viewBox="0 0 100 100">
    <defs>
        <style>
            .prefix__cls-2,.prefix__cls-3{fill:#ff5050}.prefix__cls-2{stroke:#ff5050;stroke-width:.4px}
        </style>
    </defs>
    <g id="prefix__Group_225" data-name="Group 225" transform="translate(-494 -1573)">
        <g id="prefix__Group_18" data-name="Group 18">
            <path id="prefix__Rectangle_8" d="M0 0H100V100H0z" data-name="Rectangle 8" transform="translate(494 1573)" style="fill:none"/>
            <g id="prefix__Group_243" data-name="Group 243" transform="translate(509 1588)">
                <path id="prefix__Path_146" d="M5.6 30.067v18.489a1.386 1.386 0 0 0 1.467 1.467 1.386 1.386 0 0 0 1.467-1.467V30.067A1.386 1.386 0 0 0 7.067 28.6 1.386 1.386 0 0 0 5.6 30.067z" class="prefix__cls-2" data-name="Path 146" transform="translate(2.617 13.367)"/>
                <path id="prefix__Path_357" d="M5.6 30.067v18.489a1.386 1.386 0 0 0 1.467 1.467 1.386 1.386 0 0 0 1.467-1.467V30.067A1.386 1.386 0 0 0 7.067 28.6 1.386 1.386 0 0 0 5.6 30.067z" class="prefix__cls-2" data-name="Path 357" transform="translate(36.617 13.367)"/>
                <path id="prefix__Path_147" d="M21 29.467v19.37a1.467 1.467 0 0 0 2.935 0v-19.37A1.386 1.386 0 0 0 22.467 28 1.47 1.47 0 0 0 21 29.467z" class="prefix__cls-2" data-name="Path 147" transform="translate(9.815 13.087)"/>
                <path id="prefix__Path_355" d="M21 29.467v19.37a1.467 1.467 0 0 0 2.935 0v-19.37A1.386 1.386 0 0 0 22.467 28 1.47 1.47 0 0 0 21 29.467z" class="prefix__cls-2" data-name="Path 355" transform="translate(43.815 13.087)"/>
                <path id="prefix__Path_148" d="M13.3 25.767v24.8a1.386 1.386 0 0 0 1.467 1.467 1.386 1.386 0 0 0 1.467-1.467v-24.8a1.386 1.386 0 0 0-1.467-1.467 1.47 1.47 0 0 0-1.467 1.467z" class="prefix__cls-2" data-name="Path 148" transform="translate(6.216 11.357)"/>
                <path id="prefix__Path_356" d="M13.3 25.767v24.8a1.386 1.386 0 0 0 1.467 1.467 1.386 1.386 0 0 0 1.467-1.467v-24.8a1.386 1.386 0 0 0-1.467-1.467 1.47 1.47 0 0 0-1.467 1.467z" class="prefix__cls-2" data-name="Path 356" transform="translate(40.216 11.357)"/>
                <path id="prefix__Path_152" d="M37.1 22.752a5.147 5.147 0 0 0-4.988.344l-5.332-2.752a4.742 4.742 0 0 0-4.816-4.472 4.808 4.808 0 0 0-4.816 4.816l-5.676 3.1a4.759 4.759 0 0 0-2.752-.86 4.816 4.816 0 1 0 4.644 3.44l4.988-2.752a4.685 4.685 0 0 0 3.612 1.548 4.568 4.568 0 0 0 3.784-1.892l4.3 2.236c-.516 3.1 1.2 6.02 4.816 6.02a4.808 4.808 0 0 0 4.816-4.816 7.315 7.315 0 0 0-.344-1.892c-.869-.673.019-.146-.877-.893-.235-.498-1.75-1.551-1.359-1.175zM8.544 29.633a1.376 1.376 0 1 1 1.376-1.376c.172.688-.52 1.376-1.376 1.376zm13.245-7.4a1.376 1.376 0 1 1 1.376-1.376c.172.691-.516 1.379-1.376 1.379zM34.862 28.6a1.357 1.357 0 0 1-1.376-1.376 1.48 1.48 0 0 1 1.376-1.376 1.357 1.357 0 0 1 1.376 1.376 1.48 1.48 0 0 1-1.376 1.376z" class="prefix__cls-3" data-name="Path 152" transform="translate(2.194 1.391)"/>
                <path id="prefix__Path_482" d="M37.1 22.752a5.147 5.147 0 0 0-4.988.344l-5.332-2.752a4.742 4.742 0 0 0-4.816-4.472 4.808 4.808 0 0 0-4.816 4.816l-5.676 3.1a4.759 4.759 0 0 0-2.752-.86 4.816 4.816 0 1 0 4.644 3.44l4.988-2.752a4.685 4.685 0 0 0 3.612 1.548 4.568 4.568 0 0 0 3.784-1.892l4.3 2.236c-.516 3.1 1.2 6.02 4.816 6.02a4.808 4.808 0 0 0 4.816-4.816 7.315 7.315 0 0 0-.344-1.892l-.154-.437-.615-.776a8.741 8.741 0 0 0-1.467-.855zM8.544 29.633a1.376 1.376 0 1 1 1.376-1.376c.172.688-.52 1.376-1.376 1.376zm13.245-7.4a1.376 1.376 0 1 1 1.376-1.376c.172.691-.516 1.379-1.376 1.379zM34.862 28.6a1.357 1.357 0 0 1-1.376-1.376 1.48 1.48 0 0 1 1.376-1.376 1.357 1.357 0 0 1 1.376 1.376 1.48 1.48 0 0 1-1.376 1.376z" class="prefix__cls-3" data-name="Path 482" transform="translate(28.194 .391)"/>
                <path id="prefix__Path_153" d="M68.967 67.5H2.935V1.467A1.386 1.386 0 0 0 1.467 0 1.386 1.386 0 0 0 0 1.467v67.5a1.386 1.386 0 0 0 1.467 1.467h67.5a1.467 1.467 0 0 0 0-2.935z" class="prefix__cls-2" data-name="Path 153"/>
            </g>
        </g>
    </g>
</svg>
