<svg xmlns="http://www.w3.org/2000/svg" width="100" height="100" viewBox="0 0 100 100">
    <defs>
        <style>
            .prefix__cls-2{fill:#ff5050}
        </style>
    </defs>
    <g id="prefix__Group_19" data-name="Group 19" transform="translate(-494 -1573)">
        <g id="prefix__Group_18" data-name="Group 18">
            <path id="prefix__Rectangle_8" d="M0 0H100V100H0z" data-name="Rectangle 8" transform="translate(494 1573)" style="fill:none"/>
            <g id="prefix__Group" transform="translate(503.114 1583.2)">
                <path id="prefix__Compound_Path" d="M53.477 1.8a21.627 21.627 0 0 0-15.606 6.654c-12.833.95-23.052 11.328-23.29 23.607L7.055 51.073a2.377 2.377 0 0 0 1.98 3.248l5.7.555.475 5.783a7.13 7.13 0 0 0 7.6 6.5l3.644-.238v8.872a2.377 2.377 0 0 0 2.377 2.377h31.696a2.377 2.377 0 0 0 2.373-2.381V60.263a33.35 33.35 0 0 1 .158-5.862c.079-.634.079-1.267.158-1.822.158-1.9.4-4.278.713-6.733l.4-3.565A21.706 21.706 0 0 0 53.477 1.8zM59.1 45.29c-.317 2.535-.555 4.911-.713 6.971L58.23 54a37.946 37.946 0 0 0-.158 6.575v12.838H31.138v-9.031a2.377 2.377 0 0 0-2.538-2.377l-6.179.4a2.377 2.377 0 0 1-2.535-2.218l-.634-7.763a2.377 2.377 0 0 0-2.136-2.224l-4.515-.4 6.5-16.556a2.377 2.377 0 0 0 .158-.871c0-8.476 6.337-16.081 14.734-18.537a21.626 21.626 0 0 0 25.27 30.5zm-5.624-4.832a16.912 16.912 0 1 0 0-.079z" class="prefix__cls-2" data-name="Compound Path"/>
                <path id="prefix__Path" d="M71.936 25.294h-5.783v-8.317a2.377 2.377 0 1 0-4.753 0v10.694a2.377 2.377 0 0 0 2.377 2.377h8.159a2.377 2.377 0 1 0 0-4.753z" class="prefix__cls-2" transform="translate(-11.329 -2.66)"/>
            </g>
        </g>
    </g>
</svg>
