<svg xmlns="http://www.w3.org/2000/svg" width="100" height="100" viewBox="0 0 100 100">
    <g id="prefix__Group_19" data-name="Group 19" transform="translate(-494 -1573)">
        <g id="prefix__Group_18" data-name="Group 18">
            <path id="prefix__Rectangle_8" d="M0 0H100V100H0z" data-name="Rectangle 8" transform="translate(494 1573)" style="fill:none"/>
            <g id="prefix__Group_383" data-name="Group 383" transform="translate(501.88 1572.65)">
                <path id="prefix__Path_346" d="M80.391 28.17H70.7a.871.871 0 0 0-.871.871v3.918l-7.476 2.071L38.2 27.412a6.963 6.963 0 0 0-.81-.4h-.052a8.244 8.244 0 0 0-8.209 1.01l-14.535 2.794v-1.741a.871.871 0 0 0-.871-.871H3.991a.871.871 0 0 0-.871.871v31.671a.871.871 0 0 0 .871.871h9.689a.871.871 0 0 0 .871-.871v-7.539c4.927 4.832 18.726 18.282 18.874 18.386a6.538 6.538 0 0 0 4.414 1.889 3.926 3.926 0 0 0 2.847-1.106 4.919 4.919 0 0 0 1.428-3.03l.609.6a4.7 4.7 0 0 0 8.027-2.916l.3.3a4.727 4.727 0 0 0 6.686 0 4.666 4.666 0 0 0 1.332-2.89 4.71 4.71 0 0 0 7.609-3.709 4.588 4.588 0 0 0-.4-1.88l3.534-.078v1.967a.871.871 0 0 0 .871.871h9.707a.871.871 0 0 0 .871-.871v-31.7a.871.871 0 0 0-.869-.87zM12.809 59.876H4.861V29.911h7.948zm51.267 2.969a3.047 3.047 0 0 1-4.214 0l-1.819-1.819a3.787 3.787 0 0 0-.3-.357l-7.722-7.635-.087-.061-.427-.435a.871.871 0 0 0-1.227 1.219l8.52 8.504a2.943 2.943 0 0 1-.279 3.83 3.056 3.056 0 0 1-4.222 0L44.568 58.4a.871.871 0 0 0-1.227 1.227l1.149 1.149 3.682 3.674a3 3 0 0 1-4.24 4.248l-3.125-3.125-5.041-5.041a.871.871 0 1 0-1.236 1.227l4.492 4.492.557.557a2.882 2.882 0 0 1 .871 2.115 3.23 3.23 0 0 1-.958 2.22c-1.123 1.114-3.552.488-4.832-.792-.174-.174-16.985-16.541-20.093-19.6V32.592l12.614-2.429c-.061.1-.131.192-.192.3l-2.479 4.288a4.91 4.91 0 0 0 1.79 6.695A6.608 6.608 0 0 0 35.313 39l1.271-2.211h.279a4.919 4.919 0 0 0 3.8-1.819l10.447 10.7.087.061 12.876 12.9a2.934 2.934 0 0 1 .871 2.107 2.969 2.969 0 0 1-.867 2.106zm5.754-5.807l-4.588.1a1.01 1.01 0 0 0-.157 0L52.3 44.379l-.226-.209-10.902-11.16a.723.723 0 0 0-.1-.07.653.653 0 0 0-.157-.113h-.1a.871.871 0 0 0-.871.2 1.08 1.08 0 0 0-.165.226 3.169 3.169 0 0 1-2.873 1.828 2.446 2.446 0 0 1-.566-.061h-.348l-.139.061a.871.871 0 0 0-.157.078.592.592 0 0 0-.1.1.653.653 0 0 0-.131.139L33.9 38.1a4.858 4.858 0 0 1-6.625 1.741 3.16 3.16 0 0 1-1.149-4.353l2.464-4.266a6.486 6.486 0 0 1 6.094-3.238l27.492 8.706a.87.87 0 0 0 .261 0 1.1 1.1 0 0 0 .235 0l7.156-1.941zm9.689 2.838h-7.947V29.911h7.948z" data-name="Path 346" style="fill:#ff5050;stroke:#ff5050"/>
            </g>
        </g>
    </g>
</svg>
