<svg xmlns="http://www.w3.org/2000/svg" width="100" height="100" viewBox="0 0 100 100">
    <defs>
        <style>
            .prefix__cls-2{fill:#ff5050;stroke:#ff5050}
        </style>
    </defs>
    <g id="prefix__Group_19" data-name="Group 19" transform="translate(-494 -1573)">
        <g id="prefix__Group_18" data-name="Group 18">
            <path id="prefix__Rectangle_8" d="M0 0H100V100H0z" data-name="Rectangle 8" transform="translate(494 1573)" style="fill:none"/>
            <g id="prefix__noun_growth_2152452" transform="translate(503 1583.059)">
                <path id="prefix__Path_107" d="M3.175 61.651h13.094a1.174 1.174 0 0 0 1.175-1.175v-1.383l22.539 8.131a11.876 11.876 0 0 0 9.63-.711l28.918-15.5a1.91 1.91 0 0 0 .946-1.214 1.936 1.936 0 0 0-.258-1.54 8.933 8.933 0 0 0-10.3-3.679l-12.555 4.084c.009-.122.036-.238.036-.362a4.983 4.983 0 0 0-4.909-5.042H41.062c-5.759-6.337-19.33-5.9-23.619-5.582v-1.263a1.174 1.174 0 0 0-1.175-1.175H3.175A1.174 1.174 0 0 0 2 36.415v24.061a1.174 1.174 0 0 0 1.175 1.175zm36.438-16.475a1.174 1.174 0 0 0 .911.434h10.967a2.7 2.7 0 0 1 0 5.384H32.358a1.175 1.175 0 1 0 0 2.35h19.133a4.832 4.832 0 0 0 3.767-1.849l14.393-4.685a6.59 6.59 0 0 1 7.339 2.361L48.5 64.443a9.532 9.532 0 0 1-7.723.572L17.443 56.6V40.039c3.848-.281 17.338-.803 22.17 5.137zM4.35 37.59h10.744V59.3H4.35z" class="prefix__cls-2" data-name="Path 107" transform="translate(0 4.947)"/>
                <path id="prefix__Path_108" d="M50.949 14.967l4.018-4.017V39.1a1.175 1.175 0 1 0 2.35 0V10.95l4.018 4.017A1.175 1.175 0 0 0 63 13.306l-6.027-6.022a1.179 1.179 0 0 0-1.663 0l-6.022 6.022a1.175 1.175 0 0 0 1.661 1.661z" class="prefix__cls-2" data-name="Path 108" transform="translate(8.206)"/>
                <path id="prefix__Path_109" d="M40.311 19.887l2.562-2.562v20.66a1.175 1.175 0 0 0 2.35 0v-20.66l2.562 2.562a1.175 1.175 0 1 0 1.661-1.661L44.88 13.66a1.179 1.179 0 0 0-1.663 0l-4.567 4.565a1.175 1.175 0 1 0 1.661 1.661z" class="prefix__cls-2" data-name="Path 109" transform="translate(6.346 1.114)"/>
                <path id="prefix__Path_110" d="M30.808 24.324l1.248-1.249v13.9a1.175 1.175 0 1 0 2.35 0v-13.9l1.249 1.249a1.175 1.175 0 0 0 1.661-1.661l-3.254-3.253a1.174 1.174 0 0 0-1.663 0l-3.253 3.253a1.175 1.175 0 0 0 1.661 1.661z" class="prefix__cls-2" data-name="Path 110" transform="translate(4.685 2.119)"/>
            </g>
        </g>
    </g>
</svg>
