<svg xmlns="http://www.w3.org/2000/svg" width="100" height="100" viewBox="0 0 100 100">
    <g id="prefix__Group_19" data-name="Group 19" transform="translate(-494 -1573)">
        <g id="prefix__Group_18" data-name="Group 18">
            <path id="prefix__Rectangle_8" d="M0 0H100V100H0z" data-name="Rectangle 8" transform="translate(494 1573)" style="fill:none"/>
            <path id="prefix__Path_345" d="M67.074 20.451a9.439 9.439 0 1 0-9.439-9.439 9.348 9.348 0 0 0 .911 4.018L37.625 29.582a9.359 9.359 0 0 0-9.274-2.482l-4.661-9.92a9.54 9.54 0 1 0-2.846 1.34l4.661 9.92a9.4 9.4 0 0 0-2.092 13.479l-7.8 8.4a9.513 9.513 0 1 0 2.3 2.147l7.8-8.4a9.316 9.316 0 0 0 7.553 1.24l6.532 14.5a9.625 9.625 0 1 0 2.873-1.285l-6.532-14.5a9.52 9.52 0 0 0 2.461-2.404l19.41 9.274a9.464 9.464 0 1 0 1.362-2.836l-19.41-9.274a9.3 9.3 0 0 0-.54-6.615l20.92-14.552a9.4 9.4 0 0 0 6.732 2.837zM12.012 9.439a6.293 6.293 0 1 1 6.293 6.293 6.3 6.3 0 0 1-6.293-6.293zm39.33 58.208a6.293 6.293 0 1 1-6.293-6.293 6.3 6.3 0 0 1 6.293 6.293zM67.074 47.2a6.293 6.293 0 1 1-6.293 6.293 6.3 6.3 0 0 1 6.293-6.293zM10.439 64.5a6.293 6.293 0 1 1 6.293-6.293 6.3 6.3 0 0 1-6.293 6.293zM67.074 4.72a6.293 6.293 0 1 1-6.293 6.293 6.3 6.3 0 0 1 6.293-6.293z" data-name="Path 345" transform="translate(505 1584)" style="fill:#ff5050"/>
        </g>
    </g>
</svg>
