<svg xmlns="http://www.w3.org/2000/svg" width="100" height="100" viewBox="0 0 100 100">
    <g>
        <g>
            <path fill="none" d="M0 0H100V100H0z" transform="translate(-494 -1573) translate(494 1573)"/>
        </g>
        <g>
            <g fill="#ff5050">
                <path d="M42.68 8A34.584 34.584 0 0 0 14.4 62.626c-.163.34-.361.717-.619 1.239-1.874 3.782-3.618 7.21-5.6 11.1a1.652 1.652 0 0 0 2.09 2.271l13.289-5.47a35.306 35.306 0 0 0 19.12 5.6A34.68 34.68 0 0 0 42.68 8zm0 3.3a31.377 31.377 0 1 1 0 62.754 32.119 32.119 0 0 1-18.062-5.5 1.682 1.682 0 0 0-1.548-.155l-9.934 4.1c1.216-2.422 2.319-4.562 3.612-7.173.31-.626.566-1.137.748-1.522.091-.193.148-.356.206-.49a1.882 1.882 0 0 0-.129-1.806A31.39 31.39 0 0 1 42.68 11.3zm0 6.606a16.539 16.539 0 0 0-16.514 16.517 16.342 16.342 0 0 0 2.25 8.273c.322.533.656 1.031.95 1.48 1.8 2.855 3.406 4.854 3.406 9.238a1.716 1.716 0 0 0 1.651 1.651h16.514a1.716 1.716 0 0 0 1.651-1.651c0-4.384 1.611-6.382 3.406-9.238.23-.376.51-.778.723-1.1a16.359 16.359 0 0 0 2.476-8.65A16.539 16.539 0 0 0 42.68 17.908zm0 3.3a13.186 13.186 0 0 1 13.211 13.217 13 13 0 0 1-1.819 6.639c-.28.455-.558.868-.813 1.256-1.513 2.419-3.366 5.179-3.793 9.444H35.893c-.427-4.265-2.28-7.025-3.793-9.444-.348-.528-.708-1.1-.993-1.571a12.986 12.986 0 0 1-1.639-6.324A13.186 13.186 0 0 1 42.68 21.211zm4.774 6.58a1.663 1.663 0 0 0-.852.387l-8.257 6.606a1.652 1.652 0 0 0 .619 2.864l3.741 1.006-3.664 3.664a1.652 1.652 0 1 0 2.322 2.348l5.728-5.728a1.74 1.74 0 0 0-.748-2.761l-3.354-.872 5.677-4.541a1.652 1.652 0 0 0-1.213-2.967zm-12.36 29.756a1.653 1.653 0 1 0 .155 3.3h14.862a1.652 1.652 0 1 0 0-3.3zm3.3 6.606a1.653 1.653 0 1 0 .155 3.3h8.257a1.652 1.652 0 1 0 0-3.3z" transform="translate(-494 -1573) translate(501 1580) translate(8 8) translate(-8 -8)"/>
                <path d="M23.715 15.928s27.408-3.338 27.823 30.884-22.5 26.158-22.5 26.158 29.608 9.471 40.79-12.824-1.954-43.325-6.74-44.219S45.9 9.2 41.907 9.776s-18.192 6.152-18.192 6.152z" opacity="0.2" transform="translate(-494 -1573) translate(501 1580) translate(8 8) translate(-8 -8)"/>
            </g>
        </g>
    </g>
</svg>
