<svg xmlns="http://www.w3.org/2000/svg" id="prefix__noun_Arrow_18122" width="14.004" height="12.625" viewBox="0 0 14.004 12.625">
    <g id="prefix__Group_160" data-name="Group 160">
        <path id="prefix__Path_142" d="M27.934 46.022a.919.919 0 0 0 0-1.3l-3.783-3.782h9.941a.918.918 0 1 0 0-1.837h-9.945l3.87-3.87a.918.918 0 0 0-1.3-1.3L21.453 39.2a.9.9 0 0 0-.075.086.916.916 0 0 0-.021 1.457l.014.015 5.265 5.265a.918.918 0 0 0 1.298-.001z" data-name="Path 142" transform="translate(-21.007 -33.666)" style="fill:#061134"/>
    </g>
</svg>
