<svg xmlns="http://www.w3.org/2000/svg" width="100" height="100" viewBox="0 0 100 100">
    <defs>
        <style>
            .prefix__cls-2{fill:#ff5050}
        </style>
    </defs>
    <g id="prefix__Group_19" data-name="Group 19" transform="translate(-494 -1573)">
        <g id="prefix__Group_18" data-name="Group 18">
            <path id="prefix__Rectangle_8" d="M0 0H100V100H0z" data-name="Rectangle 8" transform="translate(494 1573)" style="fill:none"/>
        </g>
        <g id="prefix__Group_361" data-name="Group 361" transform="translate(-8.5)">
            <path id="prefix__Path_318" d="M74.5 57.3a12.1 12.1 0 0 0 1.9-.1v12.2c0 .1 0 .1-.1.2 0 .1-.1.1-.1.2s-.1.1-.1.2l-.2.2a.1.1 0 0 1-.1.1L56 90.4l-.3.3a.1.1 0 0 0-.1.1c-.1 0-.1.1-.2.1s-.1 0-.2.1c-.1 0-.1 0-.2.1H22.4A11.972 11.972 0 0 1 10.5 79V21.1A11.972 11.972 0 0 1 22.4 9h42.2a12.047 12.047 0 0 1 11.8 10.4 10.869 10.869 0 0 0-1.8-.1c-.8 0-1.5.1-2.2.1a7.943 7.943 0 0 0-7.8-6.5H22.4a7.962 7.962 0 0 0-7.9 8.1v57.9a8.091 8.091 0 0 0 7.9 8.1h30.2V73.9a6.957 6.957 0 0 1 7-7h12.9v-9.6zm-4.8 13.6H59.6a3.076 3.076 0 0 0-3 3v10.2zM91 38.3a16.5 16.5 0 1 1-16.5-16.5A16.516 16.516 0 0 1 91 38.3zm-3 0a13.5 13.5 0 1 0-13.5 13.5A13.572 13.572 0 0 0 88 38.3zM48.6 59.9a1.712 1.712 0 0 0 2.2 0l9.9-9.9-9.9-9.9a1.485 1.485 0 0 0-2.1 2.1l7.8 7.8-7.8 7.8a1.375 1.375 0 0 0-.1 2.1zM38.3 40.1a1.45 1.45 0 0 0-2.1 0L26.3 50l9.9 9.9a1.712 1.712 0 0 0 2.2 0 1.45 1.45 0 0 0 0-2.1L30.6 50l7.8-7.8a1.549 1.549 0 0 0-.1-2.1zm6.7-3.7l-6 26.5a1.491 1.491 0 0 0 1.1 1.8h.3a1.593 1.593 0 0 0 1.5-1.2l6-26.5a1.491 1.491 0 0 0-1.1-1.8 1.645 1.645 0 0 0-1.8 1.2z" class="prefix__cls-2" data-name="Path 318" transform="translate(502 1575)"/>
            <g id="prefix__Group_360" data-name="Group 360" transform="translate(548.079 1573.585)">
                <path id="prefix__Path_315" d="M28.412 46.421a1.008 1.008 0 0 1-.569-.175c-.784-.538-4.747-3.372-5.79-6.342a4.4 4.4 0 0 1 .383-4.082 3.956 3.956 0 0 1 3.237-1.622 4.29 4.29 0 0 1 2.746.994 4.333 4.333 0 0 1 2.744-1.005 3.958 3.958 0 0 1 3.237 1.623 4.4 4.4 0 0 1 .386 4.093c-1.074 3.066-5.324 6.017-5.8 6.343a1 1 0 0 1-.574.173zm-2.739-10.212a1.943 1.943 0 0 0-1.6.776 2.459 2.459 0 0 0-.127 2.254c.614 1.751 2.883 3.772 4.464 4.945 1.525-1.128 3.853-3.179 4.471-4.942a2.471 2.471 0 0 0-.128-2.266 1.944 1.944 0 0 0-1.594-.778 2.423 2.423 0 0 0-1.831.908l-.146.174a1.008 1.008 0 0 1-.768.356 1.006 1.006 0 0 1-.769-.362L27.5 37.1a2.359 2.359 0 0 0-1.827-.891z" class="prefix__cls-2" data-name="Path 315"/>
            </g>
        </g>
    </g>
</svg>
