<svg xmlns="http://www.w3.org/2000/svg" width="1200" height="600" viewBox="0 0 1200 600">
    <defs>
        <clipPath id="prefix__clip-path">
            <path id="prefix__Rectangle_78" fill="#ff5050" d="M80 0h1120v520a80 80 0 0 1-80 80H0V80A80 80 0 0 1 80 0z" data-name="Rectangle 78" transform="translate(360 240)"/>
        </clipPath>
    </defs>
    <g id="prefix__Mask_Group_2" clip-path="url(#prefix__clip-path)" data-name="Mask Group 2" transform="translate(-360 -240)">
        <g id="prefix__Group_496" data-name="Group 496" transform="translate(320.305 225.337)">
            <g id="prefix__Group_499" data-name="Group 499" opacity="0.2" transform="rotate(17 194.832 368.677)">
                <path id="prefix__Path_484" fill-rule="evenodd" d="M482.412 219.789l4.81 6.55c2.185 2.885 12.813 11.566 13.11 12.129-9.241 9.449-14.718 11.78-14.743 11.832-106.068 71.351-70.346 146.592-54.022 162.906a6.925 6.925 0 0 1 2 3.252 82.31 82.31 0 0 1 13.719 73.036 60.088 60.088 0 0 1 30.656 104.825h1.494a51.173 51.173 0 0 1 49.337 64.954l2.092-.049a43.136 43.136 0 0 1 34.1 16.624 23.555 23.555 0 0 1 30.412 31.406 43.561 43.561 0 0 1 21.128 13.7H.016S462.112 240.1 482.412 219.789zm-123.068 60a4.759 4.759 0 1 1-4.774 4.754 4.759 4.759 0 0 1 4.774-4.754zm28.071-3.847a4.753 4.753 0 1 1-4.767 4.747 4.753 4.753 0 0 1 4.767-4.747zm-4.379 15.692a4.756 4.756 0 1 1-4.76 4.75 4.763 4.763 0 0 1 4.76-4.75zm26.8-30.246a4.754 4.754 0 1 1-4.774 4.747 4.756 4.756 0 0 1 4.774-4.747zm-34.631-.409a4.753 4.753 0 1 1-4.76 4.746 4.754 4.754 0 0 1 4.76-4.746zM480.549 427.44a4.757 4.757 0 1 0-9.514-.021 4.757 4.757 0 0 0 9.514.021zm8.389 50.428A10.046 10.046 0 1 0 478.9 487.91a10 10 0 0 0 10.042-10.042zm-18.7-148.289a4.757 4.757 0 1 0-4.753 4.767 4.751 4.751 0 0 0 4.753-4.767zm3.093 52.52a4.757 4.757 0 1 0-4.774 4.767 4.766 4.766 0 0 0 4.774-4.767zm.576 64.473a4.771 4.771 0 1 0-4.774 4.754 4.8 4.8 0 0 0 4.774-4.754zm-10.091-24.908a4.8 4.8 0 0 0-4.775-4.753 4.757 4.757 0 1 0 4.775 4.753zm2.939-18.368a4.757 4.757 0 1 0-4.753 4.754 4.757 4.757 0 0 0 4.753-4.754zm-18.424-17.757a4.771 4.771 0 1 0-4.747 4.754 4.77 4.77 0 0 0 4.747-4.754zm10.029-22.37a10.053 10.053 0 1 0-10.057 10.053 10.031 10.031 0 0 0 10.057-10.053zm-122.877-87.7a4.756 4.756 0 1 1-4.771 4.75 4.758 4.758 0 0 1 4.771-4.75zm17.792 18.389a4.756 4.756 0 1 1-4.743 4.761 4.759 4.759 0 0 1 4.743-4.761z" data-name="Path 484"/>
                <path id="prefix__Path_485" d="M18.086 68.124l18.293 7.585a105.652 105.652 0 0 0-4.92 16.037l-.695 3.154 26.225 26.24 3.154-.678a105.655 105.655 0 0 0 16.038-4.92l7.585 18.293a1.183 1.183 0 0 0 1.94.378l11.464-11.464a18.923 18.923 0 0 0 5.519-14.334l-.41-7.364c21.226-15.675 42.7-43.161 48.554-91.132a7.885 7.885 0 0 0-8.847-8.894c-47.955 5.9-75.457 27.391-91.132 48.554l-7.348-.379a18.923 18.923 0 0 0-14.334 5.44L17.707 66.105a1.183 1.183 0 0 0 .378 2.018zm73.548-27.943a14.192 14.192 0 1 1-4.174 10.053 14.193 14.193 0 0 1 4.174-10.053z" data-name="Path 485" transform="translate(454.66 114.422)"/>
            </g>
            <g id="prefix__Group_498" fill="#fff" data-name="Group 498">
                <path id="prefix__Path_484-2" fill-rule="evenodd" d="M.016 122.292a43.244 43.244 0 0 1 33.314 42.089 43.806 43.806 0 0 1-1.032 9.454c1.341-.128 2.727-.2 4.111-.2a43.251 43.251 0 0 1 43.273 43.252 42.852 42.852 0 0 1-.642 7.488 23.588 23.588 0 0 1 31.017 5.793 23.556 23.556 0 0 1 30.627 32.81 27.662 27.662 0 0 1 3.778-.244 31.639 31.639 0 0 1 6.665.705 61.163 61.163 0 0 1 87.825 28.379 82.2 82.2 0 0 1 89.24 17.3c22.253 16.923 133.92-69.026 154.221-89.333l4.81 6.55c2.185 2.885 12.813 11.566 13.11 12.129-9.241 9.449-14.718 11.78-14.743 11.832-106.068 71.351-70.346 146.592-54.022 162.906a6.925 6.925 0 0 1 2 3.252 82.31 82.31 0 0 1 13.719 73.036 60.088 60.088 0 0 1 30.656 104.825h1.494a51.173 51.173 0 0 1 49.337 64.954l2.092-.049a43.136 43.136 0 0 1 34.1 16.624 23.555 23.555 0 0 1 30.412 31.406 43.561 43.561 0 0 1 21.128 13.7H.016V122.292zm359.328 157.495a4.759 4.759 0 1 1-4.774 4.754 4.759 4.759 0 0 1 4.774-4.754zm28.071-3.847a4.753 4.753 0 1 1-4.767 4.747 4.753 4.753 0 0 1 4.767-4.747zm-4.379 15.692a4.756 4.756 0 1 1-4.76 4.75 4.763 4.763 0 0 1 4.76-4.75zm26.8-30.246a4.754 4.754 0 1 1-4.774 4.747 4.756 4.756 0 0 1 4.774-4.747zm-34.631-.409a4.753 4.753 0 1 1-4.76 4.746 4.754 4.754 0 0 1 4.76-4.746zm-135.39-6.314a10.044 10.044 0 1 1-10.067 10.032 10.036 10.036 0 0 1 10.067-10.032zm95.863 47.12a4.757 4.757 0 1 0-4.771 4.76 4.773 4.773 0 0 0 4.771-4.76zM480.549 427.44a4.757 4.757 0 1 0-9.514-.021 4.757 4.757 0 0 0 9.514.021zm8.389 50.428A10.046 10.046 0 1 0 478.9 487.91a10 10 0 0 0 10.042-10.042zm-18.7-148.289a4.757 4.757 0 1 0-4.753 4.767 4.751 4.751 0 0 0 4.753-4.767zm3.093 52.52a4.757 4.757 0 1 0-4.774 4.767 4.766 4.766 0 0 0 4.774-4.767zm.576 64.473a4.771 4.771 0 1 0-4.774 4.754 4.8 4.8 0 0 0 4.774-4.754zm-10.091-24.908a4.8 4.8 0 0 0-4.775-4.753 4.757 4.757 0 1 0 4.775 4.753zm2.939-18.368a4.757 4.757 0 1 0-4.753 4.754 4.757 4.757 0 0 0 4.753-4.754zm-18.424-17.757a4.771 4.771 0 1 0-4.747 4.754 4.77 4.77 0 0 0 4.747-4.754zm10.029-22.37a10.053 10.053 0 1 0-10.057 10.053 10.031 10.031 0 0 0 10.057-10.053zm-166.187-94.794a4.755 4.755 0 1 1-4.746 4.75 4.764 4.764 0 0 1 4.746-4.75zm24.93 10.07a4.754 4.754 0 1 1-4.757 4.747 4.763 4.763 0 0 1 4.757-4.747zm18.386-2.971a4.756 4.756 0 1 1-4.771 4.75 4.758 4.758 0 0 1 4.771-4.75zm17.792 18.389a4.756 4.756 0 1 1-4.743 4.761 4.759 4.759 0 0 1 4.743-4.761z" data-name="Path 484"/>
                <path id="prefix__Path_485-2" d="M18.086 68.124l18.293 7.585a105.652 105.652 0 0 0-4.92 16.037l-.695 3.154 26.225 26.24 3.154-.678a105.655 105.655 0 0 0 16.038-4.92l7.585 18.293a1.183 1.183 0 0 0 1.94.378l11.464-11.464a18.923 18.923 0 0 0 5.519-14.334l-.41-7.364c21.226-15.675 42.7-43.161 48.554-91.132a7.885 7.885 0 0 0-8.847-8.894c-47.955 5.9-75.457 27.391-91.132 48.554l-7.348-.379a18.923 18.923 0 0 0-14.334 5.44L17.707 66.105a1.183 1.183 0 0 0 .378 2.018zm73.548-27.943a14.192 14.192 0 1 1-4.174 10.053 14.193 14.193 0 0 1 4.174-10.053z" data-name="Path 485" transform="translate(454.66 114.422)"/>
            </g>
        </g>
    </g>
</svg>
