<svg xmlns="http://www.w3.org/2000/svg" width="102" height="102" viewBox="0 0 102 102">
  <defs>
    <style>
      .cls-1 {
        opacity: 0.15;
      }

      .cls-2 {
        fill: none;
      }

      .cls-3 {
        fill: #ff5050;
      }
    </style>
  </defs>
  <g id="Group_584" data-name="Group 584" class="cls-1" transform="translate(-672.512 -1072.512)">
    <rect id="Rectangle_108" data-name="Rectangle 108" class="cls-2" width="102" height="102" transform="translate(672.512 1072.512)"/>
    <path id="Path_508" data-name="Path 508" class="cls-3" d="M85.79,20.491h0A5.392,5.392,0,0,1,81.4,25.8,28.006,28.006,0,0,0,70.145,30.83c-5.032,3.568-7.594,7.96-7.594,13.175,0,4.758,4.483,4.575,8.051,4.209A15.044,15.044,0,0,1,84.967,71.271c-6.4,10.43-22.508,9.973-29.827,1.006-10.522-12.9-6.862-36.323,4.849-47.3a37.985,37.985,0,0,1,19.58-9.79A5.346,5.346,0,0,1,85.79,20.491Zm-43.917,0h0A5.392,5.392,0,0,1,37.481,25.8,28.006,28.006,0,0,0,26.227,30.83C21.2,34.4,18.633,38.79,18.633,44.005c0,4.758,4.483,4.575,8.051,4.209A15.044,15.044,0,0,1,41.05,71.271c-6.4,10.43-22.508,9.973-29.827,1.006C.7,59.285,4.36,35.862,16.072,24.883a37.985,37.985,0,0,1,19.58-9.79A5.46,5.46,0,0,1,41.873,20.491Z" transform="translate(676.83 1076.921)"/>
  </g>
</svg>
