<svg xmlns="http://www.w3.org/2000/svg" width="100" height="100" viewBox="0 0 100 100">
    <g id="prefix__Group_19" data-name="Group 19" transform="translate(-494 -1573)">
        <g id="prefix__Group_18" data-name="Group 18">
            <path id="prefix__Rectangle_8" d="M0 0H100V100H0z" data-name="Rectangle 8" transform="translate(494 1573)" style="fill:none"/>
            <path id="prefix__Path_26" d="M85.736 15.456H14.264a3.523 3.523 0 0 0-3.518 3.519V68.08a3.522 3.522 0 0 0 3.518 3.52H43.8l-.588 6.328c-.026.371-.43 3.619-6.574 3.619a1.5 1.5 0 0 0 0 3h27.726a1.5 1.5 0 0 0 0-3c-6.145 0-6.549-3.248-6.578-3.684L57.2 71.6h28.537a3.522 3.522 0 0 0 3.518-3.518V18.974a3.523 3.523 0 0 0-3.519-3.518zM44.719 81.545a6.333 6.333 0 0 0 1.484-3.4l.609-6.543h7.375l.6 6.453a6.388 6.388 0 0 0 1.5 3.494H44.719zM86.254 68.08a.519.519 0 0 1-.518.518H14.264a.519.519 0 0 1-.518-.518V18.974a.519.519 0 0 1 .518-.519h71.472a.519.519 0 0 1 .518.519zm-13.8-39.322a1.467 1.467 0 0 0-.092-.552 1.743 1.743 0 0 0-.078-.189v-.007a1.478 1.478 0 0 0-1.666-.823l-10.737 2.331a1.5 1.5 0 0 0 .637 2.931l6.7-1.455-12.925 16.114-11.315-7.331a1.5 1.5 0 0 0-1.9.224L26.749 55.02a1.5 1.5 0 0 0 1.085 2.535 1.485 1.485 0 0 0 1.085-.465l13.47-14.12L53.8 50.363a1.5 1.5 0 0 0 1.984-.32l14.068-17.538.822 7.419a1.5 1.5 0 0 0 1.488 1.335 1.576 1.576 0 0 0 .168-.009 1.5 1.5 0 0 0 1.326-1.656z" data-name="Path 26" transform="translate(494.254 1572.544)" style="fill:#ff5050"/>
            <path id="prefix__Rectangle_17" d="M0 0H24V53H0z" data-name="Rectangle 17" transform="translate(507 1589)" style="opacity:.2;fill:#ff5050"/>
        </g>
    </g>
</svg>
