<svg xmlns="http://www.w3.org/2000/svg" width="21.102" height="19.024" viewBox="0 0 21.102 19.024">
    <g id="prefix__noun_Arrow_18122">
        <g id="prefix__Group_160" data-name="Group 160">
            <path id="prefix__Path_142" d="M31.67 52.285a1.384 1.384 0 0 1 0-1.957l5.7-5.7H22.391a1.384 1.384 0 1 1 0-2.768h14.987l-5.831-5.831a1.384 1.384 0 1 1 1.953-1.958L41.437 42a1.36 1.36 0 0 1 .113.129 1.38 1.38 0 0 1 .031 2.2l-.02.023-7.934 7.933a1.384 1.384 0 0 1-1.957 0z" data-name="Path 142" transform="translate(-21.007 -33.666)" style="fill:#ff5050"/>
        </g>
    </g>
</svg>
