<?xml version="1.0" encoding="utf-8"?>
<!-- Generator: Adobe Illustrator 24.2.0, SVG Export Plug-In . SVG Version: 6.00 Build 0)  -->
<svg version="1.1" id="Layer_1" xmlns="http://www.w3.org/2000/svg" xmlns:xlink="http://www.w3.org/1999/xlink" x="0px" y="0px"
	 viewBox="0 0 100 100" style="enable-background:new 0 0 100 100;" xml:space="preserve">
<style type="text/css">
	.st0{fill:none;}
	.st1{fill:#FF5050;}
</style>
<g id="Overall_product_management" transform="translate(-494 -1573)">
	<g id="Group_18">
		<rect id="Rectangle_8" x="494" y="1573" class="st0" width="100" height="100"/>
		<g id="Group" transform="translate(503.114 1583.2)">
			<path id="Compound_Path" class="st1" d="M53.5,1.8c-5.9,0-11.5,2.4-15.6,6.7C25,9.4,14.8,19.8,14.6,32.1l-7.5,19
				c-0.5,1.2,0.1,2.6,1.3,3.1c0.2,0.1,0.4,0.1,0.7,0.2l5.7,0.6l0.5,5.8c0.3,3.9,3.7,6.8,7.6,6.5l3.6-0.2v8.9c0,1.3,1.1,2.4,2.4,2.4
				h31.7c1.3,0,2.4-1.1,2.4-2.4c0,0,0,0,0,0V60.3c-0.1-2-0.1-3.9,0.2-5.9c0.1-0.6,0.1-1.3,0.2-1.8c0.2-1.9,0.4-4.3,0.7-6.7l0.4-3.6
				c10.4-6,13.9-19.3,7.9-29.7C68.3,5.9,61.2,1.8,53.5,1.8z M59.1,45.3c-0.3,2.5-0.6,4.9-0.7,7L58.2,54c-0.2,2.2-0.3,4.4-0.2,6.6
				v12.8H31.1v-9c0-1.3-1.1-2.4-2.4-2.4c-0.1,0-0.1,0-0.2,0l-6.2,0.4c-1.3,0.1-2.4-0.9-2.5-2.2c0,0,0,0,0,0l-0.6-7.8
				c-0.1-1.2-1-2.1-2.1-2.2l-4.5-0.4l6.5-16.6c0.1-0.3,0.2-0.6,0.2-0.9c0-8.5,6.3-16.1,14.7-18.5c-5.4,10.7-1.1,23.7,9.6,29
				c4.8,2.4,10.4,3,15.7,1.5L59.1,45.3z M71.2,23.1c0,9.7-7.8,17.5-17.5,17.5s-17.5-7.8-17.5-17.5S44,5.6,53.7,5.6
				S71.2,13.5,71.2,23.1z"/>
			<path id="Path" class="st1" d="M60.6,22.6h-5.8v-8.3c0-1.3-1-2.4-2.3-2.4c-1.3,0-2.4,1-2.4,2.3c0,0,0,0.1,0,0.1V25
				c0,1.3,1.1,2.4,2.4,2.4h8.2c1.3,0,2.4-1,2.4-2.3C63.1,23.7,62,22.7,60.6,22.6C60.7,22.6,60.6,22.6,60.6,22.6L60.6,22.6z"/>
		</g>
	</g>
</g>
</svg>
