<svg xmlns="http://www.w3.org/2000/svg" width="100" height="100" viewBox="0 0 100 100">
    <defs>
        <style>
            .cls-3{fill:#ff5050;opacity:.2}
        </style>
    </defs>
    <g id="Group_19" transform="translate(-494 -1573)">
        <g id="Group_18">
            <path id="Rectangle_8" fill="none" d="M0 0H100V100H0z" transform="translate(494 1573)"/>
            <g id="noun_Vector_3109550" transform="translate(504.821 1587.886)">
                <path id="Path_530" fill="#ff5050" d="M64.7 36.174L40.3 1.719c-.018-.026-.051-.034-.071-.059a1.381 1.381 0 0 0-2.2 0c-.02.025-.053.033-.071.059l-24.4 34.454a1.433 1.433 0 0 0 .023 1.69l11.485 15.326a8.628 8.628 0 0 0-6.038 8.219v7.178a1.436 1.436 0 0 0 1.436 1.436h37.325a1.435 1.435 0 0 0 1.435-1.436v-7.178a8.627 8.627 0 0 0-6.038-8.219l11.493-15.325a1.435 1.435 0 0 0 .021-1.69zm-25.574-6.348a5.743 5.743 0 1 1-5.743 5.743 5.75 5.75 0 0 1 5.743-5.743zm17.227 31.582v5.743H21.9v-5.743a5.75 5.75 0 0 1 5.743-5.743h22.97a5.75 5.75 0 0 1 5.74 5.743zm-6.46-8.614H28.359L16.5 36.98 37.691 7.059v20.025a8.608 8.608 0 0 0 1.436 17.1 8.812 8.812 0 0 0 4.885-1.523 8.476 8.476 0 0 0 3.728-7.091 8.619 8.619 0 0 0-7.178-8.484V7.059L61.756 36.98z" transform="translate(0)"/>
                <path id="Path_531" d="M39.126 3.647c-.646 9.676 0 24.225 0 24.225s7.26 2.937 7.7 6.471-3.335 8.009-5.485 7.812-2.216 0-2.216 0v11.994h12.2l12.12-16.718z" class="cls-3"/>
                <path id="Path_532" d="M39.126 54.149V68.7H57.7s1.474-13.257-6.19-15.529-12.384.978-12.384.978z" class="cls-3"/>
            </g>
        </g>
    </g>
</svg>
