<svg xmlns="http://www.w3.org/2000/svg" width="100" height="100" viewBox="0 0 100 100">
    <g id="prefix__Group_236" data-name="Group 236" transform="translate(-494 -1573)">
        <g id="prefix__Group_18" data-name="Group 18">
            <path id="prefix__Rectangle_8" d="M0 0H100V100H0z" data-name="Rectangle 8" transform="translate(494 1573)" style="fill:none"/>
            <path id="prefix__Path_272" d="M50 52.371a12.157 12.157 0 1 0-12.162-12.154A12.171 12.171 0 0 0 50 52.371zm0-19.576a7.42 7.42 0 1 1-7.425 7.422A7.43 7.43 0 0 1 50 32.795zm44.993 29.724a2.368 2.368 0 0 1-2.185 2.539c-.06 0-.12.007-.181.007a2.367 2.367 0 0 1-2.358-2.19c-.394-5.232-2.544-11.237-15.8-11.237-6.07 0-10.3 1.239-12.826 3.762 8.051 2.588 12.471 8.318 13.136 17.161a2.369 2.369 0 1 1-4.724.355c-.5-6.7-3.239-14.382-20.059-14.382s-19.557 7.689-20.054 14.389a2.369 2.369 0 0 1-2.359 2.193c-.06 0-.118 0-.178-.007a2.368 2.368 0 0 1-2.187-2.536c.655-8.853 5.073-14.586 13.13-17.175-2.528-2.52-6.754-3.759-12.823-3.761-13.261 0-15.407 6.007-15.8 11.239A2.369 2.369 0 0 1 7.37 65.07c-.06 0-.118 0-.178-.007A2.368 2.368 0 0 1 5 62.526C5.775 52.157 12.678 46.9 25.526 46.9c8.9 0 14.794 2.416 17.962 7.345a47.523 47.523 0 0 1 13.02 0c3.167-4.932 9.061-7.345 17.963-7.345 12.839 0 19.743 5.254 20.522 15.619zm-20.521-17.04a10.3 10.3 0 1 0-10.3-10.293 10.307 10.307 0 0 0 10.3 10.293zm0-15.858a5.561 5.561 0 1 1-5.563 5.564 5.57 5.57 0 0 1 5.563-5.564zM25.527 45.479a10.3 10.3 0 1 0-10.3-10.293 10.307 10.307 0 0 0 10.3 10.293zm0-15.858a5.561 5.561 0 1 1-5.563 5.564 5.569 5.569 0 0 1 5.563-5.564z" data-name="Path 272" transform="translate(494.002 1573.115)" style="fill:#ff5050"/>
        </g>
    </g>
</svg>
