<svg xmlns="http://www.w3.org/2000/svg" width="100" height="100" viewBox="0 0 100 100">
    <g id="prefix__Group_19" data-name="Group 19" transform="translate(-494 -1573)">
        <g id="prefix__Group_18" data-name="Group 18">
            <path id="prefix__Rectangle_8" d="M0 0H100V100H0z" data-name="Rectangle 8" transform="translate(494 1573)" style="fill:none"/>
            <g id="prefix__Group_75" data-name="Group 75" transform="translate(474.001 1524)">
                <path id="prefix__Path_47" d="M52.349 128.356a1.731 1.731 0 0 1-3.458 0V114.21a19.2 19.2 0 0 1 2.515-9.431 15.022 15.022 0 0 0-8.8-3.144 14.694 14.694 0 0 0-14.46 14.775v11.945a1.574 1.574 0 1 1-3.144 0V116.41A17.645 17.645 0 0 1 42.6 98.492a18.82 18.82 0 0 1 10.688 3.458 19.55 19.55 0 0 1 16.346-8.173A20.181 20.181 0 0 1 84.1 99.75a13.672 13.672 0 0 1 1.886 2.2 17.15 17.15 0 0 1 10.374-3.458 17.91 17.91 0 0 1 17.918 17.918v11.945a1.731 1.731 0 0 1-3.458 0V116.41a14.473 14.473 0 0 0-23.262-11.631 19.2 19.2 0 0 1 2.515 9.431v14.146a1.731 1.731 0 0 1-3.458 0V114.21a17.133 17.133 0 1 0-34.264 0zM69.638 68a12.418 12.418 0 1 1-12.574 12.574A12.55 12.55 0 0 1 69.638 68zm0 3.458a9.116 9.116 0 1 0 9.116 9.116 9.123 9.123 0 0 0-9.116-9.116zm26.72 5.03a10.846 10.846 0 1 1-11 11 10.934 10.934 0 0 1 11-11zm0 3.458a7.389 7.389 0 1 0 7.542 7.544 7.447 7.447 0 0 0-7.542-7.545zM42.6 76.488a10.846 10.846 0 1 1 0 21.69 10.846 10.846 0 0 1 0-21.69zm0 3.458a7.389 7.389 0 1 0 0 14.775 7.389 7.389 0 1 0 0-14.775z" data-name="Path 47" style="stroke:#ff5050;fill:#ff5050"/>
                <path id="prefix__Path_53" d="M70.679 71.3s-6.616 14.768 0 19.921-5.008 5.345-5.008 5.345v33.4H50.34l.538-20.225 4.555-7.386 4.117-5.321 6.121-1.443 2.652-1.27.84-2.013-6.276-4.043-4.911-8.333 3.884-7.668 3.812-.963z" data-name="Path 53" style="opacity:.2;fill:#ff5050"/>
            </g>
        </g>
    </g>
</svg>
