<svg xmlns="http://www.w3.org/2000/svg" width="132.205" height="37.706" viewBox="0 0 132.205 37.706">
    <defs>
        <style>
            .prefix__cls-1{fill:#fff}
        </style>
    </defs>
    <g id="prefix__Propl_-_logo" data-name="Propl - logo" transform="translate(-503.752 -381.095)">
        <g id="prefix__Group_552" data-name="Group 552" transform="translate(503.752 393.839)">
            <path id="prefix__Rectangle_93" d="M0 0H1.979V23.958H0z" class="prefix__cls-1" data-name="Rectangle 93"/>
        </g>
        <g id="prefix__Group_553" data-name="Group 553" transform="translate(504.622 393.725)">
            <path id="prefix__Path_497" d="M519.82 483.459c-.563 0-1.173-.008-1.836-.016l-.822-.01c-1.264-.014-2.458-.006-3.51 0-1.511.011-2.816.02-3.743-.043l.133-1.974c.854.058 2.125.049 3.6.039 1.062-.008 2.265-.016 3.546 0l.826.01c2.837.037 4.711.061 5.645-.514a5.091 5.091 0 0 0 1.251-1.069 5.283 5.283 0 0 0 .813-3.879 4.161 4.161 0 0 0-1.418-2.272 4.844 4.844 0 0 0-2.974-1.293l-10.781.11-.02-1.979 10.849-.111h.033a6.859 6.859 0 0 1 4.257 1.837 6.045 6.045 0 0 1 2.011 3.412c.085.574.422 3.52-1.277 5.472a7.131 7.131 0 0 1-1.707 1.455c-1.141.7-2.639.825-4.876.825z" class="prefix__cls-1" data-name="Path 497" transform="translate(-509.908 -470.457)"/>
        </g>
        <g id="prefix__Group_554" data-name="Group 554" transform="translate(528.521 393.76)">
            <path id="prefix__Rectangle_94" d="M0 0H1.979V24.106H0z" class="prefix__cls-1" data-name="Rectangle 94"/>
        </g>
        <g id="prefix__Group_555" data-name="Group 555" transform="translate(529.391 393.646)">
            <path id="prefix__Path_498" d="M695.075 482.9c-.563 0-1.173-.008-1.836-.017l-.822-.01c-1.263-.014-2.456-.006-3.509 0-1.511.011-2.817.02-3.745-.043l.133-1.974c.854.058 2.126.049 3.6.039 1.061-.007 2.264-.016 3.545 0l.826.01c2.837.037 4.711.061 5.646-.514a5.1 5.1 0 0 0 1.251-1.069 5.284 5.284 0 0 0 .813-3.879 4.161 4.161 0 0 0-1.418-2.272 4.843 4.843 0 0 0-2.974-1.293l-10.781.11-.02-1.979 10.849-.111h.033a6.858 6.858 0 0 1 4.256 1.837 6.044 6.044 0 0 1 2.011 3.412c.085.574.422 3.52-1.277 5.472a7.14 7.14 0 0 1-1.707 1.455c-1.139.701-2.637.826-4.874.826z" class="prefix__cls-1" data-name="Path 498" transform="translate(-685.163 -469.898)"/>
        </g>
        <g id="prefix__Group_556" data-name="Group 556" transform="translate(592.535 393.806)">
            <path id="prefix__Rectangle_95" d="M0 0H1.979V24.059H0z" class="prefix__cls-1" data-name="Rectangle 95"/>
        </g>
        <g id="prefix__Group_557" data-name="Group 557" transform="translate(593.405 393.692)">
            <path id="prefix__Path_499" d="M1148 483.226c-.563 0-1.172-.008-1.834-.016l-.824-.01c-1.264-.014-2.457-.006-3.511 0-1.511.011-2.816.02-3.743-.043l.133-1.974c.854.058 2.125.049 3.6.039 1.062-.008 2.265-.016 3.546 0l.828.01c2.835.037 4.709.061 5.643-.514a5.1 5.1 0 0 0 1.251-1.069 5.284 5.284 0 0 0 .813-3.879 4.161 4.161 0 0 0-1.418-2.272 4.843 4.843 0 0 0-2.974-1.293l-10.781.11-.02-1.979 10.849-.111h.033a6.859 6.859 0 0 1 4.256 1.837 6.044 6.044 0 0 1 2.011 3.412c.085.574.422 3.52-1.277 5.472a7.134 7.134 0 0 1-1.706 1.455c-1.135.699-2.633.825-4.875.825z" class="prefix__cls-1" data-name="Path 499" transform="translate(-1138.093 -470.224)"/>
        </g>
        <g id="prefix__Group_558" data-name="Group 558" transform="translate(538.893 405.386)">
            <path id="prefix__Rectangle_96" d="M0 0H1.979V13.16H0z" class="prefix__cls-1" data-name="Rectangle 96" transform="rotate(-29.638 1.848 .489)"/>
        </g>
        <g id="prefix__Group_559" data-name="Group 559" transform="translate(617.239 393.569)">
            <path id="prefix__Rectangle_97" d="M0 0H1.979V24.201H0z" class="prefix__cls-1" data-name="Rectangle 97"/>
        </g>
        <g id="prefix__Group_560" data-name="Group 560" transform="translate(618.077 415.775)">
            <path id="prefix__Rectangle_98" d="M0 0H17.88V1.979H0z" class="prefix__cls-1" data-name="Rectangle 98"/>
        </g>
        <g id="prefix__Group_561" data-name="Group 561" transform="translate(553.134 388.577)">
            <path id="prefix__Path_500" fill="#ff5050" d="M881.873 441.641a14.146 14.146 0 0 1 1.226 5.782 13.832 13.832 0 1 1-17.967-13.389 15.29 15.29 0 1 0 16.741 7.607z" data-name="Path 500" transform="translate(-853.153 -434.034)"/>
        </g>
        <g id="prefix__Group_562" data-name="Group 562" transform="translate(562.836 381.095)">
            <path id="prefix__Path_501" d="M944.668 522.511a2.361 2.361 0 0 1-2.514.562c-1.459-.71-1.006-3.136-1.006-3.136a4 4 0 0 0-.805.694 3.635 3.635 0 0 0-.671 2.294 22.7 22.7 0 0 0 .526 2.919c.112.46.434.329.434.329l1.9-.694a3.516 3.516 0 0 0 2.633-3.343z" class="prefix__cls-1" data-name="Path 501" transform="translate(-937.145 -500.314)"/>
            <path id="prefix__Path_502" d="M939.224 391.965a14.56 14.56 0 0 0 .184-10.15c-.237-.96-1-.684-1-.684a21.971 21.971 0 0 0-4.339 1.657c-5.127 2.656-6.784 9.966-6.784 9.966a4.329 4.329 0 0 0-3.083.6 3.793 3.793 0 0 0-1.472 1.985s-.782 2.81-.881 3.113-.017.418-.017.418c.13.129.366-.059.366-.059a11.552 11.552 0 0 1 1.131-.644 7.228 7.228 0 0 1 3.185-.789s-.016 1.114-.02 1.551a.68.68 0 0 0 .381.608s2.942 1.5 3.326 1.795a.717.717 0 0 0 .822-.036l1.2-.812a4.476 4.476 0 0 1 .759 1.657 11.122 11.122 0 0 1 .4 2.626c-.02.21 0 .417.141.44s.453-.342.453-.342c.907-.927 2.209-2.6 2.209-2.6a3.867 3.867 0 0 0-.447-5.009 17.146 17.146 0 0 0 3.486-5.291zm-4.378-.881a2.189 2.189 0 1 1 2.189-2.189 2.189 2.189 0 0 1-2.189 2.19z" class="prefix__cls-1" data-name="Path 502" transform="translate(-921.801 -381.095)"/>
        </g>
    </g>
</svg>
