<svg xmlns="http://www.w3.org/2000/svg" width="100" height="100" viewBox="0 0 100 100">
    <defs>
        <style>
            .prefix__cls-2{fill:#ff5050;stroke:#ff5050;stroke-width:2px}
        </style>
    </defs>
    <g id="prefix__Group_240" data-name="Group 240" transform="translate(-494 -1573)">
        <g id="prefix__Group_18" data-name="Group 18">
            <path id="prefix__Rectangle_8" d="M0 0H100V100H0z" data-name="Rectangle 8" transform="translate(494 1573)" style="fill:none"/>
            <g id="prefix__Group_345" data-name="Group 345" transform="translate(490.563 1546.443)">
                <path id="prefix__Path_280" d="M295.265 63.644l-5.989-13.254a15.1 15.1 0 0 0-13.743-8.833 14.828 14.828 0 0 0-6.149 1.327l-13.255 5.988a.49.49 0 0 0-.245.648l4.289 9.488a.49.49 0 0 0 .908-.04 5.516 5.516 0 1 1 3.126 6.915.49.49 0 0 0-.631.655l4.289 9.487a.49.49 0 0 0 .648.244L277 72.431a6.43 6.43 0 0 0 .435 4.037 6.514 6.514 0 0 0 5.922 3.82 6.5 6.5 0 0 0 3.168-12.161l8.493-3.836a.49.49 0 0 0 .245-.648zm-10.131 4.038a.49.49 0 0 0 .04.909 5.514 5.514 0 0 1-1.814 10.718 5.532 5.532 0 0 1-5.029-3.245 5.467 5.467 0 0 1-.087-4.343.49.49 0 0 0-.656-.63l-9.031 4.084-3.64-8.05a6.493 6.493 0 1 0-4.3-9.51l-3.64-8.052 12.809-5.787a13.857 13.857 0 0 1 5.745-1.24 14.117 14.117 0 0 1 12.85 8.257l5.788 12.807z" class="prefix__cls-2" data-name="Path 280" transform="translate(-201.988)"/>
                <path id="prefix__Path_281" d="M73.1 137.254H62.688a.49.49 0 0 0-.337.845 5.51 5.51 0 1 1-7.592 0 .49.49 0 0 0-.337-.845H44.5v-8.827a6.492 6.492 0 1 0 0-10.449V108.7v-.04a.49.49 0 0 0-.49-.49H29.472a15.051 15.051 0 0 0-15.035 15.03v29.085a15.05 15.05 0 0 0 15.035 15.035h29.086a15.048 15.048 0 0 0 15.029-15.032v-14.545a.49.49 0 0 0-.487-.489zM15.417 123.2a14.07 14.07 0 0 1 14.055-14.053h14.052v9.913a.49.49 0 0 0 .844.338 5.51 5.51 0 1 1 0 7.6.49.49 0 0 0-.844.339v9.911H34.7a6.415 6.415 0 0 0 1.261-3.6q.005-.132.005-.264a6.493 6.493 0 0 0-12.977-.327q-.008.166-.008.334a6.427 6.427 0 0 0 1.266 3.856h-8.83zm28.106 43.14H29.471a14.069 14.069 0 0 1-14.055-14.052v-14.055h9.924a.49.49 0 0 0 .337-.845 5.466 5.466 0 0 1-1.721-4c0-.093 0-.186.007-.278a5.513 5.513 0 0 1 11.019.284v.1a5.462 5.462 0 0 1-1.718 3.889.49.49 0 0 0 .337.845h9.924v8.828a6.43 6.43 0 0 0-3.856-1.268h-.011a6.493 6.493 0 0 0 0 12.985c.09 0 .179 0 .268-.005a6.427 6.427 0 0 0 3.6-1.262zm15.035 0H44.5v-9.921a.49.49 0 0 0-.845-.337 5.468 5.468 0 0 1-3.715 1.711c-.091 0-.183.007-.276.007a5.513 5.513 0 1 1 3.991-9.307.49.49 0 0 0 .845-.338v-9.922h8.831a6.432 6.432 0 0 0-1.27 3.864 6.491 6.491 0 1 0 12.982 0 6.433 6.433 0 0 0-1.271-3.864h8.832v14.055a14.067 14.067 0 0 1-14.046 14.052z" class="prefix__cls-2" data-name="Path 281" transform="translate(0 -55.736)"/>
            </g>
        </g>
    </g>
</svg>
