<svg xmlns="http://www.w3.org/2000/svg" width="100" height="100" viewBox="0 0 100 100">
    <defs>
        <style>
            .prefix__cls-2{fill:#ff5050}
        </style>
    </defs>
    <g id="prefix__Group_225" data-name="Group 225" transform="translate(-494 -1573)">
        <g id="prefix__Group_18" data-name="Group 18">
            <path id="prefix__Rectangle_8" d="M0 0H100V100H0z" data-name="Rectangle 8" transform="translate(494 1573)" style="fill:none"/>
            <g id="prefix__Group_337" data-name="Group 337" transform="translate(489.938 1584.525)">
                <path id="prefix__Path_207" d="M56.31 46.4a2.083 2.083 0 0 0-2.11 2.11v6.726a2.11 2.11 0 0 0 4.22 0V48.51a2.083 2.083 0 0 0-2.11-2.11z" class="prefix__cls-2" data-name="Path 207" transform="translate(5.413 14.006)"/>
                <path id="prefix__Path_208" d="M48.4 48.51v9.5a2.11 2.11 0 1 0 4.22 0v-9.5a2.11 2.11 0 1 0-4.22 0z" class="prefix__cls-2" data-name="Path 208" transform="translate(3.564 14.006)"/>
                <path id="prefix__Path_209" d="M44.71 46.4a2.083 2.083 0 0 0-2.11 2.11v6.726a2.11 2.11 0 0 0 4.22 0V48.51a2.083 2.083 0 0 0-2.11-2.11z" class="prefix__cls-2" data-name="Path 209" transform="translate(1.715 14.006)"/>
                <path id="prefix__Path_210" d="M34.77 53.283a3.926 3.926 0 0 0 1.846 3.033 3.776 3.776 0 0 0 3.561.132 37.766 37.766 0 0 1 5.407-1.978 3.715 3.715 0 0 0 3.693 3.3h11.606a3.816 3.816 0 0 0 3.693-3.3 26.586 26.586 0 0 1 5.407 1.978 3.776 3.776 0 0 0 3.561-.132 3.612 3.612 0 0 0 1.846-3.033l.659-6.99a10.855 10.855 0 0 0-5.935-10.683V24.664A21.306 21.306 0 0 0 65.1 11.08l-5.8-6.726a5.827 5.827 0 0 0-8.572 0l-5.671 6.726a20.6 20.6 0 0 0-5.012 13.584v10.947a10.855 10.855 0 0 0-5.935 10.682zM42.287 39.3l.923-.4a2.045 2.045 0 0 0 1.19-1.971V24.664a17.053 17.053 0 0 1 3.954-10.814l5.8-6.726a1.238 1.238 0 0 1 .923-.4.982.982 0 0 1 .923.4l5.8 6.726a17.053 17.053 0 0 1 3.957 10.814v12.265a2.451 2.451 0 0 0 1.187 1.978l.923.4A6.671 6.671 0 0 1 71.7 45.9l-.659 6.462a36.669 36.669 0 0 0-8.441-2.508 1.95 1.95 0 0 0-1.714.528 2.061 2.061 0 0 0-.791 1.583v1.583H49.8v-1.584a1.88 1.88 0 0 0-.791-1.583 2.9 2.9 0 0 0-1.714-.528 38.71 38.71 0 0 0-8.441 2.506l-.659-6.33a7.157 7.157 0 0 1 4.092-6.729z" class="prefix__cls-2" data-name="Path 210" transform="translate(-1.005)"/>
            </g>
        </g>
    </g>
</svg>
