<svg xmlns="http://www.w3.org/2000/svg" width="100" height="100" viewBox="0 0 100 100">
    <defs>
        <style>
            .prefix__cls-2{fill:#ff5050}
        </style>
    </defs>
    <g id="prefix__Group_19" data-name="Group 19" transform="translate(-494 -1573)">
        <g id="prefix__Group_18" data-name="Group 18">
            <path id="prefix__Rectangle_8" d="M0 0H100V100H0z" data-name="Rectangle 8" transform="translate(494 1573)" style="fill:none"/>
            <g id="prefix__Group_272" data-name="Group 272" transform="translate(492.02 1583.501)">
                <path id="prefix__Path_207" d="M56.31 46.4a2.083 2.083 0 0 0-2.11 2.11v6.725a2.11 2.11 0 1 0 4.22 0V48.51a2.083 2.083 0 0 0-2.11-2.11z" class="prefix__cls-2" data-name="Path 207" transform="translate(5.411 13.999)"/>
                <path id="prefix__Path_208" d="M48.4 48.51V58a2.11 2.11 0 0 0 4.22 0v-9.49a2.11 2.11 0 0 0-4.22 0z" class="prefix__cls-2" data-name="Path 208" transform="translate(3.562 13.999)"/>
                <path id="prefix__Path_209" d="M44.71 46.4a2.083 2.083 0 0 0-2.11 2.11v6.725a2.11 2.11 0 0 0 4.22 0V48.51a2.083 2.083 0 0 0-2.11-2.11z" class="prefix__cls-2" data-name="Path 209" transform="translate(1.714 13.999)"/>
                <path id="prefix__Path_210" d="M34.77 53.278a3.926 3.926 0 0 0 1.846 3.033 3.775 3.775 0 0 0 3.56.132 37.762 37.762 0 0 1 5.407-1.978 3.715 3.715 0 0 0 3.692 3.3h11.6a3.815 3.815 0 0 0 3.692-3.3 26.583 26.583 0 0 1 5.407 1.978 3.775 3.775 0 0 0 3.56-.132 3.612 3.612 0 0 0 1.846-3.033l.659-6.989a10.854 10.854 0 0 0-5.934-10.681V24.662A21.3 21.3 0 0 0 65.1 11.079l-5.8-6.725a5.826 5.826 0 0 0-8.572 0l-5.67 6.725a20.6 20.6 0 0 0-5.011 13.583v10.945a10.854 10.854 0 0 0-5.937 10.682zM42.286 39.3l.923-.4a2.045 2.045 0 0 0 1.191-1.974V24.662a17.051 17.051 0 0 1 3.956-10.813l5.8-6.725a1.238 1.238 0 0 1 .923-.4.982.982 0 0 1 .923.4l5.8 6.725a17.051 17.051 0 0 1 3.956 10.813v12.264a2.451 2.451 0 0 0 1.188 1.974l.923.4a6.67 6.67 0 0 1 3.824 6.593l-.659 6.462a36.666 36.666 0 0 0-8.44-2.506 1.95 1.95 0 0 0-1.714.527 2.061 2.061 0 0 0-.791 1.582v1.582H49.8v-1.581a1.88 1.88 0 0 0-.791-1.582 2.9 2.9 0 0 0-1.714-.527 38.707 38.707 0 0 0-8.44 2.506l-.659-6.33a7.156 7.156 0 0 1 4.09-6.726z" class="prefix__cls-2" data-name="Path 210" transform="translate(-1.005)"/>
                <path id="prefix__Path_211" d="M51.753 33.038a7.317 7.317 0 0 0 7.253-7.253 7.432 7.432 0 0 0-7.253-7.385 7.317 7.317 0 0 0-7.253 7.253 7.432 7.432 0 0 0 7.253 7.385zm0-10.286a3.033 3.033 0 1 1-3.033 3.033 3.067 3.067 0 0 1 3.033-3.033z" class="prefix__cls-2" data-name="Path 211" transform="translate(2.319 5.075)"/>
            </g>
        </g>
    </g>
</svg>
