<svg xmlns="http://www.w3.org/2000/svg" width="100" height="100" viewBox="0 0 100 100">
    <defs>
        <style>
            .prefix__cls-2{fill:#ff5050}
        </style>
    </defs>
    <g id="prefix__Group_19" data-name="Group 19" transform="translate(-494 -1573)">
        <g id="prefix__Group_18" data-name="Group 18">
            <path id="prefix__Rectangle_8" d="M0 0H100V100H0z" data-name="Rectangle 8" transform="translate(494 1573)" style="fill:none"/>
            <g id="prefix__Group_272" data-name="Group 272" transform="translate(495.9 1575.526)">
                <path id="prefix__Path_206" d="M81.9 65.625l-8.922-10.352a1.3 1.3 0 0 0-.76-.475c-.19 0-7.882-2.089-14.435-3.8v3.229l7.882 2.089-17.473 4.655-17.473-4.653 7.881-2.089V51c-6.553 1.709-14.245 3.7-14.435 3.8a1.5 1.5 0 0 0-.76.475c-.19.19-8.927 10.351-8.927 10.351a1.449 1.449 0 0 0-.285 1.519 1.634 1.634 0 0 0 1.045 1.045l7.787 2.089v17.187a1.625 1.625 0 0 0 1.14 1.519l23.646 6.173c.095 0 .285.095.38.095a.571.571 0 0 0 .38-.095l23.646-6.173a1.54 1.54 0 0 0 1.14-1.519V70.278l7.787-2.089a1.316 1.316 0 0 0 1.045-1.045 1.524 1.524 0 0 0-.289-1.519zm-63.531.19l6.648-7.692 20.326 5.317-6.643 7.693zm28.3 25.735l-20.508-5.413v-15.1l12.82 3.324c.095 0 .285.095.38.095a1.354 1.354 0 0 0 1.14-.57l6.173-7.217V91.55zm23.646-5.318l-20.508 5.413V66.764l6.173 7.217a1.484 1.484 0 0 0 1.14.57.571.571 0 0 0 .38-.095l12.725-3.324v15.1zm-12.63-15.1l-6.644-7.692.57-.095 19.753-5.223 6.648 7.692z" class="prefix__cls-2" data-name="Path 206" transform="translate(0 -2.443)"/>
                <g id="prefix__Group_337" data-name="Group 337">
                    <path id="prefix__Path_207" d="M55.719 46.4a1.5 1.5 0 0 0-1.519 1.519v4.843a1.519 1.519 0 0 0 3.039 0v-4.843a1.5 1.5 0 0 0-1.52-1.519z" class="prefix__cls-2" data-name="Path 207" transform="translate(-2.019 -2.211)"/>
                    <path id="prefix__Path_208" d="M48.4 47.919v6.837a1.519 1.519 0 1 0 3.039 0v-6.837a1.519 1.519 0 1 0-3.039 0z" class="prefix__cls-2" data-name="Path 208" transform="translate(-1.727 -2.211)"/>
                    <path id="prefix__Path_209" d="M44.119 46.4a1.5 1.5 0 0 0-1.519 1.519v4.843a1.519 1.519 0 0 0 3.039 0v-4.843a1.5 1.5 0 0 0-1.52-1.519z" class="prefix__cls-2" data-name="Path 209" transform="translate(-1.435 -2.211)"/>
                    <path id="prefix__Path_210" d="M34.573 39.06a2.827 2.827 0 0 0 1.33 2.184 2.719 2.719 0 0 0 2.564.095 27.194 27.194 0 0 1 3.894-1.424 2.675 2.675 0 0 0 2.659 2.374h8.357a2.748 2.748 0 0 0 2.659-2.374 19.143 19.143 0 0 1 3.894 1.424 2.719 2.719 0 0 0 2.564-.095 2.6 2.6 0 0 0 1.33-2.184l.475-5.033a7.816 7.816 0 0 0-4.273-7.692v-7.882a15.342 15.342 0 0 0-3.609-9.781l-4.18-4.844a4.2 4.2 0 0 0-6.173 0L41.98 8.671a14.833 14.833 0 0 0-3.609 9.781v7.882a7.816 7.816 0 0 0-4.271 7.693zm5.413-10.066l.665-.285a1.473 1.473 0 0 0 .855-1.424v-8.832a12.279 12.279 0 0 1 2.849-7.787l4.178-4.843a.891.891 0 0 1 .665-.285.707.707 0 0 1 .665.285l4.178 4.843a12.279 12.279 0 0 1 2.849 7.787v8.832a1.765 1.765 0 0 0 .855 1.424l.665.285a4.8 4.8 0 0 1 2.754 4.748l-.476 4.658a26.4 26.4 0 0 0-6.078-1.8 1.4 1.4 0 0 0-1.235.38 1.484 1.484 0 0 0-.57 1.14v1.14H45.4v-1.14a1.354 1.354 0 0 0-.57-1.14 2.089 2.089 0 0 0-1.235-.38 27.874 27.874 0 0 0-6.078 1.8l-.475-4.558a5.153 5.153 0 0 1 2.944-4.848z" class="prefix__cls-2" data-name="Path 210" transform="translate(-1.005)"/>
                </g>
                <path id="prefix__Path_211" d="M49.723 28.941a5.269 5.269 0 0 0 5.223-5.223 5.352 5.352 0 0 0-5.223-5.318 5.269 5.269 0 0 0-5.223 5.223 5.352 5.352 0 0 0 5.223 5.318zm0-7.407a2.184 2.184 0 1 1-2.184 2.184 2.209 2.209 0 0 1 2.184-2.184z" class="prefix__cls-2" data-name="Path 211" transform="translate(-1.531 -.802)"/>
            </g>
        </g>
    </g>
</svg>
