<svg xmlns="http://www.w3.org/2000/svg" width="100" height="100" viewBox="0 0 100 100">
    <g id="prefix__Group_19" data-name="Group 19" transform="translate(-494 -1573)">
        <g id="prefix__Group_18" data-name="Group 18">
            <path id="prefix__Rectangle_8" d="M0 0H100V100H0z" data-name="Rectangle 8" transform="translate(494 1573)" style="fill:none"/>
            <path id="prefix__Path_37" d="M64.853 4.056a12.367 12.367 0 0 0-1.94.024 26.1 26.1 0 0 0-8.682 2.679c-6.1 2.911-13.079 7.993-19.789 14.589h-10.7a2.035 2.035 0 0 0-1.439.6L3.6 40.651a2.036 2.036 0 0 0 .533 3.26l12.013 5.947c-.064.394-.149.795-.183 1.177a9.62 9.62 0 0 0 .843 5.192l-4.482 5.6 1.076 1.114 6.287-3.841a9.6 9.6 0 0 0 5.176.843c.416-.037.851-.127 1.28-.2L32.2 71.984a2.035 2.035 0 0 0 3.268.533l18.708-18.708a2.036 2.036 0 0 0 .6-1.439V41.216c6.482-6.637 11.49-13.514 14.366-19.542a26.09 26.09 0 0 0 2.679-8.69c.234-2.632-.287-5.144-2.019-6.877a7.538 7.538 0 0 0-4.949-2.051zm-.286 3.951a3.578 3.578 0 0 1 2.425.906c.662.661 1.045 1.8.875 3.721a22.776 22.776 0 0 1-2.306 7.33 54.674 54.674 0 0 1-3.975 6.718l-12.364-12.37a54.839 54.839 0 0 1 6.718-3.967 22.825 22.825 0 0 1 7.33-2.314 8.8 8.8 0 0 1 1.297-.024zM45.844 16.7L59.2 30.054a90.028 90.028 0 0 1-8.038 9.222c-6.632 6.632-13.6 11.678-19.319 14.406a22.779 22.779 0 0 1-7.33 2.306 7.71 7.71 0 0 1-1.685-.032l22.508-22.5-2.886-2.878-22.509 22.508a7.744 7.744 0 0 1-.024-1.7 22.743 22.743 0 0 1 2.306-7.322c2.728-5.717 7.766-12.687 14.4-19.319a89.811 89.811 0 0 1 9.221-8.045zm-21.26 8.718h5.987a73.442 73.442 0 0 0-11.926 16.927 35.273 35.273 0 0 0-1.407 3.514l-8.753-4.341zM50.7 45.12v6.408L34.594 67.635l-4.46-9.008a35.094 35.094 0 0 0 3.419-1.367A73.838 73.838 0 0 0 50.7 45.12z" data-name="Path 37" transform="translate(507 1583.972)" style="fill:#ff5050"/>
            <path id="prefix__Path_48" d="M575.149 1591.679l-48.025 48.868 8.625 1.2 20.469-12.765 8.125-10.663 10.807-15.117z" data-name="Path 48" style="opacity:.2;fill:#ff5050"/>
        </g>
    </g>
</svg>
