<svg xmlns="http://www.w3.org/2000/svg" width="100" height="100" viewBox="0 0 100 100">
    <defs>
        <style>
            .prefix__cls-2,.prefix__cls-3{fill:#ff5050}.prefix__cls-3{stroke:#ff5050}
        </style>
    </defs>
    <g id="prefix__Group_481" data-name="Group 481" transform="translate(-494 -1573)">
        <g id="prefix__Group_18" data-name="Group 18">
            <path id="prefix__Rectangle_8" d="M0 0H100V100H0z" data-name="Rectangle 8" transform="translate(494 1573)" style="fill:none"/>
            <g id="prefix__noun_Customer_Focus_2021872" data-name="noun_Customer Focus_2021872" transform="translate(502 1581)">
                <path id="prefix__Path_127" d="M44.16 6.267V1h-3.453v5.267a36.24 36.24 0 0 0-34.44 34.44H1v3.453h5.267a36.24 36.24 0 0 0 34.44 34.44v5.267h3.453V78.6A36.24 36.24 0 0 0 78.6 44.16h5.267v-3.453H78.6a36.24 36.24 0 0 0-34.44-34.44zm0 68.88v-5.091h-3.453v5.091A32.79 32.79 0 0 1 9.72 44.16h5.091v-3.453H9.72A32.79 32.79 0 0 1 40.707 9.72v5.091h3.453V9.72a32.79 32.79 0 0 1 30.987 30.987h-5.091v3.453h5.091A32.79 32.79 0 0 1 44.16 75.147z" class="prefix__cls-2" data-name="Path 127"/>
            </g>
            <g id="prefix__profit" transform="translate(460.478 1602)">
                <g id="prefix__Group_464" data-name="Group 464" transform="translate(71.762 9.875)">
                    <g id="prefix__Group_463" data-name="Group 463">
                        <path id="prefix__Path_465" d="M116.952 110.5h-.188a11.957 11.957 0 0 0-8.508 20.126 8.515 8.515 0 0 1 2.342 6.211h-.34a.894.894 0 0 0 0 1.787h13.415a.894.894 0 0 0 0-1.787h-.483a8.143 8.143 0 0 1 2.386-6.158.09.09 0 0 0 .009-.027 11.942 11.942 0 0 0-8.633-20.153zm7.337 18.947a9.992 9.992 0 0 0-2.878 7.391h-9.018a10.353 10.353 0 0 0-2.833-7.445 10.014 10.014 0 0 1-2.735-7.114 10.122 10.122 0 0 1 20.242.018v.161a10.271 10.271 0 0 1-2.778 6.989z" class="prefix__cls-2" data-name="Path 465" transform="translate(-105.028 -110.5)"/>
                    </g>
                </g>
                <g id="prefix__Group_466" data-name="Group 466" transform="translate(78.74 40.86)">
                    <g id="prefix__Group_465" data-name="Group 465">
                        <path id="prefix__Path_466" d="M191.937 457.2h-8.2a.894.894 0 1 0 0 1.787h8.2a.894.894 0 1 0 0-1.787z" class="prefix__cls-2" data-name="Path 466" transform="translate(-182.848 -457.2)"/>
                    </g>
                </g>
                <g id="prefix__Group_468" data-name="Group 468" transform="translate(82.565)">
                    <g id="prefix__Group_467" data-name="Group 467">
                        <path id="prefix__Path_467" d="M226.542 0a.9.9 0 0 0-.894.894v4.567a.894.894 0 1 0 1.787 0V.894a.9.9 0 0 0-.893-.894z" class="prefix__cls-2" data-name="Path 467" transform="translate(-225.648)"/>
                    </g>
                </g>
                <g id="prefix__Group_470" data-name="Group 470" transform="translate(93.787 6.289)">
                    <g id="prefix__Group_469" data-name="Group 469">
                        <path id="prefix__Path_468" d="M356.11 70.65a.89.89 0 0 0-1.26-.036l-3.35 3.164a.891.891 0 1 0 1.224 1.3l3.351-3.164a.89.89 0 0 0 .035-1.264z" class="prefix__cls-2" data-name="Path 468" transform="translate(-351.219 -70.371)"/>
                    </g>
                </g>
                <g id="prefix__Group_472" data-name="Group 472" transform="translate(68.523 5.771)">
                    <g id="prefix__Group_471" data-name="Group 471">
                        <path id="prefix__Path_469" d="M73.27 68.107l-3.217-3.262a.891.891 0 1 0-1.278 1.242l.009.009L72 69.358a.909.909 0 0 0 .635.268.9.9 0 0 0 .894-.894.879.879 0 0 0-.259-.625z" class="prefix__cls-2" data-name="Path 469" transform="translate(-68.523 -64.575)"/>
                    </g>
                </g>
                <g id="prefix__Group_343" data-name="Group 343" transform="translate(79.861 17.283)">
                    <g id="prefix__Group_338" data-name="Group 338">
                        <g id="prefix__Group_339" data-name="Group 339">
                            <g id="prefix__Group_338-2" data-name="Group 338">
                                <path id="prefix__Path_273" d="M151.939 44.049h1.912a7.366 7.366 0 0 1 .927.022l-.12-.016a2.632 2.632 0 0 1 .667.181l-.108-.045a2.648 2.648 0 0 1 .569.332l-.091-.07a2.664 2.664 0 0 1 .475.475l-.07-.091a2.649 2.649 0 0 1 .332.569l-.045-.107a2.631 2.631 0 0 1 .181.667l-.016-.12a2.68 2.68 0 0 1 0 .678l.016-.12a2.631 2.631 0 0 1-.181.667l.045-.108a2.648 2.648 0 0 1-.332.569l.07-.091a2.664 2.664 0 0 1-.475.475l.091-.07a2.649 2.649 0 0 1-.569.332l.108-.045a2.632 2.632 0 0 1-.667.181l.12-.016a6.419 6.419 0 0 1-.81.022h-2.029a.454.454 0 0 0-.45.45v.238a.5.5 0 0 0 .138.344l.083.1.416.481 1.46 1.691 1.6 1.847.886 1.026.02.023a.45.45 0 0 0 .768-.318.471.471 0 0 0-.132-.318l-.7-.812-1.54-1.784-1.536-1.779-.688-.8.132.318v-.257l-.45.45h1.912c.244 0 .489.009.732 0a2.952 2.952 0 0 0 .95-.2 3.254 3.254 0 0 0 .891-.535 3.015 3.015 0 0 0 1.035-2.581 3.235 3.235 0 0 0-.283-1.025 3.009 3.009 0 0 0-1.273-1.349 3.123 3.123 0 0 0-1.511-.376h-2.452a.45.45 0 1 0 0 .9z" class="prefix__cls-3" data-name="Path 273" transform="translate(-151.489 -43.149)"/>
                            </g>
                        </g>
                        <g id="prefix__Group_341" data-name="Group 341" transform="translate(0 2.672)">
                            <g id="prefix__Group_340" data-name="Group 340">
                                <path id="prefix__Path_274" d="M158.964 250.982h-7.025a.45.45 0 0 0 0 .9h7.025a.45.45 0 1 0 0-.9z" class="prefix__cls-3" data-name="Path 274" transform="translate(-151.489 -250.982)"/>
                            </g>
                        </g>
                    </g>
                    <g id="prefix__Group_339-2" data-name="Group 339">
                        <g id="prefix__Group_342" data-name="Group 342">
                            <path id="prefix__Path_275" d="M151.941 44.044h7.025a.45.45 0 0 0 0-.9h-7.025a.45.45 0 0 0 0 .9z" class="prefix__cls-3" data-name="Path 275" transform="translate(-151.491 -43.144)"/>
                        </g>
                    </g>
                </g>
            </g>
        </g>
    </g>
</svg>
