<svg xmlns="http://www.w3.org/2000/svg" width="100" height="100" viewBox="0 0 100 100">
    <defs>
        <style>
            .prefix__cls-2{fill:#ff5050}
        </style>
    </defs>
    <g id="prefix__Group_353" data-name="Group 353" transform="translate(-494 -1573)">
        <g id="prefix__Group_18" data-name="Group 18">
            <path id="prefix__Rectangle_8" d="M0 0H100V100H0z" data-name="Rectangle 8" transform="translate(494 1573)" style="fill:none"/>
            <path id="prefix__Path_125" d="M61.117 50.151a1.889 1.889 0 0 0-2.675 0l-2.109 2.109-5.646-5.646A24.941 24.941 0 0 0 54.7 20.6c-1.971-3.573.026-.485-1.829-3.514a24.941 24.941 0 0 0-43.685 23.8c1.745 2.8 1.847 3.925 1.935 3.416A24.941 24.941 0 0 0 14.145 48 24.941 24.941 0 0 0 48 49.282l5.646 5.646-2.109 2.109a1.889 1.889 0 0 0 0 2.675l11.223 11.2a6.749 6.749 0 0 0 9.538 0 6.749 6.749 0 0 0 0-9.538zM46.7 45.329a21.162 21.162 0 0 1-29.9 0 21.162 21.162 0 1 1 29.9 0zm22.95 22.885a2.97 2.97 0 0 1-4.195 0l-9.825-9.825 4.217-4.217L69.71 64a2.97 2.97 0 0 1-.06 4.217z" class="prefix__cls-2" data-name="Path 125" transform="translate(506.577 1583.426)"/>
            <path id="prefix__Path_294" d="M52.25 46.257a1.678 1.678 0 0 1-1.678 1.678h-7.985l-2.818 4.473a1.689 1.689 0 0 1-1.42.772 1.644 1.644 0 0 1-1.409-.85l-4.474-7.83-2.181 3.489a1.7 1.7 0 0 1-1.443.816H22.87a1.678 1.678 0 0 1 0-3.355h5.066l3.12-5.2a1.689 1.689 0 0 1 1.465-.816 1.678 1.678 0 0 1 1.443.861l4.473 7.929 1.8-2.829a1.689 1.689 0 0 1 1.42-.772h8.947A1.678 1.678 0 0 1 52.25 46.3z" class="prefix__cls-2" data-name="Path 294" transform="translate(501.982 1568.227)"/>
        </g>
    </g>
</svg>
