<svg xmlns="http://www.w3.org/2000/svg" width="100" height="100" viewBox="0 0 100 100">
    <g id="prefix__Group_237" data-name="Group 237" transform="translate(-494 -1573)">
        <g id="prefix__Group_18" data-name="Group 18">
            <path id="prefix__Rectangle_8" d="M0 0H100V100H0z" data-name="Rectangle 8" transform="translate(494 1573)" style="fill:none"/>
            <path id="prefix__Path_125" d="M56.409 46.282a1.725 1.725 0 0 0-2.443 0l-1.925 1.925-5.155-5.155A22.773 22.773 0 0 0 50.55 19.3l6.666-6.666v3.174a1.725 1.725 0 1 0 3.45 0V8.466a1.725 1.725 0 0 0-1.725-1.725h-7.335a1.725 1.725 0 0 0 0 3.45h3.174l-5.9 5.9A22.773 22.773 0 0 0 8.993 37.822L2 44.812a1.727 1.727 0 0 0 2.443 2.443l6.314-6.314a22.773 22.773 0 0 0 2.76 3.381 22.773 22.773 0 0 0 30.909 1.166l5.155 5.155-1.925 1.925a1.725 1.725 0 0 0 0 2.443l10.25 10.228a6.162 6.162 0 0 0 8.709 0 6.162 6.162 0 0 0 0-8.709zm-13.16-4.4a19.322 19.322 0 0 1-27.3 0 19.322 19.322 0 1 1 27.3 0zM64.2 62.775a2.712 2.712 0 0 1-3.83 0L51.4 53.8l3.851-3.851 9.006 8.971a2.712 2.712 0 0 1-.055 3.851zM43.725 26.118l-7.97 7.982a1.725 1.725 0 0 1-2.443 0l-4.555-4.541-3.319-3.319-6.756 6.756a1.727 1.727 0 0 1-2.443-2.443l8-7.97a1.725 1.725 0 0 1 2.443 0l4.541 4.541 3.319 3.319 6.758-6.761a1.727 1.727 0 1 1 2.443 2.443z" data-name="Path 125" transform="translate(509.503 1586.348)" style="fill:#ff5050"/>
        </g>
    </g>
</svg>
