<svg xmlns="http://www.w3.org/2000/svg" width="100" height="100" viewBox="0 0 100 100">
    <defs>
        <style>
            .prefix__cls-2{fill:#ff5050}
        </style>
    </defs>
    <g id="prefix__Group_226" data-name="Group 226" transform="translate(-.461)">
        <g id="prefix__Group_18" data-name="Group 18">
            <path id="prefix__Rectangle_8" d="M0 0H100V100H0z" data-name="Rectangle 8" transform="translate(.461)" style="fill:none"/>
            <g id="prefix__Group_249" data-name="Group 249" transform="translate(10.461 9.999)">
                <path id="prefix__Path_158" d="M40 34a6 6 0 1 0 6 6 6 6 0 0 0-6-6zm0 8a2 2 0 1 1 2-2 2 2 0 0 1-2 2z" class="prefix__cls-2" data-name="Path 158"/>
                <path id="prefix__Path_159" d="M53.517 46.4a3.685 3.685 0 0 0 .131-3.4l-1.178-2.49c.008-.169.014-.339.014-.51s-.006-.339-.014-.51L53.647 37a3.685 3.685 0 0 0-.131-3.4l-1.25-2.184a3.65 3.65 0 0 0-2.88-1.829l-2.72-.216c-.277-.175-.562-.34-.85-.492L44.264 26.6a3.647 3.647 0 0 0-3.015-1.6h-2.5a3.642 3.642 0 0 0-3.015 1.6l-1.552 2.28c-.29.153-.573.316-.851.492l-2.72.215a3.65 3.65 0 0 0-2.88 1.83L26.486 33.6a3.68 3.68 0 0 0-.132 3.4l1.178 2.49c-.009.169-.014.339-.014.51s0 .346.014.51L26.354 43a3.679 3.679 0 0 0 .132 3.4l1.25 2.185a3.65 3.65 0 0 0 2.879 1.828l2.72.215q.415.263.852.494l1.55 2.279A3.647 3.647 0 0 0 38.751 55h2.5a3.646 3.646 0 0 0 3.016-1.6l1.551-2.278q.438-.231.851-.493l2.72-.216a3.653 3.653 0 0 0 2.881-1.829zM48.483 40c0 .118 0 .234-.011.346a3.746 3.746 0 0 0 .346 1.8l1.142 2.415-1.076 1.88-2.631.208a3.7 3.7 0 0 0-1.7.581c-.21.135-.427.26-.647.375a3.7 3.7 0 0 0-1.349 1.19l-1.5 2.2H38.94l-1.5-2.2a3.7 3.7 0 0 0-1.347-1.188q-.336-.176-.654-.379a3.7 3.7 0 0 0-1.691-.578l-2.631-.208-1.076-1.882 1.142-2.415a3.766 3.766 0 0 0 .346-1.808c-.007-.112-.011-.224-.011-.337s0-.226.011-.346a3.752 3.752 0 0 0-.347-1.8l-1.141-2.414 1.076-1.882 2.631-.208a3.689 3.689 0 0 0 1.693-.58c.21-.134.426-.259.651-.376a3.727 3.727 0 0 0 1.347-1.189L38.94 29h2.12l1.5 2.2a3.716 3.716 0 0 0 1.351 1.2c.222.115.438.24.649.376a3.7 3.7 0 0 0 1.692.578l2.631.208 1.076 1.88-1.139 2.41a3.723 3.723 0 0 0-.349 1.8c.008.114.012.23.012.348z" class="prefix__cls-2" data-name="Path 159"/>
                <path id="prefix__Path_160" d="M35.414 13.414L38 10.828V20a2 2 0 0 0 4 0v-9.172l2.586 2.586a2 2 0 1 0 2.828-2.828l-6-6c-.01-.01-.023-.017-.033-.027a2 2 0 0 0-.27-.221 1.933 1.933 0 0 0-.18-.1c-.055-.029-.106-.062-.164-.086a1.968 1.968 0 0 0-.237-.074c-.046-.013-.089-.031-.136-.04a2.01 2.01 0 0 0-.788 0c-.047.009-.09.028-.136.04a1.967 1.967 0 0 0-.237.074c-.057.024-.109.057-.164.086a1.932 1.932 0 0 0-.18.1 2 2 0 0 0-.27.221c-.01.01-.023.017-.033.027l-6 6a2 2 0 1 0 2.828 2.828z" class="prefix__cls-2" data-name="Path 160"/>
                <path id="prefix__Path_161" d="M13.414 44.585L10.828 42H21a2 2 0 0 0 0-4H10.828l2.586-2.586a2 2 0 1 0-2.828-2.828l-6 6a2.018 2.018 0 0 0-.253.307c-.011.017-.018.036-.029.054a1.991 1.991 0 0 0-.155.29c-.013.03-.018.063-.029.094a1.964 1.964 0 0 0-.085.279 2 2 0 0 0-.035.363V40a1.644 1.644 0 0 0 .11.626c.016.047.025.1.044.143a1.959 1.959 0 0 0 .123.231c.022.038.038.079.062.115a2.006 2.006 0 0 0 .217.264l.03.037 6 6a2 2 0 1 0 2.828-2.828z" class="prefix__cls-2" data-name="Path 161"/>
                <path id="prefix__Path_162" d="M44.586 66.586L42 69.172V60a2 2 0 0 0-4 0v9.172l-2.586-2.586a2 2 0 1 0-2.828 2.828l6 6c.01.01.023.017.033.027a2 2 0 0 0 .27.221 1.934 1.934 0 0 0 .18.1c.055.029.106.062.164.086a1.97 1.97 0 0 0 .237.074c.046.013.089.031.136.04a1.951 1.951 0 0 0 .788 0c.047-.009.09-.028.136-.04a1.971 1.971 0 0 0 .237-.074c.058-.024.109-.057.164-.086a1.935 1.935 0 0 0 .18-.1 2 2 0 0 0 .27-.221c.011-.01.023-.017.033-.027l6-6a2 2 0 1 0-2.828-2.828z" class="prefix__cls-2" data-name="Path 162"/>
                <path id="prefix__Path_163" d="M75.846 40.768c.012-.03.018-.063.029-.094a1.963 1.963 0 0 0 .085-.279 2 2 0 0 0 .04-.368V40a1.644 1.644 0 0 0-.11-.626c-.016-.047-.025-.1-.044-.143a1.96 1.96 0 0 0-.123-.231c-.022-.038-.038-.079-.062-.115a2.007 2.007 0 0 0-.217-.264l-.03-.037-6-6a2 2 0 1 0-2.828 2.828L69.172 38H59a2 2 0 0 0 0 4h10.172l-2.586 2.586a2 2 0 1 0 2.828 2.828l6-6a2.018 2.018 0 0 0 .253-.307c.011-.017.018-.036.029-.054a1.991 1.991 0 0 0 .15-.285z" class="prefix__cls-2" data-name="Path 163"/>
                <path id="prefix__Path_164" d="M16 26a2 2 0 0 0 2-2v-3.172l6.586 6.586a2 2 0 1 0 2.828-2.828L20.828 18H24a2 2 0 0 0 0-4h-8a2 2 0 0 0-.391.04c-.06.012-.116.034-.173.051a1.171 1.171 0 0 0-.4.165c-.049.027-.1.049-.148.081a2.008 2.008 0 0 0-.555.554c-.033.049-.055.1-.083.153a1.963 1.963 0 0 0-.1.192 1.939 1.939 0 0 0-.063.2c-.017.057-.039.112-.051.171A2.01 2.01 0 0 0 14 16v8a2 2 0 0 0 2 2z" class="prefix__cls-2" data-name="Path 164"/>
                <path id="prefix__Path_165" d="M24.586 52.583L18 59.169V56a2 2 0 0 0-4 0v8.009a2.007 2.007 0 0 0 .038.382c.012.063.036.122.054.182a1.188 1.188 0 0 0 .169.4c.025.045.045.092.074.136a2.008 2.008 0 0 0 .557.557c.037.025.078.041.117.064a1.955 1.955 0 0 0 .228.12c.053.022.108.033.162.05a1.929 1.929 0 0 0 .211.063 2.008 2.008 0 0 0 .291.029c.033 0 .065.01.1.01h8a2 2 0 0 0 0-4h-3.173l6.587-6.587a2 2 0 1 0-2.828-2.828z" class="prefix__cls-2" data-name="Path 165"/>
                <path id="prefix__Path_166" d="M64 54a2 2 0 0 0-2 2v3.172l-6.586-6.586a2 2 0 1 0-2.828 2.828L59.169 62H56a2 2 0 0 0 0 4h8a2.006 2.006 0 0 0 .391-.04c.06-.012.116-.034.173-.051a1.958 1.958 0 0 0 .2-.062 1.932 1.932 0 0 0 .2-.1c.049-.027.1-.049.148-.08a2.008 2.008 0 0 0 .555-.554c.033-.049.055-.1.083-.153a1.17 1.17 0 0 0 .163-.394c.017-.057.039-.112.051-.171A2.007 2.007 0 0 0 66 64v-8a2 2 0 0 0-2-2z" class="prefix__cls-2" data-name="Path 166"/>
                <path id="prefix__Path_167" d="M54 28a1.993 1.993 0 0 0 1.414-.586L62 20.828V24a2 2 0 0 0 4 0v-8.009a2.006 2.006 0 0 0-.039-.381c-.012-.063-.036-.122-.054-.182a1.188 1.188 0 0 0-.169-.4c-.025-.045-.045-.092-.074-.136a2.011 2.011 0 0 0-.557-.557c-.037-.025-.078-.041-.117-.064a1.98 1.98 0 0 0-.228-.12c-.053-.022-.108-.033-.162-.05a1.929 1.929 0 0 0-.211-.062 1.983 1.983 0 0 0-.291-.029c-.033 0-.065-.01-.1-.01H56a2 2 0 1 0 0 4h3.172l-6.586 6.586A2 2 0 0 0 54 28z" class="prefix__cls-2" data-name="Path 167"/>
            </g>
        </g>
    </g>
</svg>
