<svg xmlns="http://www.w3.org/2000/svg" width="100" height="100" viewBox="0 0 100 100">
    <defs>
        <style>
            .prefix__cls-2{fill:#ff5050}
        </style>
    </defs>
    <g id="prefix__Group_19" data-name="Group 19" transform="translate(-494 -1573)">
        <g id="prefix__Group_18" data-name="Group 18">
            <path id="prefix__Rectangle_8" d="M0 0H100V100H0z" data-name="Rectangle 8" transform="translate(494 1573)" style="fill:none"/>
            <g id="prefix__noun_development_1909734" transform="translate(506 1585)">
                <g id="prefix___37-Development" data-name="37-Development">
                    <path id="prefix__Path_198" d="M70.836 28.334H64.5a28.082 28.082 0 0 0-1.152-2.763l4.489-4.488a4.722 4.722 0 0 0 0-6.681l-6.682-6.676a4.722 4.722 0 0 0-6.681 0l-4.488 4.489a28.082 28.082 0 0 0-2.763-1.152V4.722A4.722 4.722 0 0 0 42.5 0h-9.443a4.722 4.722 0 0 0-4.722 4.722v6.341a28.08 28.08 0 0 0-2.763 1.152l-4.488-4.489a4.722 4.722 0 0 0-6.681 0L7.726 14.4a4.722 4.722 0 0 0 0 6.681l4.489 4.488a28.081 28.081 0 0 0-1.152 2.763H4.722A4.722 4.722 0 0 0 0 33.057V42.5a4.722 4.722 0 0 0 4.722 4.722h6.341a28.081 28.081 0 0 0 1.152 2.763l-4.489 4.49a4.722 4.722 0 0 0 0 6.681l6.674 6.677a4.839 4.839 0 0 0 6.681 0 1.574 1.574 0 1 0-2.227-2.226 1.574 1.574 0 0 1-2.227 0l-6.675-6.678a1.574 1.574 0 0 1 0-2.227l5.3-5.3a1.574 1.574 0 0 0 .277-1.851 25.081 25.081 0 0 1-1.82-4.368 1.574 1.574 0 0 0-1.5-1.111H4.722A1.574 1.574 0 0 1 3.148 42.5v-9.443a1.574 1.574 0 0 1 1.574-1.574H12.2a1.574 1.574 0 0 0 1.5-1.112A25.081 25.081 0 0 1 15.524 26a1.574 1.574 0 0 0-.277-1.851l-5.3-5.3a1.574 1.574 0 0 1 0-2.227l6.677-6.677a1.574 1.574 0 0 1 2.227 0l5.3 5.3a1.574 1.574 0 0 0 1.849.279 25.081 25.081 0 0 1 4.368-1.82 1.574 1.574 0 0 0 1.111-1.5V4.722a1.574 1.574 0 0 1 1.574-1.574H42.5a1.574 1.574 0 0 1 1.574 1.574V12.2a1.574 1.574 0 0 0 1.112 1.5 25.081 25.081 0 0 1 4.368 1.82 1.574 1.574 0 0 0 1.851-.277l5.3-5.3a1.574 1.574 0 0 1 2.227 0l6.677 6.677a1.574 1.574 0 0 1 0 2.227l-5.3 5.3A1.574 1.574 0 0 0 60.034 26a25.081 25.081 0 0 1 1.82 4.368 1.574 1.574 0 0 0 1.5 1.111h7.477a1.574 1.574 0 0 1 1.574 1.574V42.5a1.574 1.574 0 0 1-1.574 1.574h-7.472a1.574 1.574 0 0 0-1.5 1.112 25.081 25.081 0 0 1-1.82 4.368 1.574 1.574 0 0 0 .277 1.851l5.3 5.3a1.574 1.574 0 0 1 0 2.227l-6.677 6.677a1.574 1.574 0 0 1-2.227 0 1.574 1.574 0 1 0-2.227 2.226 4.722 4.722 0 0 0 6.681 0l6.677-6.678a4.722 4.722 0 0 0 0-6.681l-4.489-4.488a28.081 28.081 0 0 0 1.146-2.764h6.341a4.722 4.722 0 0 0 4.718-4.724v-9.443a4.722 4.722 0 0 0-4.723-4.723z" class="prefix__cls-2" data-name="Path 198"/>
                    <path id="prefix__Path_199" d="M30.905 56.081a1.574 1.574 0 0 0 1.558-1.574V49.7a18.89 18.89 0 1 0-3.148 0v3.5a4.433 4.433 0 0 0-3.148 4.456V67.1a1.574 1.574 0 0 0 1.574 1.574h6.3a1.574 1.574 0 0 0 1.571-1.574v-9.871a1.574 1.574 0 1 0-3.148 0v8.3h-3.148v-7.874a1.445 1.445 0 0 1 1.59-1.574zM15.148 30.895A15.741 15.741 0 1 1 30.89 46.636a15.741 15.741 0 0 1-15.742-15.741z" class="prefix__cls-2" data-name="Path 199" transform="translate(6.89 6.884)"/>
                    <path id="prefix__Path_200" d="M24.409 20.461a1.574 1.574 0 0 0-2.226 0l-4.722 4.722a1.574 1.574 0 0 0 0 2.226l4.722 4.722a1.574 1.574 0 1 0 2.226-2.226L20.8 26.3l3.609-3.609a1.574 1.574 0 0 0 0-2.226z" class="prefix__cls-2" data-name="Path 200" transform="translate(9.76 11.483)"/>
                    <path id="prefix__Path_201" d="M26.461 32.132a1.574 1.574 0 0 0 2.226 0l4.722-4.722a1.574 1.574 0 0 0 0-2.226l-4.722-4.722a1.574 1.574 0 1 0-2.226 2.226l3.61 3.609-3.609 3.609a1.574 1.574 0 0 0 0 2.226z" class="prefix__cls-2" data-name="Path 201" transform="translate(14.928 11.483)"/>
                    <path id="prefix__Path_326" d="M42.5 64.8s.086-4.261-3.519-4.658-1.669 2.334-1.669 2.334l1.815.722.81 1.6z" class="prefix__cls-2" data-name="Path 326"/>
                </g>
            </g>
        </g>
    </g>
</svg>
