<svg xmlns="http://www.w3.org/2000/svg" width="100" height="100" viewBox="0 0 100 100">
    <g id="prefix__Group_352" data-name="Group 352" transform="translate(-494 -1573)">
        <g id="prefix__Group_18" data-name="Group 18">
            <path id="prefix__Rectangle_8" d="M0 0H100V100H0z" data-name="Rectangle 8" transform="translate(494 1573)" style="fill:none"/>
            <g id="prefix__noun_innovation_3240661" transform="translate(509.176 1584.511)">
                <g id="prefix__Group_254" data-name="Group 254" transform="translate(8.824 1.489)">
                    <path id="prefix__Path_186" d="M9.965 21.865a1.493 1.493 0 0 0-1.136 1.45v4.555c0 .011-.006.02-.006.031a26.124 26.124 0 0 0 5.348 15.621c11.353 15 9.135 27.82 10.542 30.455a4.04 4.04 0 0 0 3.527 2.163c13.524-.324 14.725.771 16.717-1.1a3.968 3.968 0 0 0 1.233-2.688c.5-11.633 4.449-19.679 9.207-27.309 3.142-5.04 6.111-9.8 6.2-17.133v-4.594a1.493 1.493 0 0 0-1.137-1.45L55.7 20.7a22.894 22.894 0 0 0-.929-2.231l2.535-4.175a1.492 1.492 0 0 0-.22-1.83L50.634 6a1.5 1.5 0 0 0-1.828-.222l-4.193 2.541a22.9 22.9 0 0 0-2.215-.93L41.23 2.627a1.494 1.494 0 0 0-1.451-1.137h-9.125A1.493 1.493 0 0 0 29.2 2.623l-1.178 4.771a23.7 23.7 0 0 0-2.218.924L21.6 5.78a1.493 1.493 0 0 0-1.83.22l-6.457 6.46a1.493 1.493 0 0 0-.223 1.827l2.537 4.2a22.119 22.119 0 0 0-.916 2.207zm32.211 51.286c-15.381 0-13.955.036-14.322-.082-.84-.376-.55-1.1-.929-4.67h8.827a1.493 1.493 0 1 0 0-2.986h-9.234c-.25-1.555-.466-2.784-.961-4.756h19.408c-2.57 9.979-.865 12.494-2.789 12.494zm10.689-29.689a60.578 60.578 0 0 0-7.038 14.21H24.69a52.116 52.116 0 0 0-8.137-15.954 23.137 23.137 0 0 1-4.679-12.34h46.675c-.417 5.636-2.768 9.408-5.684 14.084zm-28.132-17.07a10.931 10.931 0 0 1 10.486-7.629 11.081 11.081 0 0 1 10.465 7.629zm-8.51-2.99a1.494 1.494 0 0 0 1.066-1 18.824 18.824 0 0 1 1.359-3.264 1.5 1.5 0 0 0-.035-1.481l-2.362-3.913 4.8-4.8 3.918 2.356a1.5 1.5 0 0 0 1.474.039 20.732 20.732 0 0 1 3.3-1.383 1.493 1.493 0 0 0 .982-1.056l1.1-4.425h6.787l1.08 4.425a1.5 1.5 0 0 0 1 1.067 19.976 19.976 0 0 1 3.292 1.381 1.491 1.491 0 0 0 1.468-.044l3.9-2.36 4.8 4.8-2.358 3.883a1.492 1.492 0 0 0-.042 1.477 19.685 19.685 0 0 1 1.378 3.3 1.493 1.493 0 0 0 1.067 1l4.422 1.084v1.906h-9.84a14.076 14.076 0 0 0-13.56-10.615 13.9 13.9 0 0 0-13.586 10.613h-9.818v-1.907z" data-name="Path 186" transform="translate(-8.824 -1.489)" style="fill:#ff5050"/>
                </g>
            </g>
        </g>
    </g>
</svg>
