<svg xmlns="http://www.w3.org/2000/svg" width="100" height="100" viewBox="0 0 100 100">
    <defs>
        <style>
            .prefix__cls-2{fill:#ff5050}
        </style>
    </defs>
    <g id="prefix__Group_19" data-name="Group 19" transform="translate(-494 -1573)">
        <g id="prefix__Group_18" data-name="Group 18">
            <path id="prefix__Rectangle_8" d="M0 0H100V100H0z" data-name="Rectangle 8" transform="translate(494 1573)" style="fill:none"/>
            <g id="prefix__Group_351" data-name="Group 351" transform="translate(499.833 1572.68)">
                <path id="prefix__Path_289" d="M48.284 43.89a2.1 2.1 0 0 0 .757 2.869l11.713 6.823a2.1 2.1 0 0 0 2.112-3.625l-11.713-6.824a2.1 2.1 0 0 0-2.869.757z" class="prefix__cls-2" data-name="Path 289" transform="translate(-3.487 -1.562)"/>
                <g id="prefix__Group_351-2" data-name="Group 351" transform="translate(2.167 22.32)">
                    <path id="prefix__Path_288" d="M61.22 22.32a2.1 2.1 0 0 0-2.1 2.1v10.747a2.1 2.1 0 0 0 4.2 0v-8.559a23.69 23.69 0 1 1-16.052 4.451 2.1 2.1 0 0 0-2.474-3.389 27.89 27.89 0 1 0 16.426-5.35z" class="prefix__cls-2" data-name="Path 288" transform="translate(-4.538 -22.32)"/>
                    <path id="prefix__Path_290" d="M8.015 37.221h19.4a1.848 1.848 0 0 0 0-3.7h-19.4a1.848 1.848 0 0 0 0 3.7z" class="prefix__cls-2" data-name="Path 290" transform="translate(-2.471 -23.172)"/>
                    <path id="prefix__Path_291" d="M4.015 47.875h19.4a1.848 1.848 0 1 0 0-3.7h-19.4a1.848 1.848 0 1 0 0 3.7z" class="prefix__cls-2" data-name="Path 291" transform="translate(-2.167 -23.983)"/>
                    <path id="prefix__Path_292" d="M25.265 56.681a1.849 1.849 0 0 0-1.848-1.848H4.015a1.848 1.848 0 1 0 0 3.7h19.4a1.848 1.848 0 0 0 1.85-1.852z" class="prefix__cls-2" data-name="Path 292" transform="translate(-2.167 -24.794)"/>
                    <path id="prefix__Path_293" d="M29.265 67.335a1.849 1.849 0 0 0-1.848-1.848H8.015a1.848 1.848 0 0 0 0 3.7h19.4a1.848 1.848 0 0 0 1.85-1.852z" class="prefix__cls-2" data-name="Path 293" transform="translate(-2.471 -25.604)"/>
                </g>
            </g>
        </g>
    </g>
</svg>
