<svg xmlns="http://www.w3.org/2000/svg" width="100" height="100" viewBox="0 0 100 100">
    <g id="prefix__Group_19" data-name="Group 19" transform="translate(-494 -1573)">
        <g id="prefix__Group_18" data-name="Group 18">
            <path id="prefix__Rectangle_8" d="M0 0H100V100H0z" data-name="Rectangle 8" transform="translate(494 1573)" style="fill:none"/>
            <path id="prefix__Path_202" d="M51.914 27.375l4.228-4.228a6.932 6.932 0 0 0 8-1.359A6.994 6.994 0 1 0 52.9 19.825l-4.3 4.228a17.307 17.307 0 0 1 3.314 3.322zm5.436-12.307a2.509 2.509 0 1 1 0 3.549 2.506 2.506 0 0 1 0-3.549zM38.021 20.5a22.865 22.865 0 0 1 2.341.151v-5.96a6.954 6.954 0 0 0 4.606-6.569 7.022 7.022 0 1 0-9.287 6.644v5.889c.83-.075 1.585-.155 2.34-.155zM35.454 8.122a2.567 2.567 0 1 1 2.567 2.567 2.645 2.645 0 0 1-2.567-2.567zm25.9 32.164a7.054 7.054 0 1 0 .076-4.681h-6.04c.076.755.151 1.586.151 2.341s-.076 1.51-.151 2.265h5.965zm6.569-4.832a2.567 2.567 0 1 1-2.567 2.567 2.645 2.645 0 0 1 2.564-2.567zm-40.47-11.4l-4.228-4.228a6.985 6.985 0 1 0-11.25 1.963 6.951 6.951 0 0 0 8 1.359l4.225 4.227a15.04 15.04 0 0 1 3.251-3.322zm-8.758-5.361a2.509 2.509 0 1 1 0-3.549 2.506 2.506 0 0 1-.003 3.548zm35.559 45.452A6.994 6.994 0 1 0 56.217 52.9l-4.228-4.3a19.756 19.756 0 0 1-3.322 3.322l4.233 4.22a6.951 6.951 0 0 0 1.354 8.003zm3.1-6.8a2.509 2.509 0 1 1 0 3.549 2.506 2.506 0 0 1-.004-3.544zM8.122 45.043a7.012 7.012 0 0 0 6.644-4.757h5.889c-.076-.755-.151-1.51-.151-2.265a22.865 22.865 0 0 1 .151-2.341h-5.964a6.954 6.954 0 0 0-6.569-4.606 6.984 6.984 0 1 0 0 13.968zm0-9.589a2.567 2.567 0 1 1-2.567 2.567 2.546 2.546 0 0 1 2.567-2.567zm32.24 25.9v-5.967c-.755.076-1.586.151-2.341.151s-1.51-.076-2.265-.151v5.889a7.021 7.021 0 1 0 9.287 6.644 7.022 7.022 0 0 0-4.681-6.569zm-2.341 9.136a2.567 2.567 0 1 1 2.567-2.567 2.546 2.546 0 0 1-2.567 2.564zm-13.968-21.9l-4.228 4.23a6.985 6.985 0 1 0 1.963 11.25 6.951 6.951 0 0 0 1.359-8l4.228-4.228a15.04 15.04 0 0 1-3.322-3.251zm-5.361 12.384a2.509 2.509 0 1 1 0-3.549 2.506 2.506 0 0 1 0 3.549zm23.255-28.163l2.416 2.416-5.587 5.512-2.416 2.416-2.416-2.416L31.6 38.4l2.416-2.416 2.341 2.341zm-3.926-8.683a13.893 13.893 0 1 0 13.893 13.893 13.9 13.9 0 0 0-13.893-13.893zm0 23.557a9.664 9.664 0 1 1 9.664-9.664 9.683 9.683 0 0 1-9.664 9.664z" data-name="Path 202" transform="translate(505.9 1584.9)" style="fill:#ff5050"/>
        </g>
    </g>
</svg>
