<svg xmlns="http://www.w3.org/2000/svg" width="603" height="469" viewBox="0 0 603 469">
    <defs>
        <style>
            .prefix__cls-11{fill:#061134;font-size:16px}.prefix__cls-12{font-family:ProximaNova-Regular,Proxima Nova}.prefix__cls-11{font-family:ProximaNova-Bold,Proxima Nova;font-weight:700}.prefix__cls-14,.prefix__cls-3{fill:none}.prefix__cls-3{stroke:#ff5050;stroke-width:2px}.prefix__cls-4,.prefix__cls-9{fill:#ff5050}.prefix__cls-4{opacity:.3}.prefix__cls-12{font-weight:400}.prefix__cls-13{stroke:none}
        </style>
    </defs>
    <g id="prefix__Group_548" data-name="Group 548" transform="translate(-997 -347)">
        <text id="prefix__Sweet-spot_for_Growth" fill="#061134" data-name="Sweet-spot for Growth" font-family="ProximaNova-Regular, Proxima Nova" font-size="16px" transform="translate(1497 581)">
            <tspan x="0" y="0">Sweet-spot for</tspan><tspan font-family="ProximaNova-Bold, Proxima Nova" font-weight="700"><tspan x="0" y="18">Growth</tspan></tspan>
        </text>
        <g id="prefix__Group_379" data-name="Group 379">
            <g id="prefix__Group_209" data-name="Group 209" transform="translate(60 -43)">
                <g id="prefix__Ellipse_24" class="prefix__cls-3" data-name="Ellipse 24" transform="translate(937 390)">
                    <circle cx="147" cy="147" r="147" class="prefix__cls-13"/>
                    <circle cx="147" cy="147" r="146" class="prefix__cls-14"/>
                </g>
                <g id="prefix__Ellipse_25" class="prefix__cls-3" data-name="Ellipse 25" transform="translate(1121 390)">
                    <circle cx="147" cy="147" r="147" class="prefix__cls-13"/>
                    <circle cx="147" cy="147" r="146" class="prefix__cls-14"/>
                </g>
                <g id="prefix__Ellipse_26" class="prefix__cls-3" data-name="Ellipse 26" transform="translate(937 565)">
                    <circle cx="147" cy="147" r="147" class="prefix__cls-13"/>
                    <circle cx="147" cy="147" r="146" class="prefix__cls-14"/>
                </g>
                <g id="prefix__Ellipse_27" class="prefix__cls-3" data-name="Ellipse 27" transform="translate(1121 565)">
                    <circle cx="147" cy="147" r="147" class="prefix__cls-13"/>
                    <circle cx="147" cy="147" r="146" class="prefix__cls-14"/>
                </g>
                <path id="prefix__Path_138" d="M14346.916-1181.6a136.428 136.428 0 0 1 7.58-24.781c4.7-11.143 12.234-22.427 17.354-27.465a145.614 145.614 0 0 0 15.916-18.023l13.215-11.311 18.084-11.772 25.559-10.435a84.777 84.777 0 0 1-2.705 12.015c-1.333 4.241-4.853 9.025-5.479 11.864-1.4 6.35-21.8 35.54-21.8 35.54l-18.987 18.961s-23.684 17-28.932 19.253-19.805 6.154-19.805 6.154z" class="prefix__cls-4" data-name="Path 138" transform="translate(-13219.509 1858.086)"/>
                <path id="prefix__Path_139" d="M14444.678-1182.22s-14.891-43.731-25.492-54.161-15.931-15.687-15.931-15.687l-13.886-11.584-19.514-12.183-23.138-9.115s5.781 17.086 7.182 23.436 21.806 35.54 21.806 35.54l19.721 18.375s22.9 15.79 28.149 18.044 21.103 7.335 21.103 7.335z" class="prefix__cls-4" data-name="Path 139" transform="translate(-13219.509 1858.086)"/>
                <path id="prefix__Path_140" fill="#ff5050" d="M14391.884-1262.294c-1.061.04-21.018 20.325-23.558 25.51s24.272 26.074 24.272 26.074 24.039-23.988 23.965-26.3-23.617-25.324-24.679-25.284z" data-name="Path 140" opacity="0.89" transform="translate(-13216.221 1861.516)"/>
            </g>
            <g id="prefix__Group_210" data-name="Group 210" transform="translate(72 -50)">
                <path id="prefix__Path_144" fill="none" stroke="#061134" stroke-linecap="round" stroke-width="2px" d="M12334.367-1224.12s67.785-89.316 229.273-48.434" data-name="Path 144" transform="rotate(11 -2864.26 -58225.297)"/>
                <g id="prefix__Group_208" data-name="Group 208" transform="rotate(24 -404.14 3281.278)">
                    <path id="prefix__Path_145" fill="#061134" d="M168.711 121.726a.795.795 0 0 0 1.123.042l6.137-5.7a.795.795 0 0 0 0-1.165l-6.137-5.7a.795.795 0 0 0-1.081 1.165l5.509 5.113-5.509 5.113a.8.8 0 0 0-.042 1.132z" data-name="Path 145"/>
                </g>
            </g>
            <g id="prefix__Group_378" data-name="Group 378">
                <g id="prefix__Group_331" data-name="Group 331" transform="translate(1304.458 408.14)">
                    <g id="prefix__Group_330" data-name="Group 330" transform="translate(6 19.861)">
                        <path id="prefix__Path_268" fill="#ff5050" fill-rule="evenodd" d="M15.035 33.346l4.729 2.365a1.637 1.637 0 0 0 1.933-.385l4.986-5.8 4.727 3.151a1.434 1.434 0 0 0 2.033-.461l5.257-8.768.579 1.894a.976.976 0 0 0 1.867-.571l-1.29-4.22a.976.976 0 0 0-1.219-.648l-1.7.521-2.5.763a.976.976 0 0 0 .571 1.867l2-.583-4.959 8.284-4.61-3.073a1.537 1.537 0 0 0-2 .276l-5.055 5.882-4.726-2.363a1.629 1.629 0 0 0-1.933.385L9.984 36.23a2.928 2.928 0 1 0 1.482 1.27zm-7.083 5.616a.976.976 0 1 1 .976.976.976.976 0 0 1-.976-.976z" data-name="Path 268" transform="translate(-6 -19.861)"/>
                    </g>
                </g>
                <g id="prefix__Group_104" data-name="Group 104" transform="translate(1052.9 644.866)">
                    <path id="prefix__Path_70" d="M43.45 34.947a2.928 2.928 0 0 0-2.16-.661 10.492 10.492 0 0 0 .22-4.8c-.705-3.658-3.394-6.038-6.743-6.038a9.674 9.674 0 0 0-5.2 1.763 9.414 9.414 0 0 0-5.245-1.811c-3.394 0-6.038 2.38-6.743 6.082a11.655 11.655 0 0 0 1.807 8.374 2.767 2.767 0 0 0-.529.485L11.1 47.42l7.757 7.757 3.526-4.892 12.429-1.543a3.215 3.215 0 0 0 2.2-1.234l6.92-8.594a2.855 2.855 0 0 0-.482-3.967zM19.3 29.835c.529-2.821 2.512-4.628 5.024-4.628a8.248 8.248 0 0 1 4.716 1.807l.529.4.529-.4a8.022 8.022 0 0 1 4.672-1.807c2.556 0 4.451 1.763 5.024 4.584a9.517 9.517 0 0 1-1.19 6.435l-4.584 5.509-5.687 1.365-.926-1.058 4.011-1.631a2.848 2.848 0 0 0 1.631-3.482v-.044a2.853 2.853 0 0 0-3.394-1.851L21.061 37.2a9.99 9.99 0 0 1-1.761-7.365zm23.227 7.933l-6.92 8.638a1.586 1.586 0 0 1-1.014.573l-13.224 1.675-2.733 3.834-5.156-5.156 6.7-7.8a1.586 1.586 0 0 1 .881-.485l9.079-2.292a1.089 1.089 0 0 1 1.278.705 1.066 1.066 0 0 1-.617 1.322l-6.347 2.6 3.35 3.7 7.272-1.763 5.068-6.082V37.2l.661-.793a1.12 1.12 0 0 1 1.587-.132l.044.044a1.13 1.13 0 0 1 .089 1.449z" class="prefix__cls-9" data-name="Path 70" transform="translate(0 -11.409)"/>
                    <path id="prefix__Rectangle_18" d="M0 0H2V5H0z" class="prefix__cls-9" data-name="Rectangle 18" transform="translate(28.795 3.134)"/>
                    <path id="prefix__Rectangle_19" d="M0 0H1.763V6.391H0z" class="prefix__cls-9" data-name="Rectangle 19" transform="rotate(35.907 14.144 64.575)"/>
                    <path id="prefix__Rectangle_20" d="M0 0H6.391V1.763H0z" class="prefix__cls-9" data-name="Rectangle 20" transform="rotate(54.12 5.358 20.15)"/>
                </g>
                <path id="prefix__Path_71" d="M39.116 25.212a2.672 2.672 0 0 0-2.657-2.657 2.439 2.439 0 0 0-1.128.255 2.78 2.78 0 0 0-3.385-1.019 2.785 2.785 0 0 0-2.985-1.165v-1.71h4.659A6.229 6.229 0 1 0 32.855 6.5a7.877 7.877 0 0 0-6.916-4 8.19 8.19 0 0 0-7.753 5.569 5.423 5.423 0 0 0 .036 10.847h5.533v7.061l-.874-.874a2.7 2.7 0 0 0-3.385-.328 2.756 2.756 0 0 0-1.165 1.856 2.652 2.652 0 0 0 .582 2.075l4.623 5.569a7.6 7.6 0 0 0 5.933 2.8h2.875a6.925 6.925 0 0 0 4.841-2 6.771 6.771 0 0 0 2-4.841l-.073-5.023zm-20.929-7.971a3.749 3.749 0 1 1 0-7.5c.109 0 .218.036.473.036a.867.867 0 0 0 .91-.619 6.512 6.512 0 0 1 12.157-1.38.855.855 0 0 0 .91.437 5.061 5.061 0 0 1 .983-.109 4.586 4.586 0 1 1 0 9.172h-4.586v-1.711a2.766 2.766 0 0 0-.764-1.893 2.561 2.561 0 0 0-1.893-.8 2.672 2.672 0 0 0-2.657 2.657v1.711zm17.762 16.67a5.178 5.178 0 0 1-3.676 1.529H29.4a5.98 5.98 0 0 1-4.623-2.184l-4.586-5.605a1.042 1.042 0 0 1-.218-.8 1.006 1.006 0 0 1 .437-.692 1.1 1.1 0 0 1 .582-.182 1.156 1.156 0 0 1 .728.291l1.856 1.856a1.056 1.056 0 0 0 1.165.218 1.082 1.082 0 0 0 .655-1.019V15.531a.979.979 0 0 1 .983-.983.994.994 0 0 1 .983.983v6.7a.866.866 0 0 0 .582.8.831.831 0 0 0 .946-.364 1.009 1.009 0 0 1 .837-.473 1 1 0 0 1 .983 1.056.866.866 0 0 0 .582.8.831.831 0 0 0 .946-.364 1.009 1.009 0 0 1 .837-.473 1 1 0 0 1 .983 1.056.852.852 0 0 0 .619.8.831.831 0 0 0 .946-.364 1.009 1.009 0 0 1 .837-.473.979.979 0 0 1 .983.983v5.023a5 5 0 0 1-1.494 3.674z" class="prefix__cls-9" data-name="Path 71" transform="translate(1297.628 651.711)"/>
                <g id="prefix__target" transform="translate(1064 424)">
                    <g id="prefix__Group_96" data-name="Group 96" transform="translate(2.429 2.429)">
                        <path id="prefix__Path_62" fill="#ff5050" stroke="#ff5050" stroke-width="0.4px" d="M14.144 26.287a12.144 12.144 0 1 1 12.143-12.143 12.179 12.179 0 0 1-12.143 12.143zm0-23.073a10.929 10.929 0 1 0 10.929 10.93 10.884 10.884 0 0 0-10.929-10.93z" data-name="Path 62" transform="translate(-2 -2)"/>
                    </g>
                    <g id="prefix__Group_97" data-name="Group 97" transform="translate(13.965)">
                        <path id="prefix__Path_63" d="M12.107 6.072a.574.574 0 0 1-.607-.607V.607a.607.607 0 0 1 1.214 0v4.858a.574.574 0 0 1-.607.607z" class="prefix__cls-9" data-name="Path 63" transform="translate(-11.5)"/>
                    </g>
                    <g id="prefix__Group_98" data-name="Group 98" transform="translate(13.965)">
                        <path id="prefix__Path_64" d="M12.107 6.072a.574.574 0 0 1-.607-.607V.607a.607.607 0 0 1 1.214 0v4.858a.574.574 0 0 1-.607.607z" class="prefix__cls-9" data-name="Path 64" transform="translate(-11.5)"/>
                    </g>
                    <g id="prefix__Group_99" data-name="Group 99" transform="translate(23.073 13.965)">
                        <path id="prefix__Path_65" d="M24.465 12.714h-4.858a.607.607 0 0 1 0-1.214h4.857a.607.607 0 0 1 0 1.214z" class="prefix__cls-9" data-name="Path 65" transform="translate(-19 -11.5)"/>
                    </g>
                    <g id="prefix__Group_100" data-name="Group 100" transform="translate(13.965 23.073)">
                        <path id="prefix__Path_66" d="M12.107 25.072a.574.574 0 0 1-.607-.607v-4.858a.607.607 0 0 1 1.214 0v4.857a.574.574 0 0 1-.607.608z" class="prefix__cls-9" data-name="Path 66" transform="translate(-11.5 -19)"/>
                    </g>
                    <g id="prefix__Group_101" data-name="Group 101" transform="translate(0 13.965)">
                        <path id="prefix__Path_67" d="M5.465 12.714H.607a.607.607 0 0 1 0-1.214h4.858a.607.607 0 0 1 0 1.214z" class="prefix__cls-9" data-name="Path 67" transform="translate(0 -11.5)"/>
                    </g>
                    <g id="prefix__Group_102" data-name="Group 102" transform="translate(12.144 8.5)">
                        <path id="prefix__Path_68" d="M12.429 11.857a2.429 2.429 0 1 1 2.429-2.429 2.436 2.436 0 0 1-2.429 2.429zm0-3.643a1.147 1.147 0 0 0-1.214 1.214 1.147 1.147 0 0 0 1.214 1.214 1.147 1.147 0 0 0 1.214-1.214 1.147 1.147 0 0 0-1.214-1.214z" class="prefix__cls-9" data-name="Path 68" transform="translate(-10 -7)"/>
                    </g>
                    <g id="prefix__Group_103" data-name="Group 103" transform="translate(9.715 14.572)">
                        <path id="prefix__Path_69" d="M17.108 16.857a.574.574 0 0 1-.607-.607v-1.214a1.868 1.868 0 0 0-1.822-1.822h-3.643a1.868 1.868 0 0 0-1.822 1.822v1.214a.607.607 0 0 1-1.214 0v-1.214A3.006 3.006 0 0 1 11.036 12h3.643a3.006 3.006 0 0 1 3.036 3.036v1.214a.574.574 0 0 1-.607.607z" class="prefix__cls-9" data-name="Path 69" transform="translate(-8 -12)"/>
                    </g>
                </g>
            </g>
        </g>
        <g id="prefix__Group_380" data-name="Group 380">
            <text id="prefix__Customer_desire" class="prefix__cls-11" data-name="Customer desire" transform="translate(1064 724)">
                <tspan x="0" y="0">Customer</tspan><tspan y="0" class="prefix__cls-12"> </tspan><tspan class="prefix__cls-12"><tspan x="0" y="20">desire</tspan></tspan>
            </text>
            <text id="prefix__Digitally_inspired_solutions" class="prefix__cls-11" data-name="Digitally inspired solutions" transform="translate(1310 724)">
                <tspan x="0" y="0">Digitally inspired</tspan><tspan class="prefix__cls-12"><tspan x="0" y="20">solutions</tspan></tspan>
            </text>
            <text id="prefix__Business_viability" class="prefix__cls-11" data-name="Business viability" transform="translate(1310 478)">
                <tspan x="0" y="0">Business</tspan><tspan y="0" class="prefix__cls-12"> </tspan><tspan class="prefix__cls-12"><tspan x="0" y="20">viability</tspan></tspan>
            </text>
            <text id="prefix__Human-centric_core_purpose_" class="prefix__cls-11" data-name="Human-centric core purpose" transform="translate(1064 478)">
                <tspan x="0" y="0">Human-centric</tspan><tspan y="0" class="prefix__cls-12"> </tspan><tspan class="prefix__cls-12"><tspan x="0" y="20">core purpose</tspan></tspan>
            </text>
        </g>
    </g>
</svg>
