<svg xmlns="http://www.w3.org/2000/svg" width="100" height="100" viewBox="0 0 100 100">
    <defs>
        <style>
            .prefix__cls-2{fill:#ff5050;stroke:#ff5050}
        </style>
    </defs>
    <g id="prefix__Group_226" data-name="Group 226" transform="translate(-.461)">
        <g id="prefix__Group_18" data-name="Group 18">
            <path id="prefix__Rectangle_8" d="M0 0H100V100H0z" data-name="Rectangle 8" transform="translate(.461)" style="fill:none"/>
            <g id="prefix__Group_293" data-name="Group 293" transform="translate(16.001 13.94)">
                <path id="prefix__Path_245" d="M66.066 63.192h-26.4c-2.383 0-7.21-3.13-7.21-5.688V34.2a1.434 1.434 0 0 1 .732-1.253C38.452 30 41.115 24.78 43.9 16.76V9.076a1.426 1.426 0 0 1 .2-.738 4.69 4.69 0 0 1 4.128-2.278 8.372 8.372 0 0 1 6.354 3.64c1.737 2.3 4.214 7.387 2.169 16.3H68.8c2.684 0 8.769 2.764 8.769 7.307 0 1.5-.177 3.779-1.13 5.116a7.781 7.781 0 0 1-1.41 7.9c.189 4.04-.827 6.975-2.97 8.583a10.865 10.865 0 0 1-2.5 6.443 4.684 4.684 0 0 1-3.5 1.854zM35.319 35.011V57.5c.235.767 3.136 2.827 4.349 2.827h26.4a2.149 2.149 0 0 0 1.359-.881A7.647 7.647 0 0 0 69.2 54.32a1.437 1.437 0 0 1 .738-1.459c2.323-1.253 2.386-4.947 2.223-7.041a1.436 1.436 0 0 1 .509-1.213c2.077-1.728 1.436-4.9.841-5.805a1.447 1.447 0 0 1-.132-1.313 1.431 1.431 0 0 1 1-.861 19.822 19.822 0 0 0 .352-3.342c0-2.326-4.252-4.446-5.905-4.446h-13.9a1.409 1.409 0 0 1-1.136-.564 1.442 1.442 0 0 1-.235-1.253c1.831-6.475 1.376-12.162-1.23-15.616a5.518 5.518 0 0 0-4.074-2.5 1.861 1.861 0 0 0-1.476.609v7.459a1.5 1.5 0 0 1-.077.466c-2.85 8.249-5.777 14.099-11.379 17.57z" class="prefix__cls-2" data-name="Path 245" transform="translate(-9.109)"/>
                <path id="prefix__Path_246" d="M21.191 73.989H5.478A5.025 5.025 0 0 1 .46 68.971V38.947a5.022 5.022 0 0 1 5.018-5.015h15.713a5.022 5.022 0 0 1 5.018 5.015v30.024a5.025 5.025 0 0 1-5.018 5.018zM5.478 36.793a2.158 2.158 0 0 0-2.157 2.154v30.024a2.159 2.159 0 0 0 2.157 2.157h15.713a2.159 2.159 0 0 0 2.157-2.157V38.947a2.158 2.158 0 0 0-2.157-2.154H5.478z" class="prefix__cls-2" data-name="Path 246" transform="translate(0 -7.936)"/>
            </g>
        </g>
    </g>
</svg>
