<svg xmlns="http://www.w3.org/2000/svg" width="100" height="100" viewBox="0 0 100 100">
    <g id="prefix__Group_225" data-name="Group 225" transform="translate(-494 -1573)">
        <g id="prefix__Group_18" data-name="Group 18">
            <path id="prefix__Rectangle_8" d="M0 0H100V100H0z" data-name="Rectangle 8" transform="translate(494 1573)" style="fill:none"/>
            <g id="prefix__Group_371" data-name="Group 371" transform="translate(496.904 1575.539)">
                <path id="prefix__Path_328" d="M29.6 89.6a2.354 2.354 0 0 1-.8-.2 1.456 1.456 0 0 1-.5-2l18.1-35.3H33.2a1.34 1.34 0 0 1-1.3-.8 1.357 1.357 0 0 1 .1-1.5L62 6.1a1.536 1.536 0 0 1 1.9-.5 1.356 1.356 0 0 1 .7 1.8L53.7 37.5h11.7a1.34 1.34 0 0 1 1.3.8 1.81 1.81 0 0 1-.1 1.6L30.8 89a1.425 1.425 0 0 1-1.2.6zM36 49.1h12.8a1.709 1.709 0 0 1 1.3.7 1.583 1.583 0 0 1 .1 1.5L39.7 71.7l22.8-31.2h-11a1.425 1.425 0 0 1-1.2-.6 1.7 1.7 0 0 1-.2-1.4l7.6-21.1z" data-name="Path 328" style="fill:#ff5050"/>
            </g>
        </g>
    </g>
</svg>
