<svg xmlns="http://www.w3.org/2000/svg" width="100" height="100" viewBox="0 0 100 100">
    <defs>
        <style>
            .cls-2{fill:#ff5050}
        </style>
    </defs>
    <g id="Group_19" transform="translate(-494 -1573)">
        <g id="Group_18">
            <path id="Rectangle_8" fill="none" d="M0 0H100V100H0z" transform="translate(494 1573)"/>
            <g id="Group_603">
                <g id="noun_List_3716671" transform="translate(501.8 1582)">
                    <g id="Group_602" transform="translate(9.2 5)">
                        <path id="Path_523" d="M30.868 17.48l-6.713 6.793-2.238-2.238a1.582 1.582 0 1 0-2.238 2.238l3.357 3.437a1.545 1.545 0 0 0 2.238 0l7.832-7.992a1.582 1.582 0 0 0-2.238-2.238z" class="cls-2" transform="translate(-11.208 -7.41)"/>
                        <path id="Path_524" d="M30.868 41.48l-6.713 6.793-2.238-2.238a1.582 1.582 0 1 0-2.238 2.238l3.357 3.437a1.545 1.545 0 0 0 2.238 0l7.832-7.992a1.582 1.582 0 0 0-2.238-2.238z" class="cls-2" transform="translate(-11.208 -12.229)"/>
                        <path id="Path_525" d="M44.9 20.2h20.777a1.6 1.6 0 0 0 0-3.2H44.9a1.6 1.6 0 0 0 0 3.2z" class="cls-2" transform="translate(-16.048 -7.41)"/>
                        <path id="Path_526" d="M44.9 30.2h20.777a1.6 1.6 0 0 0 0-3.2H44.9a1.6 1.6 0 0 0 0 3.2z" class="cls-2" transform="translate(-16.048 -9.418)"/>
                        <path id="Path_527" d="M28.89 67H24.1a4.809 4.809 0 0 0-4.8 4.8v4.8a4.809 4.809 0 0 0 4.8 4.8h4.8a4.809 4.809 0 0 0 4.8-4.8v-4.8a4.809 4.809 0 0 0-4.81-4.8zm1.6 9.59a1.6 1.6 0 0 1-1.6 1.6H24.1a1.6 1.6 0 0 1-1.6-1.6V71.8a1.6 1.6 0 0 1 1.6-1.6h4.8a1.6 1.6 0 0 1 1.6 1.6z" class="cls-2" transform="translate(-11.228 -17.45)"/>
                        <path id="Path_528" d="M72.5 29.056l-4.156-3.2V9.8a4.809 4.809 0 0 0-4.8-4.8H14a4.809 4.809 0 0 0-4.8 4.8v62.332a4.809 4.809 0 0 0 4.8 4.8h49.55a4.809 4.809 0 0 0 4.8-4.8v-29.97l2-2.557 2.95-3.756a4.751 4.751 0 0 0-.8-6.793zm-7.277 43.076a1.6 1.6 0 0 1-1.6 1.6H14.075a1.6 1.6 0 0 1-1.6-1.6V9.8a1.6 1.6 0 0 1 1.6-1.6h49.55a1.6 1.6 0 0 1 1.6 1.6v14.381a3.027 3.027 0 0 0-1.2 0 4.715 4.715 0 0 0-3.2 1.838l-6.154 7.752h-16.62a1.6 1.6 0 1 0 0 3.2H52.2l-3.756 4.8H38.051a1.6 1.6 0 1 0 0 3.2h7.912l-8.152 10.378a5.159 5.159 0 0 0-1.039 3.037l.08 9.111a1.668 1.668 0 0 0 .639 1.279 1.536 1.536 0 0 0 .959.32h.4l8.871-2.078a4.873 4.873 0 0 0 2.637-1.678l14.785-18.862v25.654zm-17.262-8.951a1.519 1.519 0 0 1-.879.559l-6.953 1.678-.08-7.113a1.274 1.274 0 0 1 .32-.959l18.94-24.374 7.591 5.914zm22.857-29.33l-2 2.557-7.592-5.914 2-2.477a1.777 1.777 0 0 1 1.039-.639h.16a1.958 1.958 0 0 1 .959.32l5.035 3.916a1.455 1.455 0 0 1 .399 2.237z" class="cls-2" transform="translate(-9.2 -5)"/>
                    </g>
                </g>
                <path id="Path_529" fill="#ff5050" d="M532.544 1589v68.087h-17.98l-1.714-4.186v-62.048l1.714-1.853z" opacity="0.2"/>
            </g>
        </g>
    </g>
</svg>
