<svg xmlns="http://www.w3.org/2000/svg" width="100" height="100" viewBox="0 0 100 100">
    <defs>
        <style>
            .prefix__cls-2{fill:#ff5050;stroke:#ff5050}
        </style>
    </defs>
    <g id="prefix__Group_370" data-name="Group 370" transform="translate(-494 -1573)">
        <g id="prefix__Group_18" data-name="Group 18">
            <path id="prefix__Rectangle_8" d="M0 0H100V100H0z" data-name="Rectangle 8" transform="translate(494 1573)" style="fill:none"/>
            <g id="prefix__Group_280" data-name="Group 280" transform="translate(504 1583)">
                <path id="prefix__Path_225" d="M36.5 56A19.5 19.5 0 1 0 17 36.5 19.557 19.557 0 0 0 36.5 56zm0-2.437a16.818 16.818 0 0 1-11.334-4.387 11.668 11.668 0 0 1 22.669 0A16.253 16.253 0 0 1 36.5 53.563zm0-34.125A17.113 17.113 0 0 1 53.563 36.5a17.385 17.385 0 0 1-3.778 10.725 14.158 14.158 0 0 0-26.569 0A16.678 16.678 0 0 1 19.438 36.5 17.113 17.113 0 0 1 36.5 19.438z" class="prefix__cls-2" data-name="Path 225" transform="translate(3.5 3.5)"/>
                <path id="prefix__Path_226" d="M31.472 6.241l1.1-1.1V15.5a1.151 1.151 0 0 0 1.219 1.219 1.151 1.151 0 0 0 1.215-1.219V5.144l1.1 1.1a1.207 1.207 0 0 0 1.706-1.706l-3.171-3.172a1.178 1.178 0 0 0-1.706 0l-3.169 3.168a1.207 1.207 0 1 0 1.706 1.706z" class="prefix__cls-2" data-name="Path 226" transform="translate(6.213)"/>
                <path id="prefix__Path_227" d="M11.319 16.925a1.151 1.151 0 0 0 1.219-1.219v-1.462l7.313 7.313a1.207 1.207 0 0 0 1.706-1.706l-7.312-7.312h1.462a1.151 1.151 0 0 0 1.219-1.219 1.151 1.151 0 0 0-1.22-1.22h-4.387a1.151 1.151 0 0 0-1.219 1.219v4.388a1.151 1.151 0 0 0 1.219 1.218z" class="prefix__cls-2" data-name="Path 227" transform="translate(1.991 1.991)"/>
                <path id="prefix__Path_228" d="M4.534 37.809A1.207 1.207 0 0 0 6.241 36.1l-1.1-1.1H15.5a1.151 1.151 0 0 0 1.219-1.219 1.151 1.151 0 0 0-1.219-1.212H5.144l1.1-1.1a1.207 1.207 0 1 0-1.706-1.706l-3.172 3.171a1.178 1.178 0 0 0 0 1.706z" class="prefix__cls-2" data-name="Path 228" transform="translate(0 6.213)"/>
                <path id="prefix__Path_229" d="M21.556 46.566a1.178 1.178 0 0 0-1.706 0l-7.312 7.313v-1.463a1.151 1.151 0 0 0-1.219-1.216 1.151 1.151 0 0 0-1.219 1.216V56.8a1.151 1.151 0 0 0 1.219 1.219h4.388a1.219 1.219 0 0 0 0-2.437h-1.463l7.312-7.312a1.178 1.178 0 0 0 0-1.704z" class="prefix__cls-2" data-name="Path 229" transform="translate(1.991 9.887)"/>
                <path id="prefix__Path_230" d="M33.787 52.1a1.151 1.151 0 0 0-1.219 1.219v10.359l-1.1-1.1a1.207 1.207 0 1 0-1.706 1.706l3.169 3.169a1.178 1.178 0 0 0 1.706 0l3.169-3.169a1.207 1.207 0 0 0-1.706-1.703l-1.1 1.1V53.319a1.221 1.221 0 0 0-1.213-1.219z" class="prefix__cls-2" data-name="Path 230" transform="translate(6.213 11.178)"/>
                <path id="prefix__Path_231" d="M51.2 56.8a1.151 1.151 0 0 0 1.219 1.219H56.8a1.151 1.151 0 0 0 1.222-1.219v-4.384a1.219 1.219 0 1 0-2.437 0v1.463l-7.312-7.312a1.207 1.207 0 0 0-1.706 1.706l7.313 7.312h-1.464A1.221 1.221 0 0 0 51.2 56.8z" class="prefix__cls-2" data-name="Path 231" transform="translate(9.888 9.888)"/>
                <path id="prefix__Path_232" d="M64.287 29.766a1.207 1.207 0 1 0-1.706 1.706l1.1 1.1H53.319a1.151 1.151 0 0 0-1.219 1.215 1.151 1.151 0 0 0 1.219 1.219h10.359l-1.1 1.1a1.207 1.207 0 0 0 1.706 1.706l3.169-3.169a1.178 1.178 0 0 0 0-1.706z" class="prefix__cls-2" data-name="Path 232" transform="translate(11.178 6.213)"/>
                <path id="prefix__Path_233" d="M48.272 21.556l7.313-7.312v1.462a1.219 1.219 0 0 0 2.438 0v-4.387A1.151 1.151 0 0 0 56.8 10.1h-4.384a1.151 1.151 0 0 0-1.216 1.219 1.151 1.151 0 0 0 1.219 1.219h1.463l-7.316 7.312a1.207 1.207 0 0 0 1.706 1.706z" class="prefix__cls-2" data-name="Path 233" transform="translate(9.888 1.991)"/>
                <path id="prefix__Path_234" d="M34.2 35.406a6.7 6.7 0 1 0-6.7-6.7 6.763 6.763 0 0 0 6.7 6.7zm0-10.969a4.266 4.266 0 1 1-4.262 4.263 4.318 4.318 0 0 1 4.262-4.262z" class="prefix__cls-2" data-name="Path 234" transform="translate(5.797 4.594)"/>
            </g>
        </g>
    </g>
</svg>
