<svg xmlns="http://www.w3.org/2000/svg" width="100" height="100" viewBox="0 0 100 100">
    <defs>
        <style>
            .prefix__cls-2{fill:#ff5050}
        </style>
    </defs>
    <g id="prefix__Group_19" data-name="Group 19" transform="translate(-494 -1573)">
        <g id="prefix__Group_18" data-name="Group 18">
            <path id="prefix__Rectangle_8" d="M0 0H100V100H0z" data-name="Rectangle 8" transform="translate(494 1573)" style="fill:none"/>
            <g id="prefix__Group_76" data-name="Group 76" transform="translate(500.6 1579.3)">
                <path id="prefix__Path_20" d="M65.665 69.574a14.7 14.7 0 0 0-8.721-11.8A13.017 13.017 0 0 0 46.514 37a13.081 13.081 0 0 0-13.081 13.081A12.871 12.871 0 0 0 36 57.861a14.908 14.908 0 0 0-8.721 11.8L26 80.09a4.706 4.706 0 0 0 3.591 5.13 82.965 82.965 0 0 0 33.514 0 4.631 4.631 0 0 0 3.591-5.13zM46.514 40.933A9.063 9.063 0 1 1 37.452 50a9.067 9.067 0 0 1 9.062-9.067zM62.5 81.2a77.083 77.083 0 0 1-31.89 0 .528.528 0 0 1-.427-.684l1.282-10.43a10.788 10.788 0 0 1 8.035-9.147 13.134 13.134 0 0 0 14.363 0 10.788 10.788 0 0 1 8.037 9.148l1.282 10.43a1.75 1.75 0 0 1-.682.683z" class="prefix__cls-2" data-name="Path 20" transform="translate(-3.418 -4.685)"/>
                <path id="prefix__Path_21" d="M46.815 18.55v7.1a1.966 1.966 0 1 0 3.933 0v-7.1A7.08 7.08 0 1 0 41.6 11.8a7.235 7.235 0 0 0 5.215 6.75zm1.966-9.832A3.078 3.078 0 1 1 45.7 11.8a3.065 3.065 0 0 1 3.082-3.082z" class="prefix__cls-2" data-name="Path 21" transform="translate(-5.686)"/>
                <path id="prefix__Path_22" d="M21.1 30.407a7.146 7.146 0 0 0 3.334-.855l4.959 4.959a2.025 2.025 0 0 0 2.907-2.822l-4.963-4.959a7.423 7.423 0 0 0 .855-3.334 7.079 7.079 0 0 0-7.1-7.1A7.006 7.006 0 0 0 14 23.311a7.079 7.079 0 0 0 7.1 7.096zm0-10.174a3.078 3.078 0 1 1-3.078 3.078 3.065 3.065 0 0 1 3.078-3.078z" class="prefix__cls-2" data-name="Path 22" transform="translate(-1.682 -1.682)"/>
                <path id="prefix__Path_23" d="M86.517 43.9a7.08 7.08 0 0 0-6.754 5.044h-7.1a1.966 1.966 0 0 0 0 3.933h7.1a7.074 7.074 0 0 0 13.85-2.052 6.935 6.935 0 0 0-7.096-6.925zm0 10.174A3.078 3.078 0 1 1 89.595 51a3.065 3.065 0 0 1-3.078 3.074z" class="prefix__cls-2" data-name="Path 23" transform="translate(-9.906 -5.686)"/>
                <path id="prefix__Path_24" d="M23.346 53.077a1.966 1.966 0 1 0 0-3.933h-7.1a7.1 7.1 0 1 0 0 4.1h7.1zM9.582 54.1a3.078 3.078 0 1 1 3.078-3.078A3.065 3.065 0 0 1 9.582 54.1z" class="prefix__cls-2" data-name="Path 24" transform="translate(0 -5.715)"/>
                <path id="prefix__Path_25" d="M65.956 35.095a2 2 0 0 0 1.453-.6l4.959-4.959a7.423 7.423 0 0 0 3.334.855 7.154 7.154 0 1 0-6.241-3.762l-4.961 4.96a2.013 2.013 0 0 0 0 2.821 2.107 2.107 0 0 0 1.456.685zM75.7 20.218a3.078 3.078 0 1 1-3.076 3.082 3.12 3.12 0 0 1 3.076-3.082z" class="prefix__cls-2" data-name="Path 25" transform="translate(-8.924 -1.668)"/>
                <path id="prefix__Path_49" d="M36.876 38.214s13.483 5.46 7.7 16.936 3.212 25.429 3.212 25.429l13.339-2.606.513-10.355-5.748-11.911-4.34-2.39 2.205-6.777-2.205-8.326-2.49-2.725-10.708-.733z" data-name="Path 49" style="opacity:.2;fill:#ff5050"/>
            </g>
        </g>
    </g>
</svg>
