<svg xmlns="http://www.w3.org/2000/svg" width="100" height="100" viewBox="0 0 100 100">
    <defs>
        <style>
            .prefix__cls-2{fill:#ff5050;stroke:#ff5050}
        </style>
    </defs>
    <g id="prefix__Group_356" data-name="Group 356" transform="translate(-494 -1573)">
        <g id="prefix__Group_18" data-name="Group 18">
            <path id="prefix__Rectangle_8" d="M0 0H100V100H0z" data-name="Rectangle 8" transform="translate(494 1573)" style="fill:none"/>
            <g id="prefix__Group_355" data-name="Group 355" transform="translate(505 1585.1)">
                <path id="prefix__Path_295" d="M77.586 10.208A4.29 4.29 0 0 0 73.278 5.9H5.308a4.287 4.287 0 0 0-.838 8.5v51.572a4.673 4.673 0 0 0 4.667 4.667h60.072a4.673 4.673 0 0 0 4.667-4.667V14.4a4.248 4.248 0 0 0 3.71-4.192zm-5.864 55.764a2.4 2.4 0 0 1-2.393 2.393H9.257a2.4 2.4 0 0 1-2.393-2.393V14.516h64.858zm1.556-53.85H5.188a1.915 1.915 0 1 1 0-3.829h68.09a1.915 1.915 0 0 1 0 3.829z" class="prefix__cls-2" data-name="Path 295"/>
                <path id="prefix__Path_296" d="M18.6 58.219a1.2 1.2 0 0 0 1.2-1.2 25.765 25.765 0 0 1 25.721-25.724h6.1l-4.667 4.667a1.185 1.185 0 0 0 1.675 1.675l6.7-6.7a1.157 1.157 0 0 0 0-1.675l-6.7-6.7a1.185 1.185 0 0 0-1.675 1.675l4.67 4.663H45.4a28.038 28.038 0 0 0-28 28 1.167 1.167 0 0 0 1.2 1.319z" class="prefix__cls-2" data-name="Path 296" transform="translate(3.225 3.206)"/>
                <path id="prefix__Path_297" d="M34.606 42.1a4.906 4.906 0 0 0 0 9.813 5.008 5.008 0 0 0 4.906-4.906 4.852 4.852 0 0 0-4.906-4.907zm0 7.659a2.633 2.633 0 1 1 2.633-2.633 2.656 2.656 0 0 1-2.633 2.633z" class="prefix__cls-2" data-name="Path 297" transform="translate(5.644 7.119)"/>
                <path id="prefix__Path_298" d="M47.034 41.379a1.185 1.185 0 0 0-1.675 1.675l2.034 2.034L45.479 47a1.185 1.185 0 0 0 1.675 1.675l2.034-2.034 2.034 2.034A1.185 1.185 0 1 0 52.9 47l-2.034-2.034 2.034-2.032a1.185 1.185 0 0 0-1.675-1.675l-2.154 2.154z" class="prefix__cls-2" data-name="Path 298" transform="translate(8.653 6.883)"/>
                <path id="prefix__Path_299" d="M29.159 26.459a1.157 1.157 0 0 0 1.675 0l1.915-2.034 2.034 2.034a1.185 1.185 0 1 0 1.675-1.675l-2.034-2.034 1.915-1.915a1.185 1.185 0 0 0-1.675-1.675l-1.915 1.915-1.915-1.915a1.185 1.185 0 0 0-1.675 1.675l1.915 1.915-1.915 2.034a1.155 1.155 0 0 0 0 1.675z" class="prefix__cls-2" data-name="Path 299" transform="translate(5.467 2.537)"/>
                <path id="prefix__Path_300" d="M14.659 34.159a1.157 1.157 0 0 0 1.675 0l2.034-2.034 2.032 2.034a1.185 1.185 0 0 0 1.675-1.675l-2.154-1.915 2.034-2.034a1.185 1.185 0 0 0-1.675-1.675l-2.034 2.034-1.915-2.034a1.185 1.185 0 0 0-1.675 1.675l2.034 2.034-2.031 2.031a1.02 1.02 0 0 0 0 1.559z" class="prefix__cls-2" data-name="Path 300" transform="translate(2.616 4.051)"/>
            </g>
        </g>
    </g>
</svg>
